G75*
%MOIN*%
%OFA0B0*%
%FSLAX24Y24*%
%IPPOS*%
%LPD*%
%AMOC8*
5,1,8,0,0,1.08239X$1,22.5*
%
%ADD10R,0.0580X0.0300*%
%ADD11R,0.0300X0.0580*%
%ADD12R,0.0395X0.0356*%
%ADD13R,0.1730X0.1030*%
%ADD14R,0.0356X0.0395*%
%ADD15R,0.0749X0.0356*%
%ADD16C,0.0820*%
%ADD17C,0.1084*%
%ADD18R,0.0395X0.0434*%
%ADD19OC8,0.0740*%
%ADD20R,0.0867X0.0297*%
%ADD21C,0.0237*%
%ADD22C,0.0789*%
%ADD23C,0.0611*%
%ADD24C,0.0464*%
D10*
X016779Y002548D03*
X016779Y002863D03*
X016779Y003178D03*
X016779Y003493D03*
X016779Y003807D03*
X016779Y004122D03*
X016779Y004437D03*
X016779Y004752D03*
X020159Y004752D03*
X020159Y004437D03*
X020159Y004122D03*
X020159Y003807D03*
X020159Y003493D03*
X020159Y003178D03*
X020159Y002863D03*
X020159Y002548D03*
D11*
X019572Y001960D03*
X019257Y001960D03*
X018942Y001960D03*
X018627Y001960D03*
X018312Y001960D03*
X017997Y001960D03*
X017682Y001960D03*
X017367Y001960D03*
X017367Y005340D03*
X017682Y005340D03*
X017997Y005340D03*
X018312Y005340D03*
X018627Y005340D03*
X018942Y005340D03*
X019257Y005340D03*
X019572Y005340D03*
D12*
X021087Y004178D03*
X021699Y004181D03*
X022335Y004181D03*
X022335Y003512D03*
X021699Y003512D03*
X021087Y003509D03*
X021089Y002635D03*
X021629Y002635D03*
X021629Y001965D03*
X021089Y001965D03*
X029469Y002315D03*
X029469Y002985D03*
X009969Y009315D03*
X009969Y009985D03*
D13*
X033136Y009776D03*
X033136Y007524D03*
D14*
X015424Y004150D03*
X014755Y004150D03*
X014304Y004150D03*
X013635Y004150D03*
X013186Y004150D03*
X012517Y004150D03*
X013627Y004813D03*
X014296Y004813D03*
D15*
X015708Y003140D03*
X015708Y002668D03*
X015708Y002196D03*
D16*
X013863Y011138D03*
X012863Y011138D03*
X011863Y011138D03*
X010863Y011138D03*
X009863Y011138D03*
D17*
X008477Y008016D03*
X005524Y007032D03*
X008477Y006048D03*
X026981Y006048D03*
X029934Y007032D03*
X026981Y008016D03*
D18*
X027969Y003083D03*
X027595Y002256D03*
X028343Y002256D03*
X030595Y002256D03*
X031343Y002256D03*
X030969Y003083D03*
D19*
X033087Y005004D03*
X033087Y006004D03*
X002619Y005642D03*
X002619Y006642D03*
D20*
X032969Y003359D03*
X032969Y003004D03*
X032969Y002650D03*
X032969Y002296D03*
X032969Y001941D03*
D21*
X003001Y008520D03*
X003001Y010095D03*
D22*
X002954Y001772D03*
X002954Y004528D03*
D23*
X001969Y004036D03*
X001969Y002264D03*
D24*
X032269Y004646D03*
X032269Y005374D03*
M02*
