G75*
%MOIN*%
%OFA0B0*%
%FSLAX24Y24*%
%IPPOS*%
%LPD*%
%AMOC8*
5,1,8,0,0,1.08239X$1,22.5*
%
%ADD10R,0.0500X0.0220*%
%ADD11R,0.0220X0.0500*%
%ADD12R,0.0315X0.0276*%
%ADD13R,0.1650X0.0950*%
%ADD14R,0.0276X0.0315*%
%ADD15R,0.0669X0.0276*%
%ADD16C,0.0740*%
%ADD17C,0.1004*%
%ADD18C,0.0110*%
%ADD19R,0.0315X0.0354*%
%ADD20OC8,0.0660*%
%ADD21R,0.0787X0.0217*%
%ADD22C,0.0709*%
%ADD23C,0.0531*%
%ADD24C,0.0384*%
%ADD25C,0.0100*%
%ADD26C,0.0160*%
%ADD27C,0.0320*%
%ADD28C,0.0317*%
%ADD29C,0.0277*%
%ADD30C,0.0238*%
%ADD31C,0.0080*%
%ADD32C,0.0120*%
D10*
X016779Y002548D03*
X016779Y002863D03*
X016779Y003178D03*
X016779Y003493D03*
X016779Y003807D03*
X016779Y004122D03*
X016779Y004437D03*
X016779Y004752D03*
X020159Y004752D03*
X020159Y004437D03*
X020159Y004122D03*
X020159Y003807D03*
X020159Y003493D03*
X020159Y003178D03*
X020159Y002863D03*
X020159Y002548D03*
D11*
X019572Y001960D03*
X019257Y001960D03*
X018942Y001960D03*
X018627Y001960D03*
X018312Y001960D03*
X017997Y001960D03*
X017682Y001960D03*
X017367Y001960D03*
X017367Y005340D03*
X017682Y005340D03*
X017997Y005340D03*
X018312Y005340D03*
X018627Y005340D03*
X018942Y005340D03*
X019257Y005340D03*
X019572Y005340D03*
D12*
X021087Y004178D03*
X021699Y004181D03*
X022335Y004181D03*
X022335Y003512D03*
X021699Y003512D03*
X021087Y003509D03*
X021089Y002635D03*
X021629Y002635D03*
X021629Y001965D03*
X021089Y001965D03*
X029469Y002315D03*
X029469Y002985D03*
X009969Y009315D03*
X009969Y009985D03*
D13*
X033136Y009776D03*
X033136Y007524D03*
D14*
X015424Y004150D03*
X014755Y004150D03*
X014304Y004150D03*
X013635Y004150D03*
X013186Y004150D03*
X012517Y004150D03*
X013627Y004813D03*
X014296Y004813D03*
D15*
X015708Y003140D03*
X015708Y002668D03*
X015708Y002196D03*
D16*
X013863Y011138D03*
X012863Y011138D03*
X011863Y011138D03*
X010863Y011138D03*
X009863Y011138D03*
D17*
X008477Y008016D03*
X005524Y007032D03*
X008477Y006048D03*
X026981Y006048D03*
X029934Y007032D03*
X026981Y008016D03*
D18*
X028414Y006968D02*
X028781Y006968D01*
X007127Y006968D02*
X006761Y006968D01*
X006944Y006785D02*
X006944Y007152D01*
D19*
X027595Y002256D03*
X028343Y002256D03*
X030595Y002256D03*
X031343Y002256D03*
X030969Y003083D03*
X027969Y003083D03*
D20*
X033087Y005004D03*
X033087Y006004D03*
X002619Y005642D03*
X002619Y006642D03*
D21*
X032969Y003359D03*
X032969Y003004D03*
X032969Y002650D03*
X032969Y002296D03*
X032969Y001941D03*
D22*
X002954Y001772D03*
X002954Y004528D03*
D23*
X001969Y004036D03*
X001969Y002264D03*
D24*
X032269Y004646D03*
X032269Y005374D03*
D25*
X001634Y001315D02*
X001603Y001369D01*
X001599Y001400D01*
X001599Y002123D01*
X001634Y002040D01*
X001745Y001929D01*
X001891Y001868D01*
X002048Y001868D01*
X002193Y001929D01*
X002305Y002040D01*
X002365Y002185D01*
X002365Y002343D01*
X002305Y002488D01*
X002193Y002600D01*
X002048Y002660D01*
X001891Y002660D01*
X001745Y002600D01*
X001634Y002488D01*
X001599Y002405D01*
X001599Y003895D01*
X001634Y003812D01*
X001745Y003700D01*
X001891Y003640D01*
X002048Y003640D01*
X002193Y003700D01*
X002305Y003812D01*
X002365Y003957D01*
X002365Y004115D01*
X002305Y004260D01*
X002193Y004371D01*
X002048Y004432D01*
X001891Y004432D01*
X001745Y004371D01*
X001634Y004260D01*
X001599Y004177D01*
X001599Y011648D01*
X001602Y011660D01*
X001618Y011684D01*
X001644Y011696D01*
X001650Y011696D01*
X001664Y011696D01*
X001712Y011692D01*
X001717Y011696D01*
X033767Y011696D01*
X033804Y011688D01*
X033878Y011645D01*
X033930Y011578D01*
X033952Y011496D01*
X033952Y011493D01*
X033950Y011490D01*
X033950Y011445D01*
X033944Y011400D01*
X033950Y011392D01*
X033950Y010980D01*
X033915Y010980D01*
X033839Y010904D01*
X033839Y010361D01*
X033186Y010361D01*
X033186Y009826D01*
X033086Y009826D01*
X033086Y009726D01*
X032201Y009726D01*
X032201Y009286D01*
X032209Y009258D01*
X032223Y009233D01*
X032244Y009213D01*
X032269Y009198D01*
X032297Y009191D01*
X033086Y009191D01*
X033086Y009726D01*
X033186Y009726D01*
X033186Y009191D01*
X033839Y009191D01*
X033839Y008109D01*
X033186Y008109D01*
X033186Y007574D01*
X033086Y007574D01*
X033086Y007474D01*
X032201Y007474D01*
X032201Y007035D01*
X032209Y007007D01*
X032223Y006982D01*
X032244Y006961D01*
X032269Y006947D01*
X032297Y006939D01*
X033086Y006939D01*
X033086Y007474D01*
X033186Y007474D01*
X033186Y006939D01*
X033839Y006939D01*
X033839Y006396D01*
X033915Y006320D01*
X033950Y006320D01*
X033950Y001400D01*
X033945Y001369D01*
X033914Y001315D01*
X033861Y001284D01*
X033830Y001280D01*
X029874Y001280D01*
X029919Y001325D01*
X030543Y001949D01*
X030807Y001949D01*
X030883Y002025D01*
X030883Y002487D01*
X030807Y002563D01*
X030387Y002563D01*
X030399Y002575D01*
X030399Y002670D01*
X030522Y002793D01*
X030741Y002793D01*
X030758Y002776D01*
X031181Y002776D01*
X031257Y002852D01*
X031257Y003019D01*
X031259Y003025D01*
X031259Y003141D01*
X031257Y003147D01*
X031257Y003314D01*
X031181Y003390D01*
X030758Y003390D01*
X030741Y003373D01*
X030345Y003373D01*
X030238Y003329D01*
X030157Y003247D01*
X029973Y003064D01*
X029929Y002958D01*
X029929Y002842D01*
X029973Y002736D01*
X030012Y002697D01*
X029895Y002580D01*
X029684Y002580D01*
X029681Y002583D01*
X029258Y002583D01*
X029182Y002507D01*
X029182Y002124D01*
X029258Y002048D01*
X029681Y002048D01*
X029757Y002124D01*
X029757Y002220D01*
X030044Y002220D01*
X030294Y002470D01*
X030308Y002484D01*
X030308Y002223D01*
X029664Y001580D01*
X018294Y001580D01*
X018294Y001580D01*
X019736Y001580D01*
X019812Y001656D01*
X019812Y001720D01*
X019857Y001720D01*
X019898Y001679D01*
X019990Y001641D01*
X020089Y001641D01*
X020180Y001679D01*
X020250Y001749D01*
X020288Y001840D01*
X020288Y001940D01*
X020250Y002031D01*
X020180Y002101D01*
X020089Y002139D01*
X019990Y002139D01*
X019898Y002101D01*
X019857Y002060D01*
X019812Y002060D01*
X019812Y002264D01*
X019736Y002340D01*
X018807Y002340D01*
X018807Y003317D01*
X018738Y003386D01*
X018738Y003453D01*
X018697Y003552D01*
X018639Y003610D01*
X018792Y003610D01*
X018809Y003593D01*
X018809Y002863D01*
X018932Y002740D01*
X019032Y002640D01*
X019779Y002640D01*
X019779Y002384D01*
X019855Y002308D01*
X020159Y002308D01*
X020188Y002279D01*
X020188Y002279D01*
X020237Y002230D01*
X020287Y002179D01*
X020304Y002179D01*
X020346Y002162D01*
X020358Y002150D01*
X019812Y002150D01*
X019869Y002072D02*
X019869Y002308D01*
X019813Y002350D02*
X018807Y002350D01*
X018869Y002340D02*
X018869Y002803D01*
X018922Y002750D02*
X018807Y002750D01*
X018807Y002550D02*
X019779Y002550D01*
X019669Y002640D02*
X019669Y002340D01*
X019469Y002340D02*
X019469Y002640D01*
X019269Y002640D02*
X019269Y002340D01*
X019069Y002340D02*
X019069Y002640D01*
X018447Y002907D02*
X018388Y002966D01*
X018388Y003033D01*
X018347Y003132D01*
X018272Y003208D01*
X018173Y003249D01*
X018066Y003249D01*
X017967Y003208D01*
X017891Y003132D01*
X017851Y003033D01*
X017851Y002927D01*
X017891Y002828D01*
X017967Y002752D01*
X018066Y002711D01*
X018132Y002711D01*
X018132Y002340D01*
X017203Y002340D01*
X017127Y002264D01*
X017127Y001656D01*
X017203Y001580D01*
X017817Y001580D01*
X017817Y001548D01*
X017922Y001442D01*
X018085Y001280D01*
X001719Y001280D01*
X001688Y001284D01*
X001634Y001315D01*
X001614Y001350D02*
X002707Y001350D01*
X002679Y001361D02*
X002543Y001498D01*
X002469Y001676D01*
X002469Y001868D01*
X002543Y002046D01*
X002679Y002183D01*
X002857Y002256D01*
X003050Y002256D01*
X003228Y002183D01*
X003364Y002046D01*
X003438Y001868D01*
X003438Y001676D01*
X003364Y001498D01*
X003228Y001361D01*
X003050Y001288D01*
X002857Y001288D01*
X002679Y001361D01*
X002669Y001371D02*
X002669Y001280D01*
X002469Y001280D02*
X002469Y001676D01*
X002469Y001750D02*
X001599Y001750D01*
X001599Y001950D02*
X001724Y001950D01*
X001669Y002005D02*
X001669Y001295D01*
X001869Y001280D02*
X001869Y001877D01*
X002069Y001877D02*
X002069Y001280D01*
X002269Y001280D02*
X002269Y002005D01*
X002215Y001950D02*
X002503Y001950D01*
X002469Y001869D02*
X002469Y005182D01*
X002428Y005182D02*
X002809Y005182D01*
X003079Y005452D01*
X003079Y005833D01*
X002809Y006102D01*
X002428Y006102D01*
X002159Y005833D01*
X002159Y005452D01*
X002428Y005182D01*
X002669Y005182D02*
X002669Y004895D01*
X002651Y004882D02*
X002599Y004830D01*
X002556Y004771D01*
X002523Y004706D01*
X002501Y004637D01*
X002491Y004578D01*
X002904Y004578D01*
X002904Y004990D01*
X002845Y004981D01*
X002775Y004958D01*
X002710Y004925D01*
X002651Y004882D01*
X002759Y004950D02*
X001599Y004950D01*
X001599Y005150D02*
X004429Y005150D01*
X004429Y005197D02*
X004429Y003655D01*
X004539Y003545D01*
X004539Y002825D01*
X004789Y002575D01*
X004895Y002470D01*
X007294Y002470D01*
X007544Y002720D01*
X012294Y002720D01*
X012794Y003220D01*
X013769Y003220D01*
X013817Y003172D01*
X013916Y003131D01*
X014023Y003131D01*
X014122Y003172D01*
X014197Y003248D01*
X014238Y003347D01*
X014238Y003453D01*
X014197Y003552D01*
X014122Y003628D01*
X014023Y003669D01*
X013916Y003669D01*
X013817Y003628D01*
X013769Y003580D01*
X012645Y003580D01*
X012539Y003475D01*
X012145Y003080D01*
X007395Y003080D01*
X007289Y002975D01*
X007145Y002830D01*
X005044Y002830D01*
X004899Y002975D01*
X004899Y003695D01*
X004794Y003800D01*
X004789Y003805D01*
X004789Y005270D01*
X004797Y005278D01*
X004838Y005377D01*
X004838Y005483D01*
X004797Y005582D01*
X004722Y005658D01*
X004623Y005699D01*
X004516Y005699D01*
X004417Y005658D01*
X004341Y005582D01*
X004301Y005483D01*
X004301Y005377D01*
X004341Y005278D01*
X004417Y005202D01*
X004429Y005197D01*
X004312Y005350D02*
X002977Y005350D01*
X003069Y005442D02*
X003069Y004979D01*
X003062Y004981D02*
X003132Y004958D01*
X003197Y004925D01*
X003256Y004882D01*
X003308Y004830D01*
X003351Y004771D01*
X003384Y004706D01*
X003406Y004637D01*
X003416Y004578D01*
X003004Y004578D01*
X003004Y004478D01*
X003416Y004478D01*
X003406Y004419D01*
X003384Y004350D01*
X004429Y004350D01*
X004429Y004150D02*
X003223Y004150D01*
X003197Y004131D02*
X003256Y004174D01*
X003308Y004225D01*
X003351Y004285D01*
X003384Y004350D01*
X003269Y004478D02*
X003269Y004578D01*
X003362Y004750D02*
X004429Y004750D01*
X004429Y004550D02*
X003004Y004550D01*
X003004Y004578D02*
X002904Y004578D01*
X002904Y004478D01*
X003004Y004478D01*
X003004Y004066D01*
X003062Y004075D01*
X003132Y004098D01*
X003197Y004131D01*
X003269Y004187D02*
X003269Y002141D01*
X003261Y002150D02*
X015243Y002150D01*
X015243Y002004D02*
X015319Y001928D01*
X016096Y001928D01*
X016172Y002004D01*
X016172Y002055D01*
X016238Y002121D01*
X016450Y002333D01*
X016475Y002308D01*
X017083Y002308D01*
X017159Y002384D01*
X017159Y002940D01*
X017556Y002940D01*
X017676Y003060D01*
X017799Y003183D01*
X017799Y003553D01*
X017839Y003593D01*
X017856Y003610D01*
X018299Y003610D01*
X018241Y003552D01*
X018201Y003453D01*
X018201Y003347D01*
X018241Y003248D01*
X018317Y003172D01*
X018416Y003131D01*
X018447Y003131D01*
X018447Y002907D01*
X018447Y002950D02*
X018404Y002950D01*
X018312Y002787D02*
X018119Y002980D01*
X017869Y002881D02*
X017869Y002340D01*
X017669Y002340D02*
X017669Y003053D01*
X017766Y003150D02*
X017909Y003150D01*
X017869Y003079D02*
X017869Y003610D01*
X017799Y003550D02*
X018241Y003550D01*
X018269Y003580D02*
X018269Y003610D01*
X018069Y003610D02*
X018069Y003249D01*
X018201Y003350D02*
X017799Y003350D01*
X017379Y003360D02*
X017141Y003360D01*
X017138Y003363D01*
X017139Y003368D01*
X017139Y003488D01*
X016784Y003488D01*
X016784Y003498D01*
X017139Y003498D01*
X017139Y003597D01*
X017375Y003597D01*
X017379Y003593D01*
X017379Y003360D01*
X017269Y003360D02*
X017269Y003597D01*
X017379Y003550D02*
X017139Y003550D01*
X017069Y003498D02*
X017069Y003488D01*
X016869Y003488D02*
X016869Y003498D01*
X016774Y003498D02*
X016774Y003488D01*
X016419Y003488D01*
X016419Y003368D01*
X016421Y003363D01*
X016399Y003341D01*
X016399Y003128D01*
X016312Y003215D01*
X016207Y003320D01*
X016172Y003320D01*
X016172Y003332D01*
X016096Y003408D01*
X015319Y003408D01*
X015243Y003332D01*
X015243Y002949D01*
X015302Y002890D01*
X015285Y002873D01*
X015270Y002848D01*
X015263Y002820D01*
X015263Y002687D01*
X015689Y002687D01*
X015689Y002649D01*
X015263Y002649D01*
X015263Y002516D01*
X015270Y002488D01*
X015285Y002463D01*
X015302Y002446D01*
X015243Y002387D01*
X015243Y002004D01*
X015269Y001977D02*
X015269Y001280D01*
X015069Y001280D02*
X015069Y005720D01*
X014869Y005720D02*
X014869Y004437D01*
X014946Y004437D02*
X014563Y004437D01*
X014529Y004404D01*
X014496Y004437D01*
X014476Y004437D01*
X014476Y004525D01*
X014488Y004525D01*
X014564Y004601D01*
X014564Y005024D01*
X014488Y005100D01*
X014105Y005100D01*
X014028Y005024D01*
X014028Y004601D01*
X014105Y004525D01*
X014116Y004525D01*
X014116Y004437D01*
X014112Y004437D01*
X014036Y004361D01*
X014036Y003939D01*
X014112Y003863D01*
X014496Y003863D01*
X014529Y003896D01*
X014563Y003863D01*
X014946Y003863D01*
X015022Y003939D01*
X015022Y004361D01*
X014946Y004437D01*
X015022Y004350D02*
X015156Y004350D01*
X015156Y004361D02*
X015156Y003939D01*
X015232Y003863D01*
X015616Y003863D01*
X015692Y003939D01*
X015692Y003970D01*
X015882Y003970D01*
X015988Y004075D01*
X015988Y004075D01*
X016399Y004487D01*
X016399Y004274D01*
X016421Y004252D01*
X016419Y004247D01*
X016419Y004127D01*
X016774Y004127D01*
X016774Y004117D01*
X016419Y004117D01*
X016419Y003998D01*
X016421Y003993D01*
X016399Y003971D01*
X016399Y003644D01*
X016421Y003622D01*
X016419Y003617D01*
X016419Y003498D01*
X016774Y003498D01*
X016669Y003488D02*
X016669Y003498D01*
X016469Y003488D02*
X016469Y003498D01*
X016419Y003550D02*
X014198Y003550D01*
X014069Y003649D02*
X014069Y003906D01*
X014036Y003950D02*
X013902Y003950D01*
X013902Y003939D02*
X013902Y004361D01*
X013826Y004437D01*
X013443Y004437D01*
X013410Y004405D01*
X013377Y004437D01*
X012994Y004437D01*
X012918Y004361D01*
X012918Y003939D01*
X012994Y003863D01*
X013377Y003863D01*
X013410Y003895D01*
X013443Y003863D01*
X013826Y003863D01*
X013902Y003939D01*
X013869Y003906D02*
X013869Y003649D01*
X013669Y003580D02*
X013669Y003863D01*
X013469Y003863D02*
X013469Y003580D01*
X013269Y003580D02*
X013269Y003863D01*
X013069Y003863D02*
X013069Y003580D01*
X012869Y003580D02*
X012869Y005720D01*
X012669Y005720D02*
X012669Y004437D01*
X012708Y004437D02*
X012484Y004437D01*
X012149Y004772D01*
X012149Y005200D01*
X012197Y005248D01*
X012238Y005347D01*
X012238Y005453D01*
X012197Y005552D01*
X012122Y005628D01*
X012023Y005669D01*
X011916Y005669D01*
X011817Y005628D01*
X011741Y005552D01*
X011701Y005453D01*
X011701Y005347D01*
X011741Y005248D01*
X011789Y005200D01*
X011789Y004623D01*
X011895Y004517D01*
X012249Y004163D01*
X012249Y003939D01*
X012325Y003863D01*
X012708Y003863D01*
X012784Y003939D01*
X012784Y004361D01*
X012708Y004437D01*
X012784Y004350D02*
X012918Y004350D01*
X013069Y004437D02*
X013069Y005720D01*
X013269Y005720D02*
X013269Y004437D01*
X013401Y004587D02*
X013422Y004567D01*
X013447Y004553D01*
X013475Y004545D01*
X013608Y004545D01*
X013608Y004794D01*
X013379Y004794D01*
X013379Y004641D01*
X013387Y004613D01*
X013401Y004587D01*
X013456Y004550D02*
X012371Y004550D01*
X012469Y004452D02*
X012469Y005720D01*
X012269Y005720D02*
X012269Y004652D01*
X012171Y004750D02*
X013379Y004750D01*
X013379Y004831D02*
X013608Y004831D01*
X013608Y004794D01*
X013646Y004794D01*
X013646Y004831D01*
X013875Y004831D01*
X013875Y004984D01*
X013867Y005012D01*
X013853Y005038D01*
X013832Y005058D01*
X013807Y005073D01*
X013779Y005080D01*
X013646Y005080D01*
X013646Y004831D01*
X013608Y004831D01*
X013608Y005080D01*
X013475Y005080D01*
X013447Y005073D01*
X013422Y005058D01*
X013401Y005038D01*
X013387Y005012D01*
X013379Y004984D01*
X013379Y004831D01*
X013469Y004831D02*
X013469Y004794D01*
X013608Y004750D02*
X013646Y004750D01*
X013646Y004794D02*
X013646Y004545D01*
X013779Y004545D01*
X013807Y004553D01*
X013832Y004567D01*
X013853Y004587D01*
X013867Y004613D01*
X013875Y004641D01*
X013875Y004794D01*
X013646Y004794D01*
X013669Y004794D02*
X013669Y004831D01*
X013646Y004950D02*
X013608Y004950D01*
X013669Y005080D02*
X013669Y005720D01*
X013469Y005720D02*
X013469Y005079D01*
X013379Y004950D02*
X012149Y004950D01*
X012149Y005150D02*
X017127Y005150D01*
X017127Y005036D02*
X017203Y004960D01*
X019736Y004960D01*
X019812Y005036D01*
X019812Y005644D01*
X019736Y005720D01*
X018492Y005720D01*
X018492Y005881D01*
X018523Y005881D01*
X018622Y005922D01*
X018669Y005970D01*
X018669Y005720D01*
X018492Y005750D02*
X019861Y005750D01*
X019861Y005807D02*
X019861Y005693D01*
X019905Y005587D01*
X019986Y005505D01*
X020092Y005462D01*
X020141Y005462D01*
X020551Y005052D01*
X020551Y004780D01*
X020539Y004769D01*
X020539Y004916D01*
X020463Y004992D01*
X019855Y004992D01*
X019779Y004916D01*
X019779Y003959D01*
X019801Y003937D01*
X019799Y003932D01*
X019799Y003812D01*
X020154Y003812D01*
X020154Y003802D01*
X019799Y003802D01*
X019799Y003683D01*
X019801Y003678D01*
X019779Y003656D01*
X019779Y003060D01*
X019229Y003060D01*
X019229Y003767D01*
X019089Y003907D01*
X018966Y004030D01*
X018460Y004030D01*
X018488Y004097D01*
X018488Y004203D01*
X018447Y004302D01*
X018372Y004378D01*
X018273Y004419D01*
X018166Y004419D01*
X018067Y004378D01*
X018032Y004342D01*
X017794Y004580D01*
X017159Y004580D01*
X017159Y004916D01*
X017083Y004992D01*
X016475Y004992D01*
X016399Y004916D01*
X016399Y004913D01*
X016316Y004913D01*
X016211Y004807D01*
X015733Y004330D01*
X015692Y004330D01*
X015692Y004361D01*
X015616Y004437D01*
X015232Y004437D01*
X015156Y004361D01*
X015269Y004437D02*
X015269Y005720D01*
X015469Y005720D02*
X015469Y004437D01*
X015669Y004384D02*
X015669Y005720D01*
X015869Y005720D02*
X015869Y004466D01*
X015953Y004550D02*
X014513Y004550D01*
X014669Y004437D02*
X014669Y005720D01*
X014469Y005720D02*
X014469Y005100D01*
X014564Y004950D02*
X016433Y004950D01*
X016469Y004986D02*
X016469Y005720D01*
X016519Y005720D02*
X016567Y005672D01*
X016666Y005631D01*
X016773Y005631D01*
X016872Y005672D01*
X016947Y005748D01*
X016988Y005847D01*
X016988Y005953D01*
X016947Y006052D01*
X016872Y006128D01*
X016773Y006169D01*
X016666Y006169D01*
X016567Y006128D01*
X016519Y006080D01*
X010794Y006080D01*
X010649Y006225D01*
X010649Y008890D01*
X010544Y008995D01*
X010257Y009282D01*
X010257Y009507D01*
X010181Y009583D01*
X009758Y009583D01*
X009682Y009507D01*
X009682Y009124D01*
X009758Y009048D01*
X009983Y009048D01*
X010289Y008741D01*
X010289Y006075D01*
X010539Y005825D01*
X010645Y005720D01*
X016519Y005720D01*
X016669Y005631D02*
X016669Y004992D01*
X016869Y004992D02*
X016869Y005671D01*
X016948Y005750D02*
X017502Y005750D01*
X017502Y005720D02*
X017203Y005720D01*
X017127Y005644D01*
X017127Y005036D01*
X017069Y004992D02*
X017069Y008265D01*
X016985Y008350D02*
X014259Y008350D01*
X014259Y008150D02*
X017185Y008150D01*
X017269Y008065D02*
X017269Y005720D01*
X017469Y005720D02*
X017469Y007865D01*
X017502Y007833D02*
X017502Y005720D01*
X017502Y005950D02*
X016988Y005950D01*
X016719Y005900D02*
X010719Y005900D01*
X010469Y006150D01*
X010469Y008815D01*
X009969Y009315D01*
X009682Y009350D02*
X004399Y009350D01*
X004399Y009550D02*
X009725Y009550D01*
X009869Y009583D02*
X009869Y009717D01*
X009758Y009717D02*
X010181Y009717D01*
X010257Y009793D01*
X010257Y010176D01*
X010181Y010252D01*
X010149Y010252D01*
X010149Y010717D01*
X010287Y010855D01*
X010363Y011039D01*
X010363Y011238D01*
X010287Y011421D01*
X010146Y011562D01*
X009962Y011638D01*
X009764Y011638D01*
X009580Y011562D01*
X009439Y011421D01*
X009363Y011238D01*
X009363Y011039D01*
X009439Y010855D01*
X009580Y010714D01*
X009764Y010638D01*
X009789Y010638D01*
X009789Y010252D01*
X009758Y010252D01*
X009682Y010176D01*
X009682Y009793D01*
X009758Y009717D01*
X009725Y009750D02*
X004399Y009750D01*
X004399Y009950D02*
X004447Y009998D01*
X004488Y010097D01*
X004488Y010203D01*
X004447Y010302D01*
X004372Y010378D01*
X004273Y010419D01*
X004166Y010419D01*
X004067Y010378D01*
X003991Y010302D01*
X003951Y010203D01*
X003951Y010097D01*
X003991Y009998D01*
X004039Y009950D01*
X003151Y009950D01*
X003210Y010008D02*
X003087Y009886D01*
X002914Y009886D01*
X002792Y010008D01*
X002792Y010181D01*
X002914Y010304D01*
X003087Y010304D01*
X003210Y010181D01*
X003210Y010008D01*
X003210Y010150D02*
X003951Y010150D01*
X004039Y010350D02*
X001599Y010350D01*
X001599Y010150D02*
X002792Y010150D01*
X002869Y010259D02*
X002869Y011696D01*
X002669Y011696D02*
X002669Y007102D01*
X002809Y007102D02*
X002428Y007102D01*
X002159Y006833D01*
X002159Y006452D01*
X002428Y006182D01*
X002809Y006182D01*
X003079Y006452D01*
X003079Y006833D01*
X002809Y007102D01*
X002869Y007042D02*
X002869Y008356D01*
X002876Y008350D02*
X001599Y008350D01*
X001599Y008150D02*
X004039Y008150D01*
X004039Y008350D02*
X003126Y008350D01*
X003087Y008311D02*
X003210Y008434D01*
X003210Y008607D01*
X003087Y008729D01*
X002914Y008729D01*
X002792Y008607D01*
X002792Y008434D01*
X002914Y008311D01*
X003087Y008311D01*
X003069Y008311D02*
X003069Y006842D01*
X003079Y006750D02*
X003741Y006750D01*
X003741Y006748D02*
X003817Y006672D01*
X003916Y006631D01*
X004023Y006631D01*
X004122Y006672D01*
X004197Y006748D01*
X004238Y006847D01*
X004238Y006914D01*
X004294Y006970D01*
X004399Y007075D01*
X004399Y009950D01*
X009682Y009950D01*
X009969Y009985D02*
X009969Y011032D01*
X009863Y011138D01*
X010326Y010950D02*
X010420Y010950D01*
X010418Y010954D02*
X010452Y010887D01*
X010497Y010825D01*
X010550Y010772D01*
X010611Y010728D01*
X010679Y010693D01*
X010751Y010670D01*
X010825Y010658D01*
X010834Y010658D01*
X010834Y011109D01*
X010892Y011109D01*
X010892Y010658D01*
X010901Y010658D01*
X010975Y010670D01*
X011047Y010693D01*
X011115Y010728D01*
X011176Y010772D01*
X011229Y010825D01*
X011274Y010887D01*
X011308Y010954D01*
X011331Y011026D01*
X011343Y011100D01*
X011343Y011109D01*
X010892Y011109D01*
X010892Y011167D01*
X011343Y011167D01*
X011343Y011176D01*
X011331Y011251D01*
X011308Y011322D01*
X011274Y011390D01*
X011229Y011451D01*
X011176Y011504D01*
X011115Y011549D01*
X011047Y011583D01*
X010975Y011606D01*
X010901Y011618D01*
X010892Y011618D01*
X010892Y011167D01*
X010834Y011167D01*
X010834Y011109D01*
X010383Y011109D01*
X010383Y011100D01*
X010395Y011026D01*
X010418Y010954D01*
X010469Y010863D02*
X010469Y009070D01*
X010389Y009150D02*
X013679Y009150D01*
X013679Y008950D02*
X010589Y008950D01*
X010080Y008950D02*
X004399Y008950D01*
X004399Y009150D02*
X009682Y009150D01*
X009869Y009048D02*
X009869Y003080D01*
X009669Y003080D02*
X009669Y010677D01*
X009544Y010750D02*
X001599Y010750D01*
X001599Y010550D02*
X009789Y010550D01*
X010149Y010550D02*
X013679Y010550D01*
X013679Y010673D02*
X013679Y006592D01*
X013723Y006486D01*
X013805Y006404D01*
X013912Y006360D01*
X014027Y006360D01*
X014134Y006404D01*
X014215Y006486D01*
X014259Y006592D01*
X014259Y010827D01*
X014287Y010855D01*
X014363Y011039D01*
X014363Y011238D01*
X014287Y011421D01*
X014146Y011562D01*
X013962Y011638D01*
X013764Y011638D01*
X013580Y011562D01*
X013439Y011421D01*
X013363Y011238D01*
X013287Y011421D01*
X013146Y011562D01*
X012962Y011638D01*
X012764Y011638D01*
X012580Y011562D01*
X012439Y011421D01*
X012363Y011238D01*
X012287Y011421D01*
X012146Y011562D01*
X011962Y011638D01*
X011764Y011638D01*
X011580Y011562D01*
X011439Y011421D01*
X011363Y011238D01*
X011363Y011039D01*
X011439Y010855D01*
X011580Y010714D01*
X011764Y010638D01*
X011962Y010638D01*
X012146Y010714D01*
X012287Y010855D01*
X012363Y011039D01*
X012363Y011238D01*
X012363Y011039D01*
X012439Y010855D01*
X012580Y010714D01*
X012764Y010638D01*
X012962Y010638D01*
X013146Y010714D01*
X013287Y010855D01*
X013363Y011039D01*
X013363Y011238D01*
X013363Y011039D01*
X013439Y010855D01*
X013580Y010714D01*
X013679Y010673D01*
X013669Y010677D02*
X013669Y006080D01*
X013469Y006080D02*
X013469Y010825D01*
X013544Y010750D02*
X013182Y010750D01*
X013269Y010837D02*
X013269Y006080D01*
X013069Y006080D02*
X013069Y010682D01*
X012869Y010638D02*
X012869Y006080D01*
X012669Y006080D02*
X012669Y010677D01*
X012544Y010750D02*
X012182Y010750D01*
X012269Y010837D02*
X012269Y006080D01*
X012069Y006080D02*
X012069Y010682D01*
X011869Y010638D02*
X011869Y006080D01*
X011669Y006080D02*
X011669Y010677D01*
X011544Y010750D02*
X011145Y010750D01*
X011069Y010705D02*
X011069Y006080D01*
X010869Y006080D02*
X010869Y011109D01*
X010892Y011150D02*
X011363Y011150D01*
X011269Y011167D02*
X011269Y011109D01*
X011306Y010950D02*
X011400Y010950D01*
X011469Y010825D02*
X011469Y006080D01*
X011269Y006080D02*
X011269Y010881D01*
X010892Y010950D02*
X010834Y010950D01*
X010834Y011150D02*
X010363Y011150D01*
X010383Y011167D02*
X010834Y011167D01*
X010834Y011618D01*
X010825Y011618D01*
X010751Y011606D01*
X010679Y011583D01*
X010611Y011549D01*
X010550Y011504D01*
X010497Y011451D01*
X010452Y011390D01*
X010418Y011322D01*
X010395Y011251D01*
X010383Y011176D01*
X010383Y011167D01*
X010469Y011167D02*
X010469Y011109D01*
X010669Y011109D02*
X010669Y011167D01*
X010869Y011167D02*
X010869Y011696D01*
X010892Y011550D02*
X010834Y011550D01*
X010669Y011578D02*
X010669Y011696D01*
X010614Y011550D02*
X010158Y011550D01*
X010069Y011594D02*
X010069Y011696D01*
X009869Y011696D02*
X009869Y011638D01*
X009669Y011599D02*
X009669Y011696D01*
X009568Y011550D02*
X001599Y011550D01*
X001669Y011696D02*
X001669Y004295D01*
X001724Y004350D02*
X001599Y004350D01*
X001869Y004423D02*
X001869Y011696D01*
X002069Y011696D02*
X002069Y004423D01*
X002215Y004350D02*
X002523Y004350D01*
X002556Y004285D01*
X002599Y004225D01*
X002651Y004174D01*
X002710Y004131D01*
X002775Y004098D01*
X002845Y004075D01*
X002904Y004066D01*
X002904Y004478D01*
X002491Y004478D01*
X002501Y004419D01*
X002523Y004350D01*
X002669Y004478D02*
X002669Y004578D01*
X002869Y004578D02*
X002869Y004478D01*
X002904Y004550D02*
X001599Y004550D01*
X001599Y004750D02*
X002546Y004750D01*
X002904Y004750D02*
X003004Y004750D01*
X003004Y004578D02*
X003004Y004990D01*
X003062Y004981D01*
X003004Y004950D02*
X002904Y004950D01*
X002869Y004985D02*
X002869Y005242D01*
X003079Y005550D02*
X004328Y005550D01*
X004469Y005679D02*
X004469Y010051D01*
X004488Y010150D02*
X009682Y010150D01*
X009789Y010350D02*
X004399Y010350D01*
X004469Y010249D02*
X004469Y011696D01*
X004269Y011696D02*
X004269Y010419D01*
X004069Y010379D02*
X004069Y011696D01*
X003869Y011696D02*
X003869Y007149D01*
X003871Y007150D02*
X001599Y007150D01*
X001599Y006950D02*
X002276Y006950D01*
X002269Y006943D02*
X002269Y011696D01*
X002469Y011696D02*
X002469Y007102D01*
X002962Y006950D02*
X003701Y006950D01*
X003701Y006953D02*
X003701Y006847D01*
X003741Y006748D01*
X003869Y006651D02*
X003869Y001280D01*
X003669Y001280D02*
X003669Y011696D01*
X003469Y011696D02*
X003469Y001280D01*
X003269Y001280D02*
X003269Y001403D01*
X003200Y001350D02*
X018015Y001350D01*
X018069Y001295D02*
X018069Y001280D01*
X018219Y001400D02*
X017997Y001622D01*
X017997Y001960D01*
X018312Y001960D02*
X018312Y002787D01*
X018069Y002711D02*
X018069Y002340D01*
X018132Y002350D02*
X017126Y002350D01*
X017069Y002308D02*
X017069Y001280D01*
X016869Y001280D02*
X016869Y002308D01*
X016669Y002308D02*
X016669Y001280D01*
X016469Y001280D02*
X016469Y002314D01*
X016391Y002528D02*
X016058Y002196D01*
X015708Y002196D01*
X016267Y002150D02*
X017127Y002150D01*
X017269Y002340D02*
X017269Y002940D01*
X017469Y002940D02*
X017469Y002340D01*
X017159Y002550D02*
X018132Y002550D01*
X017972Y002750D02*
X017159Y002750D01*
X016779Y002863D02*
X016760Y002882D01*
X016391Y002882D01*
X016132Y003140D01*
X015708Y003140D01*
X016269Y003258D02*
X016269Y004357D01*
X016262Y004350D02*
X016399Y004350D01*
X016419Y004150D02*
X016062Y004150D01*
X016069Y004157D02*
X016069Y003408D01*
X016154Y003350D02*
X016408Y003350D01*
X015869Y003408D02*
X015869Y003970D01*
X015692Y003950D02*
X016399Y003950D01*
X016469Y004117D02*
X016469Y004127D01*
X016669Y004117D02*
X016669Y004127D01*
X016784Y004127D02*
X017139Y004127D01*
X017139Y004220D01*
X017171Y004220D01*
X017141Y004147D01*
X017141Y004033D01*
X017147Y004017D01*
X017139Y004017D01*
X017139Y004117D01*
X016784Y004117D01*
X016784Y004127D01*
X016869Y004117D02*
X016869Y004127D01*
X017069Y004117D02*
X017069Y004127D01*
X017139Y004150D02*
X017142Y004150D01*
X016817Y004400D02*
X017719Y004400D01*
X017969Y004150D01*
X018219Y004150D01*
X018039Y004350D02*
X018024Y004350D01*
X018069Y004379D02*
X018069Y004960D01*
X017869Y004960D02*
X017869Y004505D01*
X017824Y004550D02*
X019779Y004550D01*
X019779Y004750D02*
X017159Y004750D01*
X017269Y004580D02*
X017269Y004960D01*
X017125Y004950D02*
X019813Y004950D01*
X019869Y004992D02*
X019869Y005672D01*
X019812Y005550D02*
X019941Y005550D01*
X020069Y005471D02*
X020069Y004992D01*
X020269Y004992D02*
X020269Y005333D01*
X020252Y005350D02*
X019812Y005350D01*
X019812Y005150D02*
X020452Y005150D01*
X020469Y005133D02*
X020469Y004986D01*
X020505Y004950D02*
X020551Y004950D01*
X020971Y004950D02*
X022289Y004950D01*
X022289Y005150D02*
X020971Y005150D01*
X020971Y005226D02*
X020848Y005349D01*
X020438Y005759D01*
X020438Y005807D01*
X020394Y005913D01*
X020337Y005970D01*
X022145Y005970D01*
X022289Y005825D01*
X022289Y004449D01*
X022124Y004449D01*
X022048Y004373D01*
X022048Y003990D01*
X022124Y003914D01*
X022547Y003914D01*
X022623Y003990D01*
X022623Y004214D01*
X022649Y004241D01*
X022649Y005975D01*
X022399Y006225D01*
X022294Y006330D01*
X018669Y006330D01*
X018669Y011696D01*
X018469Y011696D02*
X018469Y006419D01*
X018416Y006419D02*
X018317Y006378D01*
X018241Y006302D01*
X018201Y006203D01*
X018201Y006136D01*
X018177Y006112D01*
X018177Y008197D01*
X018071Y008302D01*
X017738Y008636D01*
X017738Y008703D01*
X017697Y008802D01*
X017622Y008878D01*
X017523Y008919D01*
X017416Y008919D01*
X017317Y008878D01*
X017241Y008802D01*
X017201Y008703D01*
X017201Y008643D01*
X016848Y008996D01*
X016848Y009063D01*
X016807Y009162D01*
X016732Y009238D01*
X016633Y009279D01*
X016526Y009279D01*
X016427Y009238D01*
X016351Y009162D01*
X016311Y009063D01*
X016311Y008957D01*
X016351Y008858D01*
X016427Y008782D01*
X016526Y008741D01*
X016593Y008741D01*
X017502Y007833D01*
X017502Y007750D02*
X014259Y007750D01*
X014259Y007950D02*
X017385Y007950D01*
X017682Y007907D02*
X017682Y005340D01*
X017997Y005340D02*
X017997Y008122D01*
X017469Y008650D01*
X017220Y008750D02*
X017094Y008750D01*
X017069Y008775D02*
X017069Y011696D01*
X016869Y011696D02*
X016869Y008975D01*
X016894Y008950D02*
X033839Y008950D01*
X033839Y009150D02*
X016812Y009150D01*
X016669Y009264D02*
X016669Y011696D01*
X016469Y011696D02*
X016469Y009255D01*
X016346Y009150D02*
X014259Y009150D01*
X014259Y008950D02*
X016313Y008950D01*
X016579Y009010D02*
X017682Y007907D01*
X018177Y007950D02*
X026372Y007950D01*
X026369Y007966D02*
X026384Y007873D01*
X026414Y007781D01*
X026458Y007695D01*
X026514Y007617D01*
X026582Y007549D01*
X026660Y007493D01*
X026746Y007449D01*
X026838Y007419D01*
X026931Y007404D01*
X026931Y007966D01*
X027031Y007966D01*
X027031Y007404D01*
X027124Y007419D01*
X027216Y007449D01*
X027302Y007493D01*
X027380Y007549D01*
X027448Y007617D01*
X027505Y007695D01*
X027548Y007781D01*
X027578Y007873D01*
X027593Y007966D01*
X027031Y007966D01*
X027031Y008066D01*
X027593Y008066D01*
X027578Y008159D01*
X027548Y008251D01*
X027505Y008337D01*
X027448Y008415D01*
X027380Y008483D01*
X027302Y008540D01*
X027216Y008583D01*
X027124Y008613D01*
X027031Y008628D01*
X027031Y008066D01*
X026931Y008066D01*
X026931Y007966D01*
X026369Y007966D01*
X026369Y008066D02*
X026931Y008066D01*
X026931Y008628D01*
X026838Y008613D01*
X026746Y008583D01*
X026660Y008540D01*
X026582Y008483D01*
X026514Y008415D01*
X026458Y008337D01*
X026414Y008251D01*
X026384Y008159D01*
X026369Y008066D01*
X026383Y008150D02*
X018177Y008150D01*
X018069Y008305D02*
X018069Y011696D01*
X017869Y011696D02*
X017869Y008505D01*
X017824Y008550D02*
X026681Y008550D01*
X026669Y008544D02*
X026669Y011696D01*
X026469Y011696D02*
X026469Y008353D01*
X026467Y008350D02*
X018024Y008350D01*
X017719Y008750D02*
X033839Y008750D01*
X033839Y008550D02*
X027281Y008550D01*
X027269Y008556D02*
X027269Y011696D01*
X027069Y011696D02*
X027069Y008622D01*
X027031Y008550D02*
X026931Y008550D01*
X026869Y008618D02*
X026869Y011696D01*
X027469Y011696D02*
X027469Y008385D01*
X027495Y008350D02*
X033839Y008350D01*
X033839Y008150D02*
X027579Y008150D01*
X027469Y008066D02*
X027469Y007966D01*
X027590Y007950D02*
X032201Y007950D01*
X032201Y008014D02*
X032201Y007574D01*
X033086Y007574D01*
X033086Y008109D01*
X032297Y008109D01*
X032269Y008102D01*
X032244Y008087D01*
X032223Y008067D01*
X032209Y008042D01*
X032201Y008014D01*
X032269Y008102D02*
X032269Y009198D01*
X032201Y009350D02*
X014259Y009350D01*
X014259Y009550D02*
X032201Y009550D01*
X032269Y009726D02*
X032269Y009826D01*
X032201Y009826D02*
X033086Y009826D01*
X033086Y010361D01*
X032297Y010361D01*
X032269Y010353D01*
X032244Y010339D01*
X032223Y010318D01*
X032209Y010293D01*
X032201Y010265D01*
X032201Y009826D01*
X032201Y009950D02*
X014259Y009950D01*
X014259Y009750D02*
X033086Y009750D01*
X033069Y009726D02*
X033069Y009826D01*
X033086Y009950D02*
X033186Y009950D01*
X032869Y009826D02*
X032869Y009726D01*
X032669Y009726D02*
X032669Y009826D01*
X032469Y009826D02*
X032469Y009726D01*
X033086Y009550D02*
X033186Y009550D01*
X033186Y009350D02*
X033086Y009350D01*
X033069Y009191D02*
X033069Y008109D01*
X033086Y007950D02*
X033186Y007950D01*
X033269Y008109D02*
X033269Y009191D01*
X033469Y009191D02*
X033469Y008109D01*
X033669Y008109D02*
X033669Y009191D01*
X032869Y009191D02*
X032869Y008109D01*
X032669Y008109D02*
X032669Y009191D01*
X032469Y009191D02*
X032469Y008109D01*
X032201Y007750D02*
X027532Y007750D01*
X027469Y007647D02*
X027469Y006417D01*
X027448Y006446D02*
X027380Y006514D01*
X027302Y006571D01*
X027216Y006615D01*
X027124Y006645D01*
X027031Y006659D01*
X027031Y006098D01*
X026931Y006098D01*
X026931Y006659D01*
X026838Y006645D01*
X026746Y006615D01*
X026660Y006571D01*
X026582Y006514D01*
X026514Y006446D01*
X026458Y006368D01*
X026414Y006283D01*
X026384Y006191D01*
X026369Y006098D01*
X026931Y006098D01*
X026931Y005998D01*
X026369Y005998D01*
X026384Y005904D01*
X026414Y005813D01*
X026458Y005727D01*
X026514Y005649D01*
X026582Y005581D01*
X026660Y005524D01*
X026746Y005481D01*
X026838Y005451D01*
X026931Y005436D01*
X026931Y005998D01*
X027031Y005998D01*
X027031Y006098D01*
X027593Y006098D01*
X027578Y006191D01*
X027548Y006283D01*
X027505Y006368D01*
X027448Y006446D01*
X027514Y006350D02*
X028028Y006350D01*
X028031Y006346D02*
X028041Y006332D01*
X028053Y006320D01*
X028067Y006310D01*
X028081Y006301D01*
X028097Y006295D01*
X028114Y006290D01*
X028131Y006288D01*
X028904Y006288D01*
X028921Y006290D01*
X028937Y006295D01*
X028953Y006301D01*
X028968Y006310D01*
X028981Y006320D01*
X028993Y006332D01*
X029004Y006346D01*
X029012Y006361D01*
X029019Y006376D01*
X029023Y006393D01*
X029025Y006410D01*
X029025Y007538D01*
X029023Y007555D01*
X029019Y007571D01*
X029012Y007587D01*
X029004Y007602D01*
X028993Y007615D01*
X028981Y007627D01*
X028968Y007638D01*
X028953Y007646D01*
X028937Y007653D01*
X028921Y007657D01*
X028904Y007659D01*
X028131Y007659D01*
X028114Y007657D01*
X028097Y007653D01*
X028081Y007646D01*
X028067Y007638D01*
X028053Y007627D01*
X028041Y007615D01*
X028031Y007602D01*
X028022Y007587D01*
X028016Y007571D01*
X028011Y007555D01*
X028009Y007538D01*
X028009Y006410D01*
X028011Y006393D01*
X028016Y006376D01*
X028022Y006361D01*
X028031Y006346D01*
X028069Y006308D02*
X028069Y003438D01*
X028022Y003390D02*
X027758Y003390D01*
X027682Y003314D01*
X027682Y002852D01*
X027758Y002776D01*
X028181Y002776D01*
X028257Y002852D01*
X028257Y003116D01*
X029259Y004119D01*
X029259Y003252D01*
X029258Y003252D01*
X029182Y003176D01*
X029182Y002793D01*
X029258Y002717D01*
X029681Y002717D01*
X029757Y002793D01*
X029757Y003176D01*
X029681Y003252D01*
X029619Y003252D01*
X029619Y004155D01*
X031074Y005610D01*
X032079Y005610D01*
X032077Y005609D01*
X032035Y005567D01*
X032002Y005517D01*
X031979Y005462D01*
X031967Y005404D01*
X031967Y005388D01*
X032255Y005388D01*
X032255Y005360D01*
X031967Y005360D01*
X031967Y005344D01*
X031979Y005286D01*
X032002Y005231D01*
X032035Y005182D01*
X032077Y005140D01*
X032126Y005107D01*
X032181Y005084D01*
X032240Y005072D01*
X032255Y005072D01*
X032255Y005360D01*
X032283Y005360D01*
X032283Y005072D01*
X032299Y005072D01*
X032357Y005084D01*
X032412Y005107D01*
X032462Y005140D01*
X032504Y005182D01*
X032537Y005231D01*
X032560Y005286D01*
X032571Y005344D01*
X032571Y005360D01*
X032283Y005360D01*
X032283Y005388D01*
X032571Y005388D01*
X032571Y005404D01*
X032560Y005462D01*
X032537Y005517D01*
X032504Y005567D01*
X032462Y005609D01*
X032460Y005610D01*
X032505Y005610D01*
X032774Y005341D01*
X032627Y005195D01*
X032627Y004814D01*
X032897Y004544D01*
X033278Y004544D01*
X033547Y004814D01*
X033547Y005195D01*
X033278Y005464D01*
X033160Y005464D01*
X033080Y005544D01*
X033278Y005544D01*
X033547Y005814D01*
X033547Y006195D01*
X033278Y006464D01*
X032897Y006464D01*
X032627Y006195D01*
X032627Y006184D01*
X030816Y006184D01*
X030711Y006079D01*
X028022Y003390D01*
X027869Y003390D02*
X027869Y011696D01*
X027669Y011696D02*
X027669Y002563D01*
X027807Y002563D02*
X027384Y002563D01*
X027308Y002487D01*
X027308Y002080D01*
X027169Y002080D01*
X027122Y002128D01*
X027023Y002169D01*
X026916Y002169D01*
X026817Y002128D01*
X026741Y002052D01*
X026701Y001953D01*
X026701Y001847D01*
X026741Y001748D01*
X026817Y001672D01*
X026916Y001631D01*
X027023Y001631D01*
X027122Y001672D01*
X027169Y001720D01*
X027544Y001720D01*
X027670Y001846D01*
X027773Y001949D01*
X027807Y001949D01*
X027883Y002025D01*
X027883Y002487D01*
X027807Y002563D01*
X027820Y002550D02*
X029225Y002550D01*
X029269Y002583D02*
X029269Y002717D01*
X029225Y002750D02*
X021917Y002750D01*
X021917Y002826D02*
X021917Y002527D01*
X021970Y002549D01*
X022069Y002549D01*
X022160Y002511D01*
X022230Y002441D01*
X022268Y002350D01*
X027308Y002350D01*
X027308Y002150D02*
X027068Y002150D01*
X027069Y002149D02*
X027069Y005442D01*
X027031Y005436D02*
X027124Y005451D01*
X027216Y005481D01*
X027302Y005524D01*
X027380Y005581D01*
X027448Y005649D01*
X027505Y005727D01*
X027548Y005813D01*
X027578Y005904D01*
X027593Y005998D01*
X027031Y005998D01*
X027031Y005436D01*
X027031Y005550D02*
X026931Y005550D01*
X026869Y005446D02*
X026869Y002149D01*
X026871Y002150D02*
X022222Y002150D01*
X022230Y002159D02*
X022268Y002250D01*
X022268Y002350D01*
X022230Y002159D02*
X022160Y002089D01*
X022069Y002051D01*
X021970Y002051D01*
X021960Y002055D01*
X021917Y002012D01*
X021917Y001774D01*
X021841Y001698D01*
X021418Y001698D01*
X021342Y001773D01*
X021335Y001760D01*
X021314Y001740D01*
X021289Y001725D01*
X021261Y001718D01*
X021108Y001718D01*
X021108Y001946D01*
X021070Y001946D01*
X021070Y001718D01*
X020917Y001718D01*
X020889Y001725D01*
X020864Y001740D01*
X020844Y001760D01*
X020829Y001785D01*
X020822Y001813D01*
X020822Y001946D01*
X021070Y001946D01*
X021070Y001984D01*
X020822Y001984D01*
X020822Y002118D01*
X020829Y002146D01*
X020832Y002150D01*
X020358Y002150D01*
X020269Y002197D02*
X020269Y001986D01*
X020284Y001950D02*
X021070Y001950D01*
X021069Y001946D02*
X021069Y001984D01*
X020869Y001984D02*
X020869Y001946D01*
X020854Y001750D02*
X020251Y001750D01*
X020269Y001794D02*
X020269Y001580D01*
X020069Y001580D02*
X020069Y001641D01*
X019869Y001580D02*
X019869Y001708D01*
X019669Y001580D02*
X019669Y001580D01*
X019469Y001580D02*
X019469Y001580D01*
X019269Y001580D02*
X019269Y001580D01*
X019069Y001580D02*
X019069Y001580D01*
X018869Y001580D02*
X018869Y001580D01*
X018669Y001580D02*
X018669Y001580D01*
X018469Y001580D02*
X018469Y001580D01*
X018219Y001400D02*
X029739Y001400D01*
X030595Y002256D01*
X030308Y002350D02*
X030174Y002350D01*
X030269Y002445D02*
X030269Y002185D01*
X030234Y002150D02*
X029757Y002150D01*
X029869Y002220D02*
X029869Y001785D01*
X029834Y001750D02*
X027574Y001750D01*
X027469Y001720D02*
X027469Y001580D01*
X027269Y001580D02*
X027269Y001720D01*
X027069Y001651D02*
X027069Y001580D01*
X026869Y001580D02*
X026869Y001651D01*
X026741Y001750D02*
X021893Y001750D01*
X021869Y001726D02*
X021869Y001580D01*
X021669Y001580D02*
X021669Y001698D01*
X021469Y001698D02*
X021469Y001580D01*
X021269Y001580D02*
X021269Y001720D01*
X021325Y001750D02*
X021366Y001750D01*
X021108Y001750D02*
X021070Y001750D01*
X021069Y001718D02*
X021069Y001580D01*
X020869Y001580D02*
X020869Y001737D01*
X020669Y001580D02*
X020669Y002150D01*
X020469Y002150D02*
X020469Y001580D01*
X021917Y001950D02*
X026701Y001950D01*
X026969Y001900D02*
X027469Y001900D01*
X027595Y002026D01*
X027595Y002256D01*
X027883Y002350D02*
X028076Y002350D01*
X028076Y002285D02*
X028315Y002285D01*
X028315Y002543D01*
X028171Y002543D01*
X028143Y002536D01*
X028118Y002521D01*
X028098Y002501D01*
X028083Y002476D01*
X028076Y002448D01*
X028076Y002285D01*
X028076Y002228D02*
X028076Y002065D01*
X028083Y002037D01*
X028098Y002012D01*
X028118Y001991D01*
X028143Y001977D01*
X028171Y001969D01*
X028315Y001969D01*
X028315Y002228D01*
X028372Y002228D01*
X028372Y002285D01*
X028315Y002285D01*
X028315Y002228D01*
X028076Y002228D01*
X028076Y002150D02*
X027883Y002150D01*
X027869Y002012D02*
X027869Y001580D01*
X027669Y001580D02*
X027669Y001845D01*
X027807Y001950D02*
X030034Y001950D01*
X030069Y001985D02*
X030069Y002245D01*
X029669Y002048D02*
X029669Y001585D01*
X029469Y001580D02*
X029469Y002048D01*
X029269Y002048D02*
X029269Y001580D01*
X029069Y001580D02*
X029069Y003929D01*
X029091Y003950D02*
X029259Y003950D01*
X029259Y003750D02*
X028891Y003750D01*
X028869Y003729D02*
X028869Y001580D01*
X028669Y001580D02*
X028669Y003529D01*
X028691Y003550D02*
X029259Y003550D01*
X029259Y003350D02*
X028491Y003350D01*
X028469Y003329D02*
X028469Y002543D01*
X028515Y002543D02*
X028372Y002543D01*
X028372Y002285D01*
X028611Y002285D01*
X028611Y002448D01*
X028603Y002476D01*
X028589Y002501D01*
X028568Y002521D01*
X028543Y002536D01*
X028515Y002543D01*
X028269Y002543D02*
X028269Y003129D01*
X028291Y003150D02*
X029182Y003150D01*
X029182Y002950D02*
X028257Y002950D01*
X027969Y003083D02*
X030891Y006004D01*
X033087Y006004D01*
X033547Y005950D02*
X033950Y005950D01*
X033950Y005750D02*
X033484Y005750D01*
X033469Y005736D02*
X033469Y005273D01*
X033392Y005350D02*
X033950Y005350D01*
X033950Y005550D02*
X033284Y005550D01*
X033269Y005544D02*
X033269Y005464D01*
X032765Y005350D02*
X032571Y005350D01*
X032469Y005360D02*
X032469Y005388D01*
X032515Y005550D02*
X032565Y005550D01*
X032469Y005601D02*
X032469Y005610D01*
X032579Y005790D02*
X033087Y005282D01*
X033087Y005004D01*
X032627Y004950D02*
X032376Y004950D01*
X032333Y004968D02*
X032205Y004968D01*
X032087Y004919D01*
X031996Y004828D01*
X031947Y004710D01*
X031947Y004582D01*
X031996Y004463D01*
X032087Y004373D01*
X032205Y004324D01*
X032323Y004324D01*
X032779Y003867D01*
X032779Y003597D01*
X032522Y003597D01*
X032446Y003521D01*
X032446Y003197D01*
X032461Y003181D01*
X032446Y003166D01*
X032446Y003150D01*
X032344Y003150D01*
X032269Y003225D01*
X032235Y003259D01*
X032217Y003302D01*
X032142Y003378D01*
X032043Y003419D01*
X031936Y003419D01*
X031837Y003378D01*
X031761Y003302D01*
X031721Y003203D01*
X031721Y003097D01*
X031761Y002998D01*
X031837Y002922D01*
X031936Y002881D01*
X032043Y002881D01*
X032086Y002899D01*
X032195Y002790D01*
X032446Y002790D01*
X032446Y002488D01*
X032458Y002476D01*
X031631Y002476D01*
X031631Y002487D01*
X031555Y002563D01*
X031132Y002563D01*
X031056Y002487D01*
X031056Y002025D01*
X031132Y001949D01*
X031555Y001949D01*
X031631Y002025D01*
X031631Y002116D01*
X032463Y002116D01*
X032478Y002101D01*
X032473Y002092D01*
X032466Y002064D01*
X032466Y001945D01*
X032965Y001945D01*
X032965Y001937D01*
X032973Y001937D01*
X032973Y001723D01*
X033377Y001723D01*
X033405Y001731D01*
X033431Y001745D01*
X033451Y001766D01*
X033465Y001791D01*
X033473Y001819D01*
X033473Y001937D01*
X032973Y001937D01*
X032973Y001945D01*
X033473Y001945D01*
X033473Y002064D01*
X033465Y002092D01*
X033460Y002101D01*
X033493Y002134D01*
X033493Y002458D01*
X033478Y002473D01*
X033493Y002488D01*
X033493Y002812D01*
X033478Y002827D01*
X033493Y002842D01*
X033493Y003166D01*
X033478Y003181D01*
X033493Y003197D01*
X033493Y003521D01*
X033417Y003597D01*
X033159Y003597D01*
X033159Y003983D01*
X033144Y003998D01*
X033130Y004033D01*
X033130Y004054D01*
X033115Y004069D01*
X033074Y004110D01*
X033019Y004165D01*
X033019Y004165D01*
X032591Y004593D01*
X032591Y004710D01*
X032542Y004828D01*
X032452Y004919D01*
X032333Y004968D01*
X032269Y004968D02*
X032269Y005360D01*
X032255Y005350D02*
X032283Y005350D01*
X032069Y005360D02*
X032069Y005388D01*
X031967Y005350D02*
X030814Y005350D01*
X030869Y005405D02*
X030869Y003390D01*
X031069Y003390D02*
X031069Y005605D01*
X031014Y005550D02*
X032024Y005550D01*
X032069Y005601D02*
X032069Y005610D01*
X031869Y005610D02*
X031869Y003391D01*
X031809Y003350D02*
X031221Y003350D01*
X030669Y003373D02*
X030669Y005205D01*
X030614Y005150D02*
X032066Y005150D01*
X032069Y005147D02*
X032069Y004901D01*
X032162Y004950D02*
X030414Y004950D01*
X030469Y005005D02*
X030469Y003373D01*
X030289Y003350D02*
X029619Y003350D01*
X029669Y003252D02*
X029669Y004205D01*
X029619Y004150D02*
X032496Y004150D01*
X032469Y004177D02*
X032469Y003544D01*
X032475Y003550D02*
X029619Y003550D01*
X029619Y003750D02*
X032779Y003750D01*
X032669Y003597D02*
X032669Y003977D01*
X032696Y003950D02*
X029619Y003950D01*
X029439Y004230D02*
X030999Y005790D01*
X032579Y005790D01*
X032669Y005445D02*
X032669Y005237D01*
X032627Y005150D02*
X032472Y005150D01*
X032469Y005147D02*
X032469Y004901D01*
X032575Y004750D02*
X032691Y004750D01*
X032669Y004772D02*
X032669Y004515D01*
X032634Y004550D02*
X032891Y004550D01*
X032869Y004572D02*
X032869Y004315D01*
X032834Y004350D02*
X033950Y004350D01*
X033950Y004150D02*
X033034Y004150D01*
X033069Y004115D02*
X033069Y004544D01*
X033269Y004544D02*
X033269Y003597D01*
X033159Y003750D02*
X033950Y003750D01*
X033950Y003950D02*
X033159Y003950D01*
X033464Y003550D02*
X033950Y003550D01*
X033950Y003350D02*
X033493Y003350D01*
X033469Y003544D02*
X033469Y004736D01*
X033484Y004750D02*
X033950Y004750D01*
X033950Y004550D02*
X033284Y004550D01*
X032269Y004324D02*
X032269Y003225D01*
X032344Y003150D02*
X032446Y003150D01*
X032269Y002970D02*
X032089Y003150D01*
X031989Y003150D01*
X031721Y003150D02*
X031257Y003150D01*
X031257Y002950D02*
X031809Y002950D01*
X031869Y002909D02*
X031869Y002476D01*
X031669Y002476D02*
X031669Y005610D01*
X031469Y005610D02*
X031469Y002563D01*
X031568Y002550D02*
X032446Y002550D01*
X032269Y002476D02*
X032269Y002790D01*
X032446Y002750D02*
X030479Y002750D01*
X030469Y002740D02*
X030469Y002563D01*
X030669Y002563D02*
X030669Y002793D01*
X030869Y002776D02*
X030869Y002501D01*
X030820Y002550D02*
X031119Y002550D01*
X031069Y002501D02*
X031069Y002776D01*
X031269Y002563D02*
X031269Y005610D01*
X030582Y005950D02*
X027585Y005950D01*
X027469Y005998D02*
X027469Y006098D01*
X027584Y006150D02*
X030782Y006150D01*
X030869Y006184D02*
X030869Y011696D01*
X030669Y011696D02*
X030669Y006038D01*
X031069Y006184D02*
X031069Y011696D01*
X031269Y011696D02*
X031269Y006184D01*
X031469Y006184D02*
X031469Y011696D01*
X031669Y011696D02*
X031669Y006184D01*
X031869Y006184D02*
X031869Y011696D01*
X032069Y011696D02*
X032069Y006184D01*
X032269Y006184D02*
X032269Y006947D01*
X032263Y006950D02*
X030540Y006950D01*
X030546Y006982D02*
X029984Y006982D01*
X029984Y007082D01*
X030546Y007082D01*
X030531Y007175D01*
X030501Y007267D01*
X030457Y007353D01*
X030401Y007431D01*
X030333Y007499D01*
X030255Y007555D01*
X030169Y007599D01*
X030077Y007629D01*
X029984Y007644D01*
X029984Y007082D01*
X029884Y007082D01*
X029884Y007644D01*
X029791Y007629D01*
X029699Y007599D01*
X029613Y007555D01*
X029535Y007499D01*
X029467Y007431D01*
X029410Y007353D01*
X029367Y007267D01*
X029337Y007175D01*
X029322Y007082D01*
X029884Y007082D01*
X029884Y006982D01*
X029984Y006982D01*
X029984Y006420D01*
X030077Y006435D01*
X030169Y006465D01*
X030255Y006508D01*
X030333Y006565D01*
X030401Y006633D01*
X030457Y006711D01*
X030501Y006797D01*
X030531Y006889D01*
X030546Y006982D01*
X030469Y006982D02*
X030469Y007082D01*
X030535Y007150D02*
X032201Y007150D01*
X032469Y006939D02*
X032469Y006184D01*
X032669Y006237D02*
X032669Y006939D01*
X032869Y006939D02*
X032869Y006437D01*
X032783Y006350D02*
X029006Y006350D01*
X028869Y006288D02*
X028869Y004238D01*
X028782Y004150D02*
X022623Y004150D01*
X022649Y004350D02*
X028982Y004350D01*
X029069Y004438D02*
X029069Y011696D01*
X028869Y011696D02*
X028869Y007659D01*
X029024Y007550D02*
X029606Y007550D01*
X029669Y007584D02*
X029669Y011696D01*
X029469Y011696D02*
X029469Y007433D01*
X029409Y007350D02*
X029025Y007350D01*
X029025Y007150D02*
X029333Y007150D01*
X029469Y007082D02*
X029469Y006982D01*
X029327Y006950D02*
X029025Y006950D01*
X029322Y006982D02*
X029337Y006889D01*
X029367Y006797D01*
X029410Y006711D01*
X029467Y006633D01*
X029535Y006565D01*
X029613Y006508D01*
X029699Y006465D01*
X029791Y006435D01*
X029884Y006420D01*
X029884Y006982D01*
X029322Y006982D01*
X029669Y006982D02*
X029669Y007082D01*
X029869Y007082D02*
X029869Y006982D01*
X029884Y006950D02*
X029984Y006950D01*
X030069Y006982D02*
X030069Y007082D01*
X029984Y007150D02*
X029884Y007150D01*
X030269Y007082D02*
X030269Y006982D01*
X030477Y006750D02*
X033839Y006750D01*
X033839Y006550D02*
X030312Y006550D01*
X030269Y006519D02*
X030269Y005638D01*
X030182Y005550D02*
X027337Y005550D01*
X027269Y005508D02*
X027269Y002080D01*
X028269Y001969D02*
X028269Y001580D01*
X028069Y001580D02*
X028069Y002776D01*
X027869Y002776D02*
X027869Y002501D01*
X027469Y002563D02*
X027469Y005678D01*
X027516Y005750D02*
X030382Y005750D01*
X030469Y005838D02*
X030469Y006735D01*
X029984Y006750D02*
X029884Y006750D01*
X029884Y006550D02*
X029984Y006550D01*
X030069Y006434D02*
X030069Y005438D01*
X029982Y005350D02*
X022649Y005350D01*
X022649Y005550D02*
X026625Y005550D01*
X026669Y005520D02*
X026669Y001580D01*
X026469Y001580D02*
X026469Y005711D01*
X026446Y005750D02*
X022649Y005750D01*
X022649Y005950D02*
X026377Y005950D01*
X026469Y005998D02*
X026469Y006098D01*
X026378Y006150D02*
X022474Y006150D01*
X022469Y006155D02*
X022469Y011696D01*
X022269Y011696D02*
X022269Y006330D01*
X022219Y006150D02*
X018469Y006150D01*
X018312Y005993D01*
X018312Y005340D01*
X018269Y004960D02*
X018269Y004419D01*
X018399Y004350D02*
X019779Y004350D01*
X019779Y004150D02*
X018488Y004150D01*
X018469Y004249D02*
X018469Y004960D01*
X018669Y004960D02*
X018669Y004030D01*
X018469Y004030D02*
X018469Y004051D01*
X018869Y004030D02*
X018869Y004960D01*
X019069Y004960D02*
X019069Y003927D01*
X019046Y003950D02*
X019788Y003950D01*
X019869Y003812D02*
X019869Y003802D01*
X019799Y003750D02*
X019229Y003750D01*
X019229Y003550D02*
X019779Y003550D01*
X019779Y003350D02*
X019229Y003350D01*
X018809Y003350D02*
X018774Y003350D01*
X018627Y003243D02*
X018627Y001960D01*
X017869Y001495D02*
X017869Y001280D01*
X017669Y001280D02*
X017669Y001580D01*
X017817Y001550D02*
X003386Y001550D01*
X003438Y001750D02*
X017127Y001750D01*
X017127Y001950D02*
X016118Y001950D01*
X016069Y001928D02*
X016069Y001280D01*
X015869Y001280D02*
X015869Y001928D01*
X015669Y001928D02*
X015669Y001280D01*
X015469Y001280D02*
X015469Y001928D01*
X015297Y001950D02*
X003404Y001950D01*
X003069Y002248D02*
X003069Y004077D01*
X003004Y004150D02*
X002904Y004150D01*
X002869Y004071D02*
X002869Y002256D01*
X002669Y002173D02*
X002669Y004161D01*
X002684Y004150D02*
X002350Y004150D01*
X002269Y004295D02*
X002269Y005341D01*
X002260Y005350D02*
X001599Y005350D01*
X001599Y005550D02*
X002159Y005550D01*
X002159Y005750D02*
X001599Y005750D01*
X001599Y005950D02*
X002276Y005950D01*
X002269Y005943D02*
X002269Y006341D01*
X002260Y006350D02*
X001599Y006350D01*
X001599Y006150D02*
X007845Y006150D01*
X007845Y006173D02*
X007845Y005922D01*
X007941Y005690D01*
X008119Y005512D01*
X008351Y005416D01*
X008603Y005416D01*
X008835Y005512D01*
X009013Y005690D01*
X009109Y005922D01*
X009109Y006173D01*
X009013Y006406D01*
X008835Y006583D01*
X008767Y006612D01*
X008767Y007452D01*
X008835Y007480D01*
X009013Y007658D01*
X009109Y007890D01*
X009109Y008142D01*
X009013Y008374D01*
X008835Y008552D01*
X008603Y008648D01*
X008351Y008648D01*
X008119Y008552D01*
X007941Y008374D01*
X007865Y008190D01*
X006529Y008190D01*
X006559Y008220D01*
X007294Y008220D01*
X007356Y008282D01*
X007406Y008261D01*
X007513Y008261D01*
X007612Y008302D01*
X007687Y008378D01*
X007728Y008477D01*
X007728Y008583D01*
X007687Y008682D01*
X007612Y008758D01*
X007513Y008799D01*
X007406Y008799D01*
X007307Y008758D01*
X007231Y008682D01*
X007221Y008656D01*
X007169Y008605D01*
X007145Y008580D01*
X006579Y008580D01*
X006522Y008638D01*
X006423Y008679D01*
X006316Y008679D01*
X006217Y008638D01*
X006141Y008562D01*
X006101Y008463D01*
X006101Y008357D01*
X006141Y008258D01*
X006217Y008182D01*
X006267Y008162D01*
X006228Y008146D01*
X006147Y008064D01*
X005718Y007636D01*
X005650Y007664D01*
X005399Y007664D01*
X005166Y007568D01*
X004989Y007390D01*
X004892Y007158D01*
X004892Y006906D01*
X004989Y006674D01*
X005166Y006496D01*
X005399Y006400D01*
X005650Y006400D01*
X005882Y006496D01*
X006060Y006674D01*
X006156Y006906D01*
X006156Y007158D01*
X006128Y007226D01*
X006356Y007453D01*
X006356Y006410D01*
X006358Y006393D01*
X006362Y006376D01*
X006369Y006361D01*
X006377Y006346D01*
X006388Y006332D01*
X006400Y006320D01*
X006413Y006310D01*
X006428Y006301D01*
X006444Y006295D01*
X006460Y006290D01*
X006477Y006288D01*
X007486Y006288D01*
X007503Y006290D01*
X007519Y006295D01*
X007535Y006301D01*
X007550Y006310D01*
X007563Y006320D01*
X007575Y006332D01*
X007586Y006346D01*
X007594Y006361D01*
X007601Y006376D01*
X007605Y006393D01*
X007607Y006410D01*
X007607Y007538D01*
X007605Y007555D01*
X007601Y007571D01*
X007594Y007587D01*
X007586Y007602D01*
X007579Y007610D01*
X007957Y007610D01*
X007993Y007607D01*
X008119Y007480D01*
X008187Y007452D01*
X008187Y006612D01*
X008119Y006583D01*
X007941Y006406D01*
X007845Y006173D01*
X007869Y006232D02*
X007869Y007610D01*
X008050Y007550D02*
X007606Y007550D01*
X007669Y007610D02*
X007669Y003080D01*
X007469Y003080D02*
X007469Y006288D01*
X007588Y006350D02*
X007918Y006350D01*
X008069Y006534D02*
X008069Y007530D01*
X008187Y007350D02*
X007607Y007350D01*
X007607Y007150D02*
X008187Y007150D01*
X008187Y006950D02*
X007607Y006950D01*
X007607Y006750D02*
X008187Y006750D01*
X008086Y006550D02*
X007607Y006550D01*
X007269Y006288D02*
X007269Y002955D01*
X007265Y002950D02*
X004924Y002950D01*
X005069Y002830D02*
X005069Y006593D01*
X005113Y006550D02*
X003079Y006550D01*
X003069Y006442D02*
X003069Y005842D01*
X003079Y005750D02*
X007916Y005750D01*
X007869Y005864D02*
X007869Y003080D01*
X008069Y003080D02*
X008069Y005562D01*
X008081Y005550D02*
X004810Y005550D01*
X004669Y005679D02*
X004669Y011696D01*
X004869Y011696D02*
X004869Y003725D01*
X004844Y003750D02*
X016399Y003750D01*
X016772Y003800D02*
X016779Y003807D01*
X016787Y003800D01*
X016391Y004733D02*
X015808Y004150D01*
X015424Y004150D01*
X015156Y004150D02*
X015022Y004150D01*
X014755Y004150D02*
X014304Y004150D01*
X014305Y004151D01*
X014296Y004160D01*
X014296Y004813D01*
X014028Y004750D02*
X013875Y004750D01*
X013869Y004794D02*
X013869Y004831D01*
X013875Y004950D02*
X014028Y004950D01*
X014069Y005065D02*
X014069Y005720D01*
X013869Y005720D02*
X013869Y005005D01*
X014269Y005100D02*
X014269Y005720D01*
X014269Y006080D02*
X014269Y010837D01*
X014259Y010750D02*
X033839Y010750D01*
X033839Y010550D02*
X014259Y010550D01*
X014259Y010350D02*
X032263Y010350D01*
X032269Y010353D02*
X032269Y011696D01*
X032469Y011696D02*
X032469Y010361D01*
X032669Y010361D02*
X032669Y011696D01*
X032869Y011696D02*
X032869Y010361D01*
X033069Y010361D02*
X033069Y011696D01*
X033269Y011696D02*
X033269Y010361D01*
X033186Y010350D02*
X033086Y010350D01*
X033086Y010150D02*
X033186Y010150D01*
X033469Y010361D02*
X033469Y011696D01*
X033669Y011696D02*
X033669Y010361D01*
X032201Y010150D02*
X014259Y010150D01*
X013679Y010150D02*
X010257Y010150D01*
X010149Y010350D02*
X013679Y010350D01*
X013679Y009950D02*
X010257Y009950D01*
X010214Y009750D02*
X013679Y009750D01*
X013679Y009550D02*
X010214Y009550D01*
X010069Y009583D02*
X010069Y009717D01*
X010257Y009350D02*
X013679Y009350D01*
X013679Y008750D02*
X010649Y008750D01*
X010649Y008550D02*
X013679Y008550D01*
X013679Y008350D02*
X010649Y008350D01*
X010649Y008150D02*
X013679Y008150D01*
X013679Y007950D02*
X010649Y007950D01*
X010649Y007750D02*
X013679Y007750D01*
X013679Y007550D02*
X010649Y007550D01*
X010649Y007350D02*
X013679Y007350D01*
X013679Y007150D02*
X010649Y007150D01*
X010649Y006950D02*
X013679Y006950D01*
X013679Y006750D02*
X010649Y006750D01*
X010649Y006550D02*
X013697Y006550D01*
X013869Y006378D02*
X013869Y006080D01*
X014069Y006080D02*
X014069Y006378D01*
X014242Y006550D02*
X017502Y006550D01*
X017502Y006750D02*
X014259Y006750D01*
X014259Y006950D02*
X017502Y006950D01*
X017502Y007150D02*
X014259Y007150D01*
X014259Y007350D02*
X017502Y007350D01*
X017502Y007550D02*
X014259Y007550D01*
X016869Y008465D02*
X016869Y006129D01*
X016818Y006150D02*
X017502Y006150D01*
X017502Y006350D02*
X010649Y006350D01*
X010669Y006205D02*
X010669Y010698D01*
X010581Y010750D02*
X010182Y010750D01*
X010269Y010837D02*
X010269Y009270D01*
X010069Y008961D02*
X010069Y003080D01*
X010269Y003080D02*
X010269Y008761D01*
X010280Y008750D02*
X007619Y008750D01*
X007669Y008700D02*
X007669Y011696D01*
X007469Y011696D02*
X007469Y008799D01*
X007299Y008750D02*
X004399Y008750D01*
X004399Y008550D02*
X006136Y008550D01*
X006269Y008659D02*
X006269Y011696D01*
X006069Y011696D02*
X006069Y007987D01*
X006032Y007950D02*
X004399Y007950D01*
X004399Y007750D02*
X005832Y007750D01*
X005869Y007787D02*
X005869Y011696D01*
X005669Y011696D02*
X005669Y007656D01*
X005469Y007664D02*
X005469Y011696D01*
X005269Y011696D02*
X005269Y007610D01*
X005149Y007550D02*
X004399Y007550D01*
X004399Y007350D02*
X004972Y007350D01*
X005069Y007471D02*
X005069Y011696D01*
X006469Y011696D02*
X006469Y008659D01*
X006669Y008580D02*
X006669Y011696D01*
X006869Y011696D02*
X006869Y008580D01*
X007069Y008580D02*
X007069Y011696D01*
X007269Y011696D02*
X007269Y008720D01*
X007349Y008530D02*
X007459Y008530D01*
X007349Y008530D02*
X007219Y008400D01*
X006379Y008400D01*
X006369Y008410D01*
X006103Y008350D02*
X004399Y008350D01*
X004399Y008150D02*
X006238Y008150D01*
X006669Y008190D02*
X006669Y008220D01*
X006869Y008220D02*
X006869Y008190D01*
X007069Y008190D02*
X007069Y008220D01*
X007269Y008220D02*
X007269Y008190D01*
X007469Y008190D02*
X007469Y008261D01*
X007659Y008350D02*
X007931Y008350D01*
X007869Y008200D02*
X007869Y011696D01*
X008069Y011696D02*
X008069Y008502D01*
X008117Y008550D02*
X007728Y008550D01*
X008269Y008614D02*
X008269Y011696D01*
X008469Y011696D02*
X008469Y008648D01*
X008669Y008621D02*
X008669Y011696D01*
X008869Y011696D02*
X008869Y008518D01*
X008837Y008550D02*
X010289Y008550D01*
X010289Y008350D02*
X009023Y008350D01*
X009069Y008238D02*
X009069Y011696D01*
X009269Y011696D02*
X009269Y003080D01*
X009069Y003080D02*
X009069Y005826D01*
X009038Y005750D02*
X010615Y005750D01*
X010669Y005720D02*
X010669Y003080D01*
X010469Y003080D02*
X010469Y005895D01*
X010415Y005950D02*
X009109Y005950D01*
X009109Y006150D02*
X010289Y006150D01*
X010289Y006350D02*
X009036Y006350D01*
X009069Y006270D02*
X009069Y007794D01*
X009051Y007750D02*
X010289Y007750D01*
X010289Y007950D02*
X009109Y007950D01*
X009106Y008150D02*
X010289Y008150D01*
X010289Y007550D02*
X008905Y007550D01*
X008869Y007515D02*
X008869Y006549D01*
X008869Y006550D02*
X010289Y006550D01*
X010289Y006750D02*
X008767Y006750D01*
X008767Y006950D02*
X010289Y006950D01*
X010289Y007150D02*
X008767Y007150D01*
X008767Y007350D02*
X010289Y007350D01*
X007669Y008190D02*
X007669Y008360D01*
X006356Y007350D02*
X006253Y007350D01*
X006269Y007367D02*
X006269Y002830D01*
X006069Y002830D02*
X006069Y006696D01*
X006092Y006750D02*
X006356Y006750D01*
X006356Y006550D02*
X005936Y006550D01*
X005869Y006491D02*
X005869Y002830D01*
X005669Y002830D02*
X005669Y006408D01*
X005469Y006400D02*
X005469Y002830D01*
X005269Y002830D02*
X005269Y006454D01*
X004957Y006750D02*
X004198Y006750D01*
X004069Y006651D02*
X004069Y001280D01*
X004269Y001280D02*
X004269Y006945D01*
X004274Y006950D02*
X004892Y006950D01*
X004892Y007150D02*
X004399Y007150D01*
X004219Y007150D02*
X004219Y010150D01*
X004039Y009950D02*
X004039Y007225D01*
X003983Y007169D01*
X003916Y007169D01*
X003817Y007128D01*
X003741Y007052D01*
X003701Y006953D01*
X003969Y006900D02*
X004219Y007150D01*
X004039Y007350D02*
X001599Y007350D01*
X001599Y007550D02*
X004039Y007550D01*
X004039Y007750D02*
X001599Y007750D01*
X001599Y007950D02*
X004039Y007950D01*
X004039Y008550D02*
X003210Y008550D01*
X003069Y008729D02*
X003069Y009886D01*
X002869Y009931D02*
X002869Y008684D01*
X002792Y008550D02*
X001599Y008550D01*
X001599Y008750D02*
X004039Y008750D01*
X004039Y008950D02*
X001599Y008950D01*
X001599Y009150D02*
X004039Y009150D01*
X004039Y009350D02*
X001599Y009350D01*
X001599Y009550D02*
X004039Y009550D01*
X004039Y009750D02*
X001599Y009750D01*
X001599Y009950D02*
X002850Y009950D01*
X003069Y010304D02*
X003069Y011696D01*
X003269Y011696D02*
X003269Y004869D01*
X003148Y004950D02*
X004429Y004950D01*
X004789Y004950D02*
X011789Y004950D01*
X011789Y005150D02*
X004789Y005150D01*
X004827Y005350D02*
X011701Y005350D01*
X011741Y005550D02*
X008873Y005550D01*
X008869Y005546D02*
X008869Y003080D01*
X008669Y003080D02*
X008669Y005443D01*
X008469Y005416D02*
X008469Y003080D01*
X008269Y003080D02*
X008269Y005450D01*
X007845Y005950D02*
X002962Y005950D01*
X002869Y006042D02*
X002869Y006242D01*
X002977Y006350D02*
X006375Y006350D01*
X006469Y006289D02*
X006469Y002830D01*
X006669Y002830D02*
X006669Y006288D01*
X006869Y006288D02*
X006869Y002830D01*
X007069Y002830D02*
X007069Y006288D01*
X006356Y006950D02*
X006156Y006950D01*
X006156Y007150D02*
X006356Y007150D01*
X002669Y006182D02*
X002669Y006102D01*
X002469Y006102D02*
X002469Y006182D01*
X002159Y006550D02*
X001599Y006550D01*
X001599Y006750D02*
X002159Y006750D01*
X004569Y005430D02*
X004609Y005390D01*
X004609Y003730D01*
X004719Y003620D01*
X004719Y002900D01*
X004969Y002650D01*
X007219Y002650D01*
X007469Y002900D01*
X012219Y002900D01*
X012719Y003400D01*
X013969Y003400D01*
X014238Y003350D02*
X015261Y003350D01*
X015269Y003358D02*
X015269Y003863D01*
X015156Y003950D02*
X015022Y003950D01*
X014869Y003863D02*
X014869Y001280D01*
X014669Y001280D02*
X014669Y003863D01*
X014469Y003863D02*
X014469Y001280D01*
X014269Y001280D02*
X014269Y003863D01*
X014036Y004150D02*
X013902Y004150D01*
X013902Y004350D02*
X014036Y004350D01*
X014069Y004394D02*
X014069Y004560D01*
X014080Y004550D02*
X013798Y004550D01*
X013869Y004620D02*
X013869Y004394D01*
X013669Y004437D02*
X013669Y004545D01*
X013646Y004550D02*
X013608Y004550D01*
X013469Y004546D02*
X013469Y004437D01*
X013635Y004150D02*
X013186Y004150D01*
X012918Y004150D02*
X012784Y004150D01*
X012517Y004150D02*
X011969Y004697D01*
X011969Y005400D01*
X012238Y005350D02*
X017127Y005350D01*
X017127Y005550D02*
X012198Y005550D01*
X012069Y005649D02*
X012069Y005720D01*
X011869Y005720D02*
X011869Y005649D01*
X011669Y005720D02*
X011669Y003080D01*
X011469Y003080D02*
X011469Y005720D01*
X011269Y005720D02*
X011269Y003080D01*
X011069Y003080D02*
X011069Y005720D01*
X010869Y005720D02*
X010869Y003080D01*
X011869Y003080D02*
X011869Y004543D01*
X011862Y004550D02*
X004789Y004550D01*
X004789Y004750D02*
X011789Y004750D01*
X012062Y004350D02*
X004789Y004350D01*
X004789Y004150D02*
X012249Y004150D01*
X012069Y004343D02*
X012069Y003080D01*
X012215Y003150D02*
X004899Y003150D01*
X004539Y003150D02*
X001599Y003150D01*
X001599Y002950D02*
X004539Y002950D01*
X004615Y002750D02*
X001599Y002750D01*
X001599Y002550D02*
X001695Y002550D01*
X001669Y002524D02*
X001669Y003776D01*
X001695Y003750D02*
X001599Y003750D01*
X001869Y003649D02*
X001869Y002651D01*
X002069Y002651D02*
X002069Y003649D01*
X002243Y003750D02*
X004429Y003750D01*
X004469Y003615D02*
X004469Y001280D01*
X004669Y001280D02*
X004669Y002695D01*
X004815Y002550D02*
X002243Y002550D01*
X002269Y002524D02*
X002269Y003776D01*
X002362Y003950D02*
X004429Y003950D01*
X004789Y003950D02*
X012249Y003950D01*
X012269Y003918D02*
X012269Y003205D01*
X012415Y003350D02*
X004899Y003350D01*
X004899Y003550D02*
X012615Y003550D01*
X012669Y003580D02*
X012669Y003863D01*
X012784Y003950D02*
X012918Y003950D01*
X012469Y003863D02*
X012469Y003405D01*
X012869Y003220D02*
X012869Y001280D01*
X012669Y001280D02*
X012669Y003095D01*
X012724Y003150D02*
X013871Y003150D01*
X013869Y003151D02*
X013869Y001280D01*
X013669Y001280D02*
X013669Y003220D01*
X013469Y003220D02*
X013469Y001280D01*
X013269Y001280D02*
X013269Y003220D01*
X013069Y003220D02*
X013069Y001280D01*
X012469Y001280D02*
X012469Y002895D01*
X012524Y002950D02*
X015243Y002950D01*
X015269Y002922D02*
X015269Y002844D01*
X015263Y002750D02*
X012324Y002750D01*
X012269Y002720D02*
X012269Y001280D01*
X012069Y001280D02*
X012069Y002720D01*
X011869Y002720D02*
X011869Y001280D01*
X011669Y001280D02*
X011669Y002720D01*
X011469Y002720D02*
X011469Y001280D01*
X011269Y001280D02*
X011269Y002720D01*
X011069Y002720D02*
X011069Y001280D01*
X010869Y001280D02*
X010869Y002720D01*
X010669Y002720D02*
X010669Y001280D01*
X010469Y001280D02*
X010469Y002720D01*
X010269Y002720D02*
X010269Y001280D01*
X010069Y001280D02*
X010069Y002720D01*
X009869Y002720D02*
X009869Y001280D01*
X009669Y001280D02*
X009669Y002720D01*
X009469Y002720D02*
X009469Y001280D01*
X009269Y001280D02*
X009269Y002720D01*
X009069Y002720D02*
X009069Y001280D01*
X008869Y001280D02*
X008869Y002720D01*
X008669Y002720D02*
X008669Y001280D01*
X008469Y001280D02*
X008469Y002720D01*
X008269Y002720D02*
X008269Y001280D01*
X008069Y001280D02*
X008069Y002720D01*
X007869Y002720D02*
X007869Y001280D01*
X007669Y001280D02*
X007669Y002720D01*
X007469Y002645D02*
X007469Y001280D01*
X007269Y001280D02*
X007269Y002470D01*
X007374Y002550D02*
X015263Y002550D01*
X015269Y002492D02*
X015269Y002414D01*
X015243Y002350D02*
X002362Y002350D01*
X002350Y002150D02*
X002647Y002150D01*
X002521Y001550D02*
X001599Y001550D01*
X002869Y001288D02*
X002869Y001280D01*
X003069Y001280D02*
X003069Y001296D01*
X004869Y001280D02*
X004869Y002495D01*
X005069Y002470D02*
X005069Y001280D01*
X005269Y001280D02*
X005269Y002470D01*
X005469Y002470D02*
X005469Y001280D01*
X005669Y001280D02*
X005669Y002470D01*
X005869Y002470D02*
X005869Y001280D01*
X006069Y001280D02*
X006069Y002470D01*
X006269Y002470D02*
X006269Y001280D01*
X006469Y001280D02*
X006469Y002470D01*
X006669Y002470D02*
X006669Y001280D01*
X006869Y001280D02*
X006869Y002470D01*
X007069Y002470D02*
X007069Y001280D01*
X009469Y003080D02*
X009469Y010825D01*
X009400Y010950D02*
X001599Y010950D01*
X001599Y011150D02*
X009363Y011150D01*
X009410Y011350D02*
X001599Y011350D01*
X009469Y011452D02*
X009469Y011696D01*
X010269Y011696D02*
X010269Y011439D01*
X010316Y011350D02*
X010432Y011350D01*
X010469Y011413D02*
X010469Y011696D01*
X011069Y011696D02*
X011069Y011572D01*
X011112Y011550D02*
X011568Y011550D01*
X011669Y011599D02*
X011669Y011696D01*
X011469Y011696D02*
X011469Y011452D01*
X011410Y011350D02*
X011294Y011350D01*
X011269Y011396D02*
X011269Y011696D01*
X011869Y011696D02*
X011869Y011638D01*
X012069Y011594D02*
X012069Y011696D01*
X012158Y011550D02*
X012568Y011550D01*
X012669Y011599D02*
X012669Y011696D01*
X012469Y011696D02*
X012469Y011452D01*
X012410Y011350D02*
X012316Y011350D01*
X012269Y011439D02*
X012269Y011696D01*
X012869Y011696D02*
X012869Y011638D01*
X013069Y011594D02*
X013069Y011696D01*
X013158Y011550D02*
X013568Y011550D01*
X013669Y011599D02*
X013669Y011696D01*
X013469Y011696D02*
X013469Y011452D01*
X013410Y011350D02*
X013316Y011350D01*
X013269Y011439D02*
X013269Y011696D01*
X013869Y011696D02*
X013869Y011638D01*
X014069Y011594D02*
X014069Y011696D01*
X014158Y011550D02*
X033937Y011550D01*
X033869Y011650D02*
X033869Y010934D01*
X033885Y010950D02*
X014326Y010950D01*
X014363Y011150D02*
X033950Y011150D01*
X033950Y011350D02*
X014316Y011350D01*
X014269Y011439D02*
X014269Y011696D01*
X014469Y011696D02*
X014469Y006080D01*
X014669Y006080D02*
X014669Y011696D01*
X014869Y011696D02*
X014869Y006080D01*
X015069Y006080D02*
X015069Y011696D01*
X015269Y011696D02*
X015269Y006080D01*
X015469Y006080D02*
X015469Y011696D01*
X015669Y011696D02*
X015669Y006080D01*
X015869Y006080D02*
X015869Y011696D01*
X016069Y011696D02*
X016069Y006080D01*
X016269Y006080D02*
X016269Y011696D01*
X017269Y011696D02*
X017269Y008830D01*
X017469Y008919D02*
X017469Y011696D01*
X017669Y011696D02*
X017669Y008830D01*
X016785Y008550D02*
X014259Y008550D01*
X014259Y008750D02*
X016505Y008750D01*
X016469Y008765D02*
X016469Y006080D01*
X016621Y006150D02*
X010724Y006150D01*
X012469Y006080D02*
X012469Y010825D01*
X012400Y010950D02*
X012326Y010950D01*
X012363Y011150D02*
X012363Y011150D01*
X013326Y010950D02*
X013400Y010950D01*
X013363Y011150D02*
X013363Y011150D01*
X011069Y011109D02*
X011069Y011167D01*
X010892Y011350D02*
X010834Y011350D01*
X010834Y010750D02*
X010892Y010750D01*
X016669Y008665D02*
X016669Y006169D01*
X016269Y005720D02*
X016269Y004866D01*
X016211Y004807D02*
X016211Y004807D01*
X016153Y004750D02*
X014564Y004750D01*
X015692Y004350D02*
X015753Y004350D01*
X016779Y004437D02*
X016817Y004400D01*
X016760Y004733D02*
X016391Y004733D01*
X016069Y004666D02*
X016069Y005720D01*
X017469Y004960D02*
X017469Y004580D01*
X017669Y004580D02*
X017669Y004960D01*
X016779Y004752D02*
X016760Y004733D01*
X015669Y003916D02*
X015669Y003408D01*
X015469Y003408D02*
X015469Y003863D01*
X015243Y003150D02*
X014068Y003150D01*
X014069Y003151D02*
X014069Y001280D01*
X016269Y001280D02*
X016269Y002152D01*
X016391Y002528D02*
X016760Y002528D01*
X016779Y002548D01*
X016313Y002705D02*
X016152Y002544D01*
X016152Y002649D01*
X015726Y002649D01*
X015726Y002687D01*
X016152Y002687D01*
X016152Y002820D01*
X016145Y002848D01*
X016130Y002873D01*
X016113Y002890D01*
X016121Y002897D01*
X016313Y002705D01*
X016269Y002661D02*
X016269Y002749D01*
X016268Y002750D02*
X016152Y002750D01*
X016069Y002687D02*
X016069Y002649D01*
X016152Y002550D02*
X016158Y002550D01*
X015869Y002649D02*
X015869Y002687D01*
X015669Y002687D02*
X015669Y002649D01*
X015469Y002649D02*
X015469Y002687D01*
X015269Y002687D02*
X015269Y002649D01*
X016377Y003150D02*
X016399Y003150D01*
X017566Y002950D02*
X017851Y002950D01*
X018329Y003150D02*
X018371Y003150D01*
X018269Y003209D02*
X018269Y003220D01*
X018469Y003400D02*
X018627Y003243D01*
X018807Y003150D02*
X018809Y003150D01*
X018807Y002950D02*
X018809Y002950D01*
X019229Y003150D02*
X019779Y003150D01*
X019669Y003060D02*
X019669Y004960D01*
X019469Y004960D02*
X019469Y003060D01*
X019269Y003060D02*
X019269Y004960D01*
X020646Y005550D02*
X022289Y005550D01*
X022289Y005350D02*
X020846Y005350D01*
X020869Y005327D02*
X020869Y005970D01*
X020669Y005970D02*
X020669Y005527D01*
X020469Y005727D02*
X020469Y005970D01*
X020357Y005950D02*
X022165Y005950D01*
X022069Y005970D02*
X022069Y004394D01*
X022048Y004350D02*
X021987Y004350D01*
X021987Y004373D02*
X021911Y004449D01*
X021898Y004449D01*
X021947Y004498D01*
X021988Y004597D01*
X021988Y004703D01*
X021947Y004802D01*
X021872Y004878D01*
X021773Y004919D01*
X021666Y004919D01*
X021567Y004878D01*
X021491Y004802D01*
X021451Y004703D01*
X021451Y004597D01*
X021491Y004498D01*
X021519Y004470D01*
X021519Y004449D01*
X021488Y004449D01*
X021412Y004373D01*
X021412Y003989D01*
X021488Y003913D01*
X021911Y003913D01*
X021987Y003989D01*
X021987Y004373D01*
X021987Y004150D02*
X022048Y004150D01*
X022335Y004181D02*
X022469Y004315D01*
X022469Y005900D01*
X022219Y006150D01*
X022069Y006330D02*
X022069Y011696D01*
X021869Y011696D02*
X021869Y006330D01*
X021669Y006330D02*
X021669Y011696D01*
X021469Y011696D02*
X021469Y006330D01*
X021269Y006330D02*
X021269Y011696D01*
X021069Y011696D02*
X021069Y006330D01*
X020869Y006330D02*
X020869Y011696D01*
X020669Y011696D02*
X020669Y006330D01*
X020469Y006330D02*
X020469Y011696D01*
X020269Y011696D02*
X020269Y006330D01*
X020069Y006330D02*
X020069Y011696D01*
X019869Y011696D02*
X019869Y006330D01*
X019669Y006330D02*
X019669Y011696D01*
X019469Y011696D02*
X019469Y006330D01*
X019269Y006330D02*
X019269Y011696D01*
X019069Y011696D02*
X019069Y006330D01*
X018869Y006330D02*
X018869Y011696D01*
X018269Y011696D02*
X018269Y006330D01*
X018289Y006350D02*
X018177Y006350D01*
X018177Y006150D02*
X018201Y006150D01*
X018523Y006419D02*
X018622Y006378D01*
X018669Y006330D01*
X018649Y006350D02*
X026448Y006350D01*
X026469Y006384D02*
X026469Y007679D01*
X026430Y007750D02*
X018177Y007750D01*
X018177Y007550D02*
X026582Y007550D01*
X026669Y007488D02*
X026669Y006576D01*
X026631Y006550D02*
X018177Y006550D01*
X018177Y006750D02*
X028009Y006750D01*
X028009Y006550D02*
X027331Y006550D01*
X027269Y006588D02*
X027269Y007476D01*
X027380Y007550D02*
X028011Y007550D01*
X028069Y007639D02*
X028069Y011696D01*
X028269Y011696D02*
X028269Y007659D01*
X028469Y007659D02*
X028469Y011696D01*
X028669Y011696D02*
X028669Y007659D01*
X028009Y007350D02*
X018177Y007350D01*
X018177Y007150D02*
X028009Y007150D01*
X028009Y006950D02*
X018177Y006950D01*
X018416Y006419D02*
X018523Y006419D01*
X018669Y005970D02*
X019961Y005970D01*
X019905Y005913D01*
X019861Y005807D01*
X019869Y005828D02*
X019869Y005970D01*
X019941Y005950D02*
X018649Y005950D01*
X018869Y005970D02*
X018869Y005720D01*
X019069Y005720D02*
X019069Y005970D01*
X019269Y005970D02*
X019269Y005720D01*
X019469Y005720D02*
X019469Y005970D01*
X019669Y005970D02*
X019669Y005720D01*
X020446Y005750D02*
X022289Y005750D01*
X022269Y005845D02*
X022269Y004449D01*
X022289Y004550D02*
X021969Y004550D01*
X021969Y004750D02*
X022289Y004750D01*
X022649Y004750D02*
X029382Y004750D01*
X029469Y004838D02*
X029469Y006631D01*
X029556Y006550D02*
X029025Y006550D01*
X029025Y006750D02*
X029391Y006750D01*
X029669Y006480D02*
X029669Y005038D01*
X029582Y004950D02*
X022649Y004950D01*
X022649Y005150D02*
X029782Y005150D01*
X029869Y005238D02*
X029869Y006423D01*
X028669Y006288D02*
X028669Y004038D01*
X028582Y003950D02*
X022583Y003950D01*
X022469Y003914D02*
X022469Y003780D01*
X022547Y003780D02*
X022124Y003780D01*
X022048Y003704D01*
X022048Y003692D01*
X021987Y003692D01*
X021987Y003703D01*
X021911Y003780D01*
X021488Y003780D01*
X021412Y003703D01*
X021412Y003320D01*
X021433Y003299D01*
X021177Y003043D01*
X020539Y003043D01*
X020539Y003313D01*
X020804Y003313D01*
X020876Y003241D01*
X021299Y003241D01*
X021375Y003317D01*
X021375Y003700D01*
X021299Y003776D01*
X020876Y003776D01*
X020800Y003700D01*
X020800Y003673D01*
X020523Y003673D01*
X020518Y003678D01*
X020519Y003683D01*
X020519Y003802D01*
X020164Y003802D01*
X020164Y003812D01*
X020519Y003812D01*
X020519Y003932D01*
X020518Y003937D01*
X020539Y003959D01*
X020539Y004227D01*
X020592Y004227D01*
X020715Y004350D01*
X020971Y004606D01*
X020971Y005226D01*
X021669Y004919D02*
X021669Y005970D01*
X021469Y005970D02*
X021469Y004749D01*
X021470Y004750D02*
X020971Y004750D01*
X020914Y004550D02*
X021470Y004550D01*
X021469Y004551D02*
X021469Y004430D01*
X021412Y004350D02*
X021350Y004350D01*
X021347Y004358D02*
X021333Y004383D01*
X021312Y004404D01*
X021287Y004418D01*
X021259Y004426D01*
X021106Y004426D01*
X021106Y004197D01*
X021069Y004197D01*
X021069Y005970D01*
X021269Y005970D02*
X021269Y004423D01*
X021347Y004358D02*
X021355Y004330D01*
X021355Y004197D01*
X021106Y004197D01*
X021106Y004159D01*
X021106Y003930D01*
X021259Y003930D01*
X021287Y003938D01*
X021312Y003952D01*
X021333Y003973D01*
X021347Y003998D01*
X021355Y004026D01*
X021355Y004159D01*
X021106Y004159D01*
X021069Y004159D01*
X021069Y003776D01*
X021069Y003930D02*
X020915Y003930D01*
X020887Y003938D01*
X020862Y003952D01*
X020842Y003973D01*
X020827Y003998D01*
X020820Y004026D01*
X020820Y004159D01*
X021068Y004159D01*
X021068Y004197D01*
X020820Y004197D01*
X020820Y004330D01*
X020827Y004358D01*
X020842Y004383D01*
X020862Y004404D01*
X020887Y004418D01*
X020915Y004426D01*
X021069Y004426D01*
X021069Y004197D01*
X021069Y004159D02*
X021069Y003930D01*
X021069Y003950D02*
X021106Y003950D01*
X021269Y003933D02*
X021269Y003776D01*
X021325Y003750D02*
X021458Y003750D01*
X021469Y003761D02*
X021469Y003932D01*
X021451Y003950D02*
X021309Y003950D01*
X021669Y003913D02*
X021669Y003780D01*
X021869Y003780D02*
X021869Y003913D01*
X021947Y003950D02*
X022088Y003950D01*
X022069Y003969D02*
X022069Y003725D01*
X022094Y003750D02*
X021940Y003750D01*
X022269Y003780D02*
X022269Y003914D01*
X022547Y003780D02*
X022623Y003704D01*
X022623Y003321D01*
X022547Y003244D01*
X022124Y003244D01*
X022048Y003321D01*
X022048Y003332D01*
X021987Y003332D01*
X021987Y003320D01*
X021911Y003244D01*
X021879Y003244D01*
X021879Y003236D01*
X021774Y003130D01*
X021774Y003130D01*
X021546Y002902D01*
X021841Y002902D01*
X021917Y002826D01*
X021869Y002874D02*
X021869Y003225D01*
X021794Y003150D02*
X027682Y003150D01*
X027682Y002950D02*
X021594Y002950D01*
X021669Y002902D02*
X021669Y003025D01*
X021699Y003310D02*
X021252Y002863D01*
X021109Y002863D01*
X021109Y002683D01*
X021108Y002670D01*
X021104Y002657D01*
X021098Y002645D01*
X021089Y002635D01*
X021109Y002863D02*
X020159Y002863D01*
X020137Y002840D01*
X020669Y003043D02*
X020669Y003313D01*
X020539Y003150D02*
X021285Y003150D01*
X021269Y003135D02*
X021269Y003241D01*
X021375Y003350D02*
X021412Y003350D01*
X021412Y003550D02*
X021375Y003550D01*
X021087Y003509D02*
X021071Y003493D01*
X020159Y003493D01*
X020669Y003673D02*
X020669Y004305D01*
X020714Y004350D02*
X020825Y004350D01*
X020869Y004408D02*
X020869Y004505D01*
X021069Y004350D02*
X021106Y004350D01*
X021106Y004150D02*
X021069Y004150D01*
X020869Y004159D02*
X020869Y004197D01*
X020820Y004150D02*
X020539Y004150D01*
X020531Y003950D02*
X020866Y003950D01*
X020869Y003948D02*
X020869Y003770D01*
X020850Y003750D02*
X020519Y003750D01*
X020469Y003802D02*
X020469Y003812D01*
X020269Y003802D02*
X020269Y003812D01*
X020069Y003802D02*
X020069Y003812D01*
X021269Y004159D02*
X021269Y004197D01*
X021355Y004150D02*
X021412Y004150D01*
X021699Y004181D02*
X021699Y004630D01*
X021719Y004650D01*
X021869Y004879D02*
X021869Y005970D01*
X022649Y004550D02*
X029182Y004550D01*
X029269Y004638D02*
X029269Y011696D01*
X029869Y011696D02*
X029869Y007641D01*
X029884Y007550D02*
X029984Y007550D01*
X030069Y007630D02*
X030069Y011696D01*
X030269Y011696D02*
X030269Y007545D01*
X030262Y007550D02*
X033086Y007550D01*
X033069Y007574D02*
X033069Y007474D01*
X033086Y007350D02*
X033186Y007350D01*
X032869Y007474D02*
X032869Y007574D01*
X032669Y007574D02*
X032669Y007474D01*
X032469Y007474D02*
X032469Y007574D01*
X032269Y007574D02*
X032269Y007474D01*
X032201Y007350D02*
X030459Y007350D01*
X030469Y007329D02*
X030469Y011696D01*
X026269Y011696D02*
X026269Y001580D01*
X026069Y001580D02*
X026069Y011696D01*
X025869Y011696D02*
X025869Y001580D01*
X025669Y001580D02*
X025669Y011696D01*
X025469Y011696D02*
X025469Y001580D01*
X025269Y001580D02*
X025269Y011696D01*
X025069Y011696D02*
X025069Y001580D01*
X024869Y001580D02*
X024869Y011696D01*
X024669Y011696D02*
X024669Y001580D01*
X024469Y001580D02*
X024469Y011696D01*
X024269Y011696D02*
X024269Y001580D01*
X024069Y001580D02*
X024069Y011696D01*
X023869Y011696D02*
X023869Y001580D01*
X023669Y001580D02*
X023669Y011696D01*
X023469Y011696D02*
X023469Y001580D01*
X023269Y001580D02*
X023269Y011696D01*
X023069Y011696D02*
X023069Y001580D01*
X022869Y001580D02*
X022869Y011696D01*
X022669Y011696D02*
X022669Y001580D01*
X022469Y001580D02*
X022469Y003244D01*
X022623Y003350D02*
X027718Y003350D01*
X028182Y003550D02*
X022623Y003550D01*
X022335Y003512D02*
X021700Y003512D01*
X021699Y003512D01*
X021699Y003310D01*
X022069Y003299D02*
X022069Y002549D01*
X021917Y002550D02*
X027370Y002550D01*
X028269Y002285D02*
X028269Y002228D01*
X028315Y002150D02*
X028372Y002150D01*
X028372Y002228D02*
X028372Y001969D01*
X028515Y001969D01*
X028543Y001977D01*
X028568Y001991D01*
X028589Y002012D01*
X028603Y002037D01*
X028611Y002065D01*
X028611Y002228D01*
X028372Y002228D01*
X028469Y002228D02*
X028469Y002285D01*
X028372Y002350D02*
X028315Y002350D01*
X028611Y002350D02*
X029182Y002350D01*
X029182Y002150D02*
X028611Y002150D01*
X028469Y001969D02*
X028469Y001580D01*
X029944Y001350D02*
X033935Y001350D01*
X033869Y001289D02*
X033869Y006366D01*
X033885Y006350D02*
X033392Y006350D01*
X033469Y006273D02*
X033469Y006939D01*
X033269Y006939D02*
X033269Y006464D01*
X033069Y006464D02*
X033069Y006939D01*
X033086Y006950D02*
X033186Y006950D01*
X033186Y007150D02*
X033086Y007150D01*
X033669Y006939D02*
X033669Y001280D01*
X033469Y001280D02*
X033469Y001805D01*
X033435Y001750D02*
X033950Y001750D01*
X033950Y001950D02*
X033473Y001950D01*
X033469Y001945D02*
X033469Y001937D01*
X033469Y002078D02*
X033469Y002110D01*
X033493Y002150D02*
X033950Y002150D01*
X033950Y002350D02*
X033493Y002350D01*
X032969Y002296D02*
X031383Y002296D01*
X031343Y002256D01*
X031056Y002350D02*
X030883Y002350D01*
X030883Y002150D02*
X031056Y002150D01*
X031069Y002012D02*
X031069Y001280D01*
X030869Y001280D02*
X030869Y002012D01*
X030807Y001950D02*
X031131Y001950D01*
X031269Y001949D02*
X031269Y001280D01*
X031469Y001280D02*
X031469Y001949D01*
X031556Y001950D02*
X032466Y001950D01*
X032469Y001945D02*
X032469Y001937D01*
X032466Y001937D02*
X032466Y001819D01*
X032473Y001791D01*
X032488Y001766D01*
X032508Y001745D01*
X032533Y001731D01*
X032561Y001723D01*
X032965Y001723D01*
X032965Y001937D01*
X032466Y001937D01*
X032469Y001805D02*
X032469Y001280D01*
X032269Y001280D02*
X032269Y002116D01*
X032069Y002116D02*
X032069Y001280D01*
X031869Y001280D02*
X031869Y002116D01*
X031669Y002116D02*
X031669Y001280D01*
X030669Y001280D02*
X030669Y001949D01*
X030469Y001876D02*
X030469Y001280D01*
X030269Y001280D02*
X030269Y001676D01*
X030344Y001750D02*
X032503Y001750D01*
X032669Y001723D02*
X032669Y001280D01*
X032869Y001280D02*
X032869Y001723D01*
X032965Y001750D02*
X032973Y001750D01*
X033069Y001723D02*
X033069Y001280D01*
X033269Y001280D02*
X033269Y001723D01*
X033269Y001937D02*
X033269Y001945D01*
X033069Y001937D02*
X033069Y001945D01*
X032869Y001937D02*
X032869Y001945D01*
X032669Y001937D02*
X032669Y001945D01*
X032469Y002078D02*
X032469Y002110D01*
X032069Y002476D02*
X032069Y002892D01*
X032269Y002970D02*
X032935Y002970D01*
X032969Y003004D01*
X033493Y002950D02*
X033950Y002950D01*
X033950Y003150D02*
X033493Y003150D01*
X033493Y002750D02*
X033950Y002750D01*
X033950Y002550D02*
X033493Y002550D01*
X032446Y003350D02*
X032169Y003350D01*
X032069Y003408D02*
X032069Y004391D01*
X032142Y004350D02*
X029814Y004350D01*
X029869Y004405D02*
X029869Y002580D01*
X029968Y002750D02*
X029714Y002750D01*
X029669Y002717D02*
X029669Y002583D01*
X029469Y002583D02*
X029469Y002717D01*
X029469Y002985D02*
X029469Y002985D01*
X029439Y003056D02*
X029439Y004230D01*
X030014Y004550D02*
X031961Y004550D01*
X031964Y004750D02*
X030214Y004750D01*
X030269Y004805D02*
X030269Y003342D01*
X030069Y003160D02*
X030069Y004605D01*
X028469Y003838D02*
X028469Y006288D01*
X028269Y006288D02*
X028269Y003638D01*
X028382Y003750D02*
X022577Y003750D01*
X022269Y003244D02*
X022269Y001580D01*
X022069Y001580D02*
X022069Y002051D01*
X020069Y002139D02*
X020069Y002308D01*
X020869Y003043D02*
X020869Y003248D01*
X021069Y003241D02*
X021069Y003043D01*
X018809Y003550D02*
X018698Y003550D01*
X018669Y003580D02*
X018669Y003610D01*
X017469Y001580D02*
X017469Y001280D01*
X017269Y001280D02*
X017269Y001580D01*
X029469Y002315D02*
X029554Y002400D01*
X029969Y002400D01*
X030219Y002650D01*
X030219Y002900D01*
X029929Y002950D02*
X029757Y002950D01*
X029757Y003150D02*
X030059Y003150D01*
X029468Y002985D02*
X029456Y003000D01*
X029447Y003018D01*
X029441Y003036D01*
X029439Y003056D01*
X030144Y001550D02*
X033950Y001550D01*
X030069Y001476D02*
X030069Y001280D01*
X033547Y004950D02*
X033950Y004950D01*
X033950Y005150D02*
X033547Y005150D01*
X032283Y005150D02*
X032255Y005150D01*
X033547Y006150D02*
X033950Y006150D01*
X029984Y007350D02*
X029884Y007350D01*
X027269Y007966D02*
X027269Y008066D01*
X027069Y008066D02*
X027069Y007966D01*
X027031Y007950D02*
X026931Y007950D01*
X026869Y007966D02*
X026869Y008066D01*
X026931Y008150D02*
X027031Y008150D01*
X027031Y008350D02*
X026931Y008350D01*
X026669Y008066D02*
X026669Y007966D01*
X026469Y007966D02*
X026469Y008066D01*
X026931Y007750D02*
X027031Y007750D01*
X027031Y007550D02*
X026931Y007550D01*
X026869Y007414D02*
X026869Y006650D01*
X026931Y006550D02*
X027031Y006550D01*
X027069Y006653D02*
X027069Y007411D01*
X027031Y006350D02*
X026931Y006350D01*
X026931Y006150D02*
X027031Y006150D01*
X027069Y006098D02*
X027069Y005998D01*
X027031Y005950D02*
X026931Y005950D01*
X026869Y005998D02*
X026869Y006098D01*
X026669Y006098D02*
X026669Y005998D01*
X026931Y005750D02*
X027031Y005750D01*
X027269Y005998D02*
X027269Y006098D01*
X033086Y007750D02*
X033186Y007750D01*
X004535Y003550D02*
X001599Y003550D01*
X001599Y003350D02*
X004539Y003350D01*
X003004Y004350D02*
X002904Y004350D01*
X003069Y004478D02*
X003069Y004578D01*
D26*
X016779Y003807D02*
X017462Y003807D01*
X017389Y003880D01*
X017429Y004090D01*
X017462Y003807D02*
X017589Y003680D01*
X017629Y003680D01*
X017769Y003820D01*
X018879Y003820D01*
X019019Y003680D01*
X019019Y002950D01*
X019119Y002850D01*
X020147Y002850D01*
X020159Y002863D01*
X020197Y002900D01*
X020152Y003800D02*
X020142Y003810D01*
X019649Y003810D01*
X020152Y003800D02*
X020159Y003807D01*
X020159Y004437D02*
X020505Y004437D01*
X020761Y004693D01*
X020761Y005139D01*
X020149Y005750D01*
X017589Y003680D02*
X017589Y003270D01*
X017469Y003150D01*
X016807Y003150D01*
X016779Y003178D01*
D27*
X008477Y006048D02*
X008477Y008016D01*
X008335Y008016D01*
X007969Y007900D01*
X006393Y007900D01*
X005524Y007032D01*
X013969Y006650D02*
X013969Y011032D01*
X013863Y011138D01*
X030219Y002900D02*
X030402Y003083D01*
X030969Y003083D01*
D28*
X030219Y002900D03*
X020149Y005750D03*
X017429Y004090D03*
X013969Y006650D03*
D29*
X016719Y005900D03*
X018469Y006150D03*
X021719Y004650D03*
X018469Y003400D03*
X018119Y002980D03*
X018219Y004150D03*
X013969Y003400D03*
X011969Y005400D03*
X004569Y005430D03*
X003969Y006900D03*
X006369Y008410D03*
X007459Y008530D03*
X004219Y010150D03*
X016579Y009010D03*
X017469Y008650D03*
X031989Y003150D03*
X026969Y001900D03*
D30*
X022019Y002300D03*
X020039Y001890D03*
D31*
X019683Y001890D01*
X019612Y001919D02*
X019572Y001960D01*
X019612Y001919D02*
X019627Y001907D01*
X019645Y001898D01*
X019663Y001892D01*
X019683Y001890D01*
X020159Y002548D02*
X020358Y002349D01*
X020428Y002320D02*
X021549Y002320D01*
X021600Y002371D01*
X021629Y002441D02*
X021629Y002635D01*
X021629Y002441D02*
X021627Y002421D01*
X021621Y002403D01*
X021612Y002385D01*
X021600Y002370D01*
X021935Y002271D02*
X021629Y001965D01*
X021934Y002271D02*
X021949Y002283D01*
X021967Y002292D01*
X021985Y002298D01*
X022005Y002300D01*
X022019Y002300D01*
X020428Y002320D02*
X020408Y002322D01*
X020390Y002328D01*
X020372Y002337D01*
X020357Y002349D01*
D32*
X032269Y004646D02*
X032940Y003975D01*
X032969Y003904D02*
X032969Y003359D01*
X032969Y003904D02*
X032967Y003924D01*
X032961Y003942D01*
X032952Y003960D01*
X032940Y003975D01*
M02*
