G75*
%MOIN*%
%OFA0B0*%
%FSLAX24Y24*%
%IPPOS*%
%LPD*%
%AMOC8*
5,1,8,0,0,1.08239X$1,22.5*
%
%ADD10C,0.0000*%
%ADD11C,0.0060*%
%ADD12C,0.0070*%
%ADD13C,0.0050*%
%ADD14C,0.0240*%
%ADD15R,0.0180X0.0300*%
%ADD16R,0.0300X0.0180*%
%ADD17R,0.0024X0.0012*%
%ADD18R,0.0035X0.0012*%
%ADD19R,0.0012X0.0012*%
%ADD20R,0.0047X0.0012*%
%ADD21R,0.0130X0.0012*%
%ADD22R,0.0118X0.0012*%
%ADD23R,0.0177X0.0012*%
%ADD24R,0.0142X0.0012*%
%ADD25R,0.0106X0.0012*%
%ADD26R,0.0189X0.0012*%
%ADD27R,0.0236X0.0012*%
%ADD28R,0.0201X0.0012*%
%ADD29R,0.0248X0.0012*%
%ADD30R,0.0283X0.0012*%
%ADD31R,0.0224X0.0012*%
%ADD32R,0.0260X0.0012*%
%ADD33R,0.0307X0.0012*%
%ADD34R,0.0272X0.0012*%
%ADD35R,0.0295X0.0012*%
%ADD36R,0.0331X0.0012*%
%ADD37R,0.0449X0.0012*%
%ADD38R,0.0437X0.0012*%
%ADD39R,0.0366X0.0012*%
%ADD40R,0.0461X0.0012*%
%ADD41R,0.0154X0.0012*%
%ADD42R,0.0390X0.0012*%
%ADD43R,0.0165X0.0012*%
%ADD44R,0.0413X0.0012*%
%ADD45R,0.0472X0.0012*%
%ADD46R,0.0484X0.0012*%
%ADD47R,0.0083X0.0012*%
%ADD48R,0.0213X0.0012*%
%ADD49R,0.0071X0.0012*%
%ADD50R,0.0496X0.0012*%
%ADD51R,0.0520X0.0012*%
%ADD52R,0.0425X0.0012*%
%ADD53R,0.0402X0.0012*%
%ADD54R,0.0378X0.0012*%
%ADD55R,0.0094X0.0012*%
%ADD56R,0.0059X0.0012*%
%ADD57R,0.0354X0.0012*%
%ADD58R,0.0343X0.0012*%
%ADD59R,0.0319X0.0012*%
%ADD60R,0.0508X0.0012*%
%ADD61R,0.0531X0.0012*%
%ADD62R,0.0567X0.0012*%
%ADD63R,0.0591X0.0012*%
%ADD64R,0.0626X0.0012*%
%ADD65R,0.0661X0.0012*%
%ADD66R,0.0650X0.0012*%
%ADD67R,0.0673X0.0012*%
%ADD68R,0.0685X0.0012*%
%ADD69R,0.0709X0.0012*%
%ADD70R,0.0744X0.0012*%
%ADD71R,0.0768X0.0012*%
%ADD72R,0.0756X0.0012*%
%ADD73R,0.0791X0.0012*%
%ADD74R,0.1122X0.0012*%
%ADD75R,0.1134X0.0012*%
%ADD76R,0.1157X0.0012*%
%ADD77R,0.1169X0.0012*%
%ADD78R,0.1181X0.0012*%
%ADD79R,0.1193X0.0012*%
%ADD80R,0.1205X0.0012*%
%ADD81R,0.1217X0.0012*%
%ADD82R,0.1240X0.0012*%
%ADD83R,0.1252X0.0012*%
%ADD84R,0.1276X0.0012*%
%ADD85R,0.1264X0.0012*%
%ADD86R,0.1228X0.0012*%
%ADD87R,0.1146X0.0012*%
%ADD88R,0.1287X0.0012*%
%ADD89R,0.1299X0.0012*%
%ADD90R,0.1311X0.0012*%
%ADD91R,0.1323X0.0012*%
%ADD92R,0.1335X0.0012*%
%ADD93R,0.1346X0.0012*%
%ADD94R,0.1358X0.0012*%
%ADD95R,0.1370X0.0012*%
%ADD96R,0.1394X0.0012*%
%ADD97R,0.1441X0.0012*%
%ADD98R,0.1500X0.0012*%
%ADD99R,0.1571X0.0012*%
%ADD100R,0.1547X0.0012*%
%ADD101R,0.1618X0.0012*%
%ADD102R,0.1606X0.0012*%
%ADD103R,0.1665X0.0012*%
%ADD104R,0.1677X0.0012*%
%ADD105R,0.1724X0.0012*%
%ADD106R,0.1713X0.0012*%
%ADD107R,0.1701X0.0012*%
%ADD108R,0.1689X0.0012*%
%ADD109R,0.1654X0.0012*%
%ADD110R,0.1642X0.0012*%
%ADD111R,0.1736X0.0012*%
%ADD112R,0.1594X0.0012*%
%ADD113R,0.1535X0.0012*%
%ADD114R,0.1488X0.0012*%
%ADD115R,0.1476X0.0012*%
%ADD116R,0.1429X0.0012*%
%ADD117R,0.1382X0.0012*%
%ADD118R,0.1406X0.0012*%
%ADD119R,0.1583X0.0012*%
%ADD120R,0.1559X0.0012*%
%ADD121R,0.3189X0.0012*%
%ADD122R,0.3165X0.0012*%
%ADD123R,0.3142X0.0012*%
%ADD124R,0.3118X0.0012*%
%ADD125R,0.3106X0.0012*%
%ADD126R,0.3094X0.0012*%
%ADD127R,0.3071X0.0012*%
%ADD128R,0.3047X0.0012*%
%ADD129R,0.3035X0.0012*%
%ADD130R,0.3024X0.0012*%
%ADD131R,0.3000X0.0012*%
%ADD132R,0.3059X0.0012*%
%ADD133R,0.3083X0.0012*%
%ADD134R,0.3154X0.0012*%
%ADD135R,0.3177X0.0012*%
%ADD136R,0.3201X0.0012*%
%ADD137R,0.3213X0.0012*%
%ADD138R,0.3236X0.0012*%
%ADD139R,0.3248X0.0012*%
%ADD140R,0.3260X0.0012*%
%ADD141R,0.3283X0.0012*%
%ADD142R,0.3295X0.0012*%
%ADD143R,0.3307X0.0012*%
%ADD144R,0.3331X0.0012*%
%ADD145R,0.3354X0.0012*%
%ADD146R,0.3378X0.0012*%
%ADD147R,0.3402X0.0012*%
%ADD148R,0.3425X0.0012*%
%ADD149R,0.3449X0.0012*%
%ADD150R,0.3472X0.0012*%
%ADD151R,0.3496X0.0012*%
%ADD152R,0.3520X0.0012*%
%ADD153R,0.3543X0.0012*%
%ADD154R,0.3555X0.0012*%
%ADD155R,0.3567X0.0012*%
%ADD156R,0.3591X0.0012*%
%ADD157R,0.3614X0.0012*%
%ADD158R,0.3638X0.0012*%
%ADD159R,0.3661X0.0012*%
%ADD160R,0.3673X0.0012*%
%ADD161R,0.3650X0.0012*%
%ADD162R,0.3602X0.0012*%
%ADD163R,0.0886X0.0012*%
%ADD164R,0.0850X0.0012*%
%ADD165R,0.0827X0.0012*%
%ADD166R,0.0815X0.0012*%
%ADD167R,0.0732X0.0012*%
%ADD168R,0.0697X0.0012*%
%ADD169R,0.0602X0.0012*%
%ADD170R,0.0614X0.0012*%
%ADD171R,0.0555X0.0012*%
%ADD172R,0.1087X0.0012*%
%ADD173R,0.1004X0.0012*%
%ADD174R,0.0957X0.0012*%
%ADD175R,0.0921X0.0012*%
%ADD176R,0.0874X0.0012*%
%ADD177R,0.0839X0.0012*%
%ADD178R,0.0803X0.0012*%
%ADD179R,0.0780X0.0012*%
%ADD180R,0.0720X0.0012*%
%ADD181R,0.0638X0.0012*%
%ADD182C,0.0080*%
%ADD183C,0.0006*%
%ADD184C,0.0010*%
%ADD185C,0.0040*%
D10*
X001719Y001150D02*
X033830Y001150D01*
X033860Y001152D01*
X033890Y001157D01*
X033919Y001166D01*
X033946Y001179D01*
X033972Y001194D01*
X033996Y001213D01*
X034017Y001234D01*
X034036Y001258D01*
X034051Y001284D01*
X034064Y001311D01*
X034073Y001340D01*
X034078Y001370D01*
X034080Y001400D01*
X034080Y011436D01*
X034083Y011472D01*
X034082Y011509D01*
X034077Y011545D01*
X034069Y011580D01*
X034056Y011615D01*
X034041Y011647D01*
X034022Y011678D01*
X033999Y011707D01*
X033974Y011734D01*
X033947Y011757D01*
X033916Y011778D01*
X033884Y011795D01*
X033851Y011809D01*
X033816Y011819D01*
X033780Y011826D01*
X001669Y011826D01*
X001642Y011827D01*
X001616Y011823D01*
X001591Y011816D01*
X001566Y011805D01*
X001544Y011791D01*
X001524Y011774D01*
X001506Y011754D01*
X001492Y011732D01*
X001480Y011708D01*
X001473Y011682D01*
X001469Y011656D01*
X001469Y001400D01*
X001471Y001370D01*
X001476Y001340D01*
X001485Y001311D01*
X001498Y001284D01*
X001513Y001258D01*
X001532Y001234D01*
X001553Y001213D01*
X001577Y001194D01*
X001603Y001179D01*
X001630Y001166D01*
X001659Y001157D01*
X001689Y001152D01*
X001719Y001150D01*
X002922Y008520D02*
X002924Y008538D01*
X002930Y008554D01*
X002939Y008569D01*
X002952Y008582D01*
X002967Y008591D01*
X002983Y008597D01*
X003001Y008599D01*
X003019Y008597D01*
X003035Y008591D01*
X003050Y008582D01*
X003063Y008569D01*
X003072Y008554D01*
X003078Y008538D01*
X003080Y008520D01*
X003078Y008502D01*
X003072Y008486D01*
X003063Y008471D01*
X003050Y008458D01*
X003035Y008449D01*
X003019Y008443D01*
X003001Y008441D01*
X002983Y008443D01*
X002967Y008449D01*
X002952Y008458D01*
X002939Y008471D01*
X002930Y008486D01*
X002924Y008502D01*
X002922Y008520D01*
X002922Y010095D02*
X002924Y010113D01*
X002930Y010129D01*
X002939Y010144D01*
X002952Y010157D01*
X002967Y010166D01*
X002983Y010172D01*
X003001Y010174D01*
X003019Y010172D01*
X003035Y010166D01*
X003050Y010157D01*
X003063Y010144D01*
X003072Y010129D01*
X003078Y010113D01*
X003080Y010095D01*
X003078Y010077D01*
X003072Y010061D01*
X003063Y010046D01*
X003050Y010033D01*
X003035Y010024D01*
X003019Y010018D01*
X003001Y010016D01*
X002983Y010018D01*
X002967Y010024D01*
X002952Y010033D01*
X002939Y010046D01*
X002930Y010061D01*
X002924Y010077D01*
X002922Y010095D01*
X033969Y010850D02*
X033969Y006450D01*
D11*
X019849Y005030D02*
X019849Y002270D01*
X017089Y002270D01*
X017089Y004890D01*
X017229Y005030D01*
X019849Y005030D01*
X017248Y004730D02*
X017250Y004753D01*
X017256Y004776D01*
X017265Y004797D01*
X017278Y004817D01*
X017294Y004834D01*
X017312Y004848D01*
X017332Y004859D01*
X017354Y004867D01*
X017377Y004871D01*
X017401Y004871D01*
X017424Y004867D01*
X017446Y004859D01*
X017466Y004848D01*
X017484Y004834D01*
X017500Y004817D01*
X017513Y004797D01*
X017522Y004776D01*
X017528Y004753D01*
X017530Y004730D01*
X017528Y004707D01*
X017522Y004684D01*
X017513Y004663D01*
X017500Y004643D01*
X017484Y004626D01*
X017466Y004612D01*
X017446Y004601D01*
X017424Y004593D01*
X017401Y004589D01*
X017377Y004589D01*
X017354Y004593D01*
X017332Y004601D01*
X017312Y004612D01*
X017294Y004626D01*
X017278Y004643D01*
X017265Y004663D01*
X017256Y004684D01*
X017250Y004707D01*
X017248Y004730D01*
X013679Y001910D02*
X013508Y001740D01*
X013735Y001740D01*
X013679Y001570D02*
X013679Y001910D01*
X013183Y001854D02*
X012956Y001627D01*
X013013Y001570D01*
X013126Y001570D01*
X013183Y001627D01*
X013183Y001854D01*
X013126Y001910D01*
X013013Y001910D01*
X012956Y001854D01*
X012956Y001627D01*
X012815Y001683D02*
X012815Y001910D01*
X012588Y001910D02*
X012588Y001683D01*
X012701Y001570D01*
X012815Y001683D01*
X013324Y001627D02*
X013324Y001570D01*
X013381Y001570D01*
X013381Y001627D01*
X013324Y001627D01*
X012078Y001570D02*
X012078Y001740D01*
X012021Y001797D01*
X011851Y001797D01*
X011851Y001570D01*
X011710Y001570D02*
X011539Y001570D01*
X011483Y001627D01*
X011539Y001683D01*
X011710Y001683D01*
X011710Y001740D02*
X011710Y001570D01*
X011228Y001570D02*
X011228Y001910D01*
X011341Y001910D02*
X011114Y001910D01*
X011539Y001797D02*
X011653Y001797D01*
X011710Y001740D01*
X010609Y001797D02*
X010439Y001683D01*
X010609Y001570D01*
X010439Y001570D02*
X010439Y001910D01*
X010298Y001797D02*
X010128Y001797D01*
X010071Y001740D01*
X010071Y001627D01*
X010128Y001570D01*
X010298Y001570D01*
X009929Y001570D02*
X009759Y001570D01*
X009703Y001627D01*
X009759Y001683D01*
X009929Y001683D01*
X009929Y001740D02*
X009929Y001570D01*
X009504Y001627D02*
X009504Y001910D01*
X009448Y001910D02*
X009561Y001910D01*
X009759Y001797D02*
X009873Y001797D01*
X009929Y001740D01*
X009504Y001627D02*
X009448Y001570D01*
X009391Y001570D01*
X009334Y001627D01*
X008824Y001570D02*
X008654Y001570D01*
X008598Y001627D01*
X008598Y001797D01*
X008456Y001797D02*
X008399Y001740D01*
X008229Y001740D01*
X008229Y001570D02*
X008229Y001910D01*
X008399Y001910D01*
X008456Y001854D01*
X008456Y001797D01*
X008399Y001740D02*
X008456Y001683D01*
X008456Y001627D01*
X008399Y001570D01*
X008229Y001570D01*
X008711Y001457D02*
X008768Y001457D01*
X008824Y001513D01*
X008824Y001797D01*
D12*
X008487Y002208D02*
X008487Y002559D01*
X008662Y002559D01*
X008720Y002500D01*
X008720Y002383D01*
X008662Y002325D01*
X008487Y002325D01*
X008346Y002325D02*
X008287Y002383D01*
X008287Y002617D01*
X008229Y002559D02*
X008346Y002559D01*
X008088Y002559D02*
X007971Y002559D01*
X008029Y002617D02*
X008029Y002383D01*
X008088Y002325D01*
X007818Y002325D02*
X007818Y002500D01*
X007759Y002559D01*
X007643Y002559D01*
X007584Y002500D01*
X007584Y002675D02*
X007584Y002325D01*
X008873Y002325D02*
X008873Y002383D01*
X008932Y002383D01*
X008932Y002325D01*
X008873Y002325D01*
X008873Y002500D02*
X008873Y002559D01*
X008932Y002559D01*
X008932Y002500D01*
X008873Y002500D01*
X009067Y002325D02*
X009300Y002675D01*
X009453Y002325D02*
X009687Y002675D01*
X009957Y002675D02*
X009957Y002734D01*
X009957Y002559D02*
X009957Y002267D01*
X009899Y002208D01*
X009840Y002208D01*
X010098Y002383D02*
X010156Y002442D01*
X010332Y002442D01*
X010332Y002500D02*
X010332Y002325D01*
X010156Y002325D01*
X010098Y002383D01*
X010273Y002559D02*
X010332Y002500D01*
X010273Y002559D02*
X010156Y002559D01*
X010485Y002500D02*
X010485Y002383D01*
X010543Y002325D01*
X010718Y002325D01*
X010871Y002325D02*
X010871Y002675D01*
X010718Y002559D02*
X010543Y002559D01*
X010485Y002500D01*
X010871Y002442D02*
X011047Y002325D01*
X011194Y002325D02*
X011369Y002325D01*
X011427Y002383D01*
X011369Y002442D01*
X011252Y002442D01*
X011194Y002500D01*
X011252Y002559D01*
X011427Y002559D01*
X011580Y002675D02*
X011639Y002675D01*
X011639Y002325D01*
X011697Y002325D02*
X011580Y002325D01*
X011838Y002383D02*
X011897Y002442D01*
X012072Y002442D01*
X012072Y002500D02*
X012072Y002325D01*
X011897Y002325D01*
X011838Y002383D01*
X012013Y002559D02*
X012072Y002500D01*
X012013Y002559D02*
X011897Y002559D01*
X012225Y002559D02*
X012400Y002559D01*
X012459Y002500D01*
X012459Y002383D01*
X012400Y002325D01*
X012225Y002325D01*
X012225Y002675D01*
X012805Y002500D02*
X012805Y002383D01*
X012864Y002325D01*
X012980Y002325D01*
X013039Y002383D01*
X013039Y002500D01*
X012980Y002559D01*
X012864Y002559D01*
X012805Y002500D01*
X012670Y002383D02*
X012612Y002383D01*
X012612Y002325D01*
X012670Y002325D01*
X012670Y002383D01*
X013192Y002325D02*
X013192Y002559D01*
X013309Y002559D02*
X013367Y002559D01*
X013309Y002559D02*
X013192Y002442D01*
X013514Y002500D02*
X013514Y002383D01*
X013573Y002325D01*
X013748Y002325D01*
X013748Y002267D02*
X013748Y002559D01*
X013573Y002559D01*
X013514Y002500D01*
X013748Y002267D02*
X013689Y002208D01*
X013631Y002208D01*
X011047Y002559D02*
X010871Y002442D01*
D13*
X012514Y003595D02*
X012514Y003865D01*
X012649Y003865D01*
X012694Y003820D01*
X012694Y003730D01*
X012649Y003685D01*
X012514Y003685D01*
X012604Y003685D02*
X012694Y003595D01*
X012809Y003595D02*
X012989Y003595D01*
X012899Y003595D02*
X012899Y003865D01*
X012809Y003775D01*
X013714Y003830D02*
X013714Y003650D01*
X013759Y003605D01*
X013849Y003605D01*
X013894Y003650D01*
X014009Y003740D02*
X014189Y003740D01*
X014144Y003605D02*
X014144Y003875D01*
X014009Y003740D01*
X013894Y003830D02*
X013849Y003875D01*
X013759Y003875D01*
X013714Y003830D01*
X014824Y003885D02*
X014824Y003615D01*
X014824Y003705D02*
X014959Y003705D01*
X015004Y003750D01*
X015004Y003840D01*
X014959Y003885D01*
X014824Y003885D01*
X015119Y003840D02*
X015164Y003885D01*
X015254Y003885D01*
X015299Y003840D01*
X015299Y003795D01*
X015119Y003615D01*
X015299Y003615D01*
X015004Y003615D02*
X014914Y003705D01*
X014144Y005065D02*
X014054Y005065D01*
X014009Y005110D01*
X013894Y005065D02*
X013804Y005155D01*
X013849Y005155D02*
X013714Y005155D01*
X013714Y005065D02*
X013714Y005335D01*
X013849Y005335D01*
X013894Y005290D01*
X013894Y005200D01*
X013849Y005155D01*
X014009Y005290D02*
X014054Y005335D01*
X014144Y005335D01*
X014189Y005290D01*
X014189Y005245D01*
X014144Y005200D01*
X014189Y005155D01*
X014189Y005110D01*
X014144Y005065D01*
X014144Y005200D02*
X014099Y005200D01*
X020854Y003200D02*
X020854Y003020D01*
X020899Y002975D01*
X020989Y002975D01*
X021034Y003020D01*
X021149Y003020D02*
X021194Y002975D01*
X021284Y002975D01*
X021329Y003020D01*
X021329Y003065D01*
X021284Y003110D01*
X021239Y003110D01*
X021284Y003110D02*
X021329Y003155D01*
X021329Y003200D01*
X021284Y003245D01*
X021194Y003245D01*
X021149Y003200D01*
X021034Y003200D02*
X020989Y003245D01*
X020899Y003245D01*
X020854Y003200D01*
X021484Y003235D02*
X021484Y002965D01*
X021484Y003055D02*
X021619Y003055D01*
X021664Y003100D01*
X021664Y003190D01*
X021619Y003235D01*
X021484Y003235D01*
X021779Y003100D02*
X021959Y003100D01*
X021914Y002965D02*
X021914Y003235D01*
X021779Y003100D01*
X021664Y002965D02*
X021574Y003055D01*
X022104Y003045D02*
X022239Y003045D01*
X022284Y003090D01*
X022284Y003180D01*
X022239Y003225D01*
X022104Y003225D01*
X022104Y002955D01*
X022194Y003045D02*
X022284Y002955D01*
X022399Y003000D02*
X022444Y002955D01*
X022534Y002955D01*
X022579Y003000D01*
X022579Y003090D01*
X022534Y003135D01*
X022489Y003135D01*
X022399Y003090D01*
X022399Y003225D01*
X022579Y003225D01*
X022234Y001675D02*
X022234Y001405D01*
X022144Y001405D02*
X022324Y001405D01*
X022144Y001585D02*
X022234Y001675D01*
X021939Y001675D02*
X021849Y001585D01*
X021734Y001630D02*
X021734Y001540D01*
X021689Y001495D01*
X021554Y001495D01*
X021554Y001405D02*
X021554Y001675D01*
X021689Y001675D01*
X021734Y001630D01*
X021644Y001495D02*
X021734Y001405D01*
X021849Y001405D02*
X022029Y001405D01*
X021939Y001405D02*
X021939Y001675D01*
X021369Y001655D02*
X021279Y001610D01*
X021189Y001520D01*
X021324Y001520D01*
X021369Y001475D01*
X021369Y001430D01*
X021324Y001385D01*
X021234Y001385D01*
X021189Y001430D01*
X021189Y001520D01*
X021074Y001430D02*
X021029Y001385D01*
X020939Y001385D01*
X020894Y001430D01*
X020894Y001610D01*
X020939Y001655D01*
X021029Y001655D01*
X021074Y001610D01*
X027694Y001610D02*
X027739Y001565D01*
X027829Y001565D01*
X027874Y001610D01*
X027874Y001790D01*
X027829Y001835D01*
X027739Y001835D01*
X027694Y001790D01*
X027694Y001610D01*
X027784Y001655D02*
X027874Y001565D01*
X027989Y001565D02*
X028169Y001565D01*
X028079Y001565D02*
X028079Y001835D01*
X027989Y001745D01*
X029284Y001655D02*
X029419Y001655D01*
X029464Y001700D01*
X029464Y001790D01*
X029419Y001835D01*
X029284Y001835D01*
X029284Y001565D01*
X029374Y001655D02*
X029464Y001565D01*
X029579Y001610D02*
X029624Y001565D01*
X029714Y001565D01*
X029759Y001610D01*
X029759Y001655D01*
X029714Y001700D01*
X029579Y001700D01*
X029579Y001610D01*
X029579Y001700D02*
X029669Y001790D01*
X029759Y001835D01*
X030694Y001810D02*
X030694Y001630D01*
X030739Y001585D01*
X030829Y001585D01*
X030874Y001630D01*
X030874Y001810D01*
X030829Y001855D01*
X030739Y001855D01*
X030694Y001810D01*
X030784Y001675D02*
X030874Y001585D01*
X030989Y001720D02*
X031169Y001720D01*
X031124Y001585D02*
X031124Y001855D01*
X030989Y001720D01*
X032519Y003484D02*
X032699Y003664D01*
X032699Y003574D02*
X032519Y003574D01*
X032519Y003664D02*
X032699Y003484D01*
X032609Y003484D02*
X032609Y003664D01*
X032413Y003632D02*
X032126Y003632D01*
X032096Y003634D01*
X032066Y003639D01*
X032037Y003648D01*
X032010Y003661D01*
X031984Y003676D01*
X031960Y003695D01*
X031939Y003716D01*
X031920Y003740D01*
X031905Y003766D01*
X031892Y003793D01*
X031883Y003822D01*
X031878Y003852D01*
X031876Y003882D01*
X031876Y006138D01*
X031878Y006168D01*
X031883Y006198D01*
X031892Y006227D01*
X031905Y006254D01*
X031920Y006280D01*
X031939Y006304D01*
X031960Y006325D01*
X031984Y006344D01*
X032010Y006359D01*
X032037Y006372D01*
X032066Y006381D01*
X032096Y006386D01*
X032126Y006388D01*
X032413Y006388D01*
X032350Y006481D02*
X032395Y006526D01*
X032350Y006481D02*
X032260Y006481D01*
X032215Y006526D01*
X032215Y006706D01*
X032260Y006752D01*
X032350Y006752D01*
X032395Y006706D01*
X032510Y006661D02*
X032600Y006752D01*
X032600Y006481D01*
X032510Y006481D02*
X032690Y006481D01*
X032663Y006138D02*
X032663Y003882D01*
X032661Y003852D01*
X032656Y003822D01*
X032647Y003793D01*
X032634Y003766D01*
X032619Y003740D01*
X032600Y003716D01*
X032579Y003695D01*
X032555Y003676D01*
X032529Y003661D01*
X032502Y003648D01*
X032473Y003639D01*
X032443Y003634D01*
X032413Y003632D01*
X032407Y004484D02*
X032407Y004774D01*
X032257Y004624D02*
X032567Y004624D01*
X032663Y006138D02*
X032661Y006168D01*
X032656Y006198D01*
X032647Y006227D01*
X032634Y006254D01*
X032619Y006280D01*
X032600Y006304D01*
X032579Y006325D01*
X032555Y006344D01*
X032529Y006359D01*
X032502Y006372D01*
X032473Y006381D01*
X032443Y006386D01*
X032413Y006388D01*
X032101Y006526D02*
X032056Y006481D01*
X031965Y006481D01*
X031920Y006526D01*
X031965Y006616D02*
X032056Y006616D01*
X032101Y006571D01*
X032101Y006526D01*
X031965Y006616D02*
X031920Y006661D01*
X031920Y006706D01*
X031965Y006752D01*
X032056Y006752D01*
X032101Y006706D01*
X015284Y011090D02*
X015239Y011045D01*
X015149Y011045D01*
X015104Y011090D01*
X015104Y011270D01*
X015149Y011315D01*
X015239Y011315D01*
X015284Y011270D01*
X014989Y011270D02*
X014944Y011315D01*
X014854Y011315D01*
X014809Y011270D01*
X014809Y011090D01*
X014854Y011045D01*
X014944Y011045D01*
X014989Y011090D01*
X014694Y011135D02*
X014694Y011315D01*
X014514Y011315D02*
X014514Y011135D01*
X014604Y011045D01*
X014694Y011135D01*
X009214Y011170D02*
X009169Y011125D01*
X009034Y011125D01*
X009124Y011125D02*
X009214Y011035D01*
X009214Y011170D02*
X009214Y011260D01*
X009169Y011305D01*
X009034Y011305D01*
X009034Y011035D01*
X008829Y011035D02*
X008829Y011305D01*
X008739Y011305D02*
X008919Y011305D01*
X008624Y011260D02*
X008579Y011305D01*
X008444Y011305D01*
X008444Y011035D01*
X008579Y011035D01*
X008624Y011080D01*
X008624Y011260D01*
X009809Y009065D02*
X009764Y009020D01*
X009764Y008840D01*
X009809Y008795D01*
X009899Y008795D01*
X009944Y008840D01*
X010059Y008795D02*
X010239Y008795D01*
X010149Y008795D02*
X010149Y009065D01*
X010059Y008975D01*
X009944Y009020D02*
X009899Y009065D01*
X009809Y009065D01*
X003449Y007022D02*
X003139Y007022D01*
X003299Y007162D02*
X003299Y006872D01*
X002363Y004331D02*
X002363Y003347D01*
X002757Y002756D01*
X002363Y002756D02*
X002363Y001969D01*
D14*
X013949Y004150D02*
X013951Y004158D01*
X013956Y004165D01*
X013963Y004169D01*
X013971Y004170D01*
X013979Y004167D01*
X013985Y004162D01*
X013989Y004154D01*
X013989Y004146D01*
X013985Y004138D01*
X013979Y004133D01*
X013971Y004130D01*
X013963Y004131D01*
X013956Y004135D01*
X013951Y004142D01*
X013949Y004150D01*
X021067Y003843D02*
X021069Y003851D01*
X021074Y003858D01*
X021081Y003862D01*
X021089Y003863D01*
X021097Y003860D01*
X021103Y003855D01*
X021107Y003847D01*
X021107Y003839D01*
X021103Y003831D01*
X021097Y003826D01*
X021089Y003823D01*
X021081Y003824D01*
X021074Y003828D01*
X021069Y003835D01*
X021067Y003843D01*
X021069Y002300D02*
X021071Y002308D01*
X021076Y002315D01*
X021083Y002319D01*
X021091Y002320D01*
X021099Y002317D01*
X021105Y002312D01*
X021109Y002304D01*
X021109Y002296D01*
X021105Y002288D01*
X021099Y002283D01*
X021091Y002280D01*
X021083Y002281D01*
X021076Y002285D01*
X021071Y002292D01*
X021069Y002300D01*
X017664Y007070D02*
X017244Y007070D01*
X017034Y007280D01*
X017034Y007701D01*
X017244Y007911D01*
X017664Y007911D01*
X017874Y007701D01*
X017874Y007280D01*
X017664Y007070D01*
X016493Y007280D02*
X016493Y007701D01*
X016073Y007701D01*
X015112Y007701D02*
X014902Y007911D01*
X014481Y007911D01*
X014271Y007701D01*
X014271Y007280D01*
X014481Y007070D01*
X014902Y007070D01*
X015112Y007280D01*
X015112Y007701D01*
X015652Y008121D02*
X015652Y007280D01*
X015863Y007070D01*
X016283Y007070D01*
X016493Y007280D01*
X016493Y008121D02*
X016283Y008331D01*
X015863Y008331D01*
X015652Y008121D01*
X013731Y008121D02*
X013521Y008331D01*
X013100Y008331D01*
X012890Y008121D01*
X012890Y007280D01*
X013100Y007070D01*
X013521Y007070D01*
X013731Y007280D01*
X013731Y007701D01*
X013310Y007701D01*
X012179Y007911D02*
X012179Y007070D01*
X011969Y007070D02*
X012390Y007070D01*
X012179Y007911D02*
X011969Y007911D01*
X012179Y008331D02*
X012179Y008541D01*
X009949Y009650D02*
X009951Y009658D01*
X009956Y009665D01*
X009963Y009669D01*
X009971Y009670D01*
X009979Y009667D01*
X009985Y009662D01*
X009989Y009654D01*
X009989Y009646D01*
X009985Y009638D01*
X009979Y009633D01*
X009971Y009630D01*
X009963Y009631D01*
X009956Y009635D01*
X009951Y009642D01*
X009949Y009650D01*
D15*
X013962Y004813D03*
X012851Y004150D03*
X015089Y004150D03*
D16*
X021699Y003846D03*
X022335Y003847D03*
X021629Y002300D03*
X029469Y002650D03*
D17*
X025198Y004400D03*
X025351Y004565D03*
X024229Y004766D03*
X024158Y005026D03*
X024501Y005380D03*
X024737Y005380D03*
X025493Y005546D03*
X025776Y005640D03*
X025812Y005640D03*
X025871Y005640D03*
X025977Y005640D03*
X023272Y005841D03*
X022930Y005557D03*
X021891Y005640D03*
X021808Y005534D03*
X021690Y005640D03*
X021654Y005640D03*
X021572Y005640D03*
X022080Y005994D03*
X023851Y006680D03*
X022351Y005026D03*
X022363Y004884D03*
X021654Y004672D03*
X021583Y004400D03*
X022670Y004400D03*
X024135Y004400D03*
X023178Y008947D03*
X024560Y010140D03*
X023438Y010601D03*
X023379Y010601D03*
X023190Y010601D03*
X023131Y010601D03*
X023036Y010601D03*
X023001Y010601D03*
X021772Y010140D03*
D18*
X022889Y010601D03*
X022936Y010601D03*
X023231Y010601D03*
X024566Y006479D03*
X025487Y005829D03*
X026019Y005534D03*
X024459Y005380D03*
X024117Y005026D03*
X021755Y005640D03*
X021637Y005026D03*
X021530Y004884D03*
X021625Y004400D03*
X021767Y006479D03*
D19*
X022487Y006680D03*
X022263Y006786D03*
X024070Y006786D03*
X024070Y005994D03*
X024093Y005994D03*
X024117Y005994D03*
X024141Y005994D03*
X024164Y005994D03*
X024436Y005994D03*
X024459Y005994D03*
X024483Y005994D03*
X024507Y005994D03*
X024530Y005994D03*
X024696Y005994D03*
X024719Y005994D03*
X024743Y005994D03*
X024767Y005994D03*
X024790Y005994D03*
X024908Y005876D03*
X024932Y005876D03*
X025003Y005853D03*
X025345Y005876D03*
X025369Y005876D03*
X025841Y005640D03*
X025900Y005640D03*
X025924Y005640D03*
X025948Y005640D03*
X026007Y005640D03*
X026030Y005640D03*
X026054Y005640D03*
X026078Y005640D03*
X026101Y005640D03*
X025889Y005487D03*
X025889Y005369D03*
X025369Y005498D03*
X025333Y005498D03*
X025274Y005380D03*
X024790Y005380D03*
X024767Y005380D03*
X024707Y005380D03*
X024684Y005380D03*
X024530Y005380D03*
X024424Y005380D03*
X024247Y005369D03*
X024270Y005498D03*
X023704Y005498D03*
X023125Y005487D03*
X023101Y005487D03*
X023019Y005380D03*
X023137Y005628D03*
X023172Y005746D03*
X023278Y005829D03*
X023243Y005983D03*
X023692Y005876D03*
X023763Y005994D03*
X022357Y005994D03*
X022263Y005876D03*
X022133Y005994D03*
X022109Y005994D03*
X022050Y005994D03*
X022026Y005994D03*
X021070Y005876D03*
X021046Y005994D03*
X020940Y005994D03*
X020916Y005994D03*
X020893Y005994D03*
X020869Y005994D03*
X020845Y005994D03*
X020479Y005876D03*
X021105Y005498D03*
X021105Y005369D03*
X021672Y005487D03*
X021625Y005640D03*
X021601Y005640D03*
X021719Y005640D03*
X021790Y005640D03*
X021814Y005640D03*
X021837Y005640D03*
X021861Y005640D03*
X020467Y005369D03*
X021070Y005026D03*
X021152Y005026D03*
X021530Y004872D03*
X021554Y004766D03*
X021672Y004908D03*
X021672Y005026D03*
X021696Y005026D03*
X021601Y005026D03*
X021578Y005026D03*
X022074Y005026D03*
X022109Y005026D03*
X022617Y005026D03*
X022711Y005026D03*
X023479Y005026D03*
X024022Y004872D03*
X024046Y004766D03*
X023999Y004754D03*
X024188Y004908D03*
X024188Y005026D03*
X024081Y005026D03*
X024849Y004884D03*
X025239Y005026D03*
X025251Y004400D03*
X025227Y004400D03*
X025168Y004400D03*
X024093Y004518D03*
X022641Y004400D03*
X021696Y004518D03*
X021660Y004400D03*
X021247Y007920D03*
X021081Y008664D03*
X021141Y008676D03*
X021200Y008687D03*
X021270Y008699D03*
X021330Y008711D03*
X021389Y008723D03*
X023066Y008935D03*
X025180Y008676D03*
X025251Y008664D03*
X025333Y007967D03*
X025274Y007955D03*
X025144Y007931D03*
X024956Y007896D03*
X022676Y009951D03*
X022652Y009939D03*
X024377Y010022D03*
X023408Y010601D03*
X023349Y010601D03*
X023267Y010601D03*
X023160Y010601D03*
X022971Y010601D03*
D20*
X023083Y010601D03*
X023308Y010601D03*
X023851Y006691D03*
X022481Y006691D03*
X024997Y005865D03*
X022930Y005546D03*
X022304Y005026D03*
X022351Y004896D03*
X021111Y005026D03*
X024017Y004884D03*
X024843Y004896D03*
X025351Y004554D03*
X024087Y004400D03*
D21*
X024330Y004424D03*
X024330Y004447D03*
X024318Y004565D03*
X024330Y004577D03*
X024330Y004589D03*
X024330Y004613D03*
X024330Y004624D03*
X024330Y004648D03*
X024318Y004766D03*
X024330Y004778D03*
X024330Y004802D03*
X024330Y004813D03*
X024330Y004837D03*
X024589Y004825D03*
X024589Y004813D03*
X024589Y004802D03*
X024589Y004778D03*
X024589Y004766D03*
X024589Y004743D03*
X024589Y004719D03*
X024589Y004707D03*
X024589Y004683D03*
X024589Y004672D03*
X024589Y004660D03*
X024589Y004636D03*
X024589Y004624D03*
X024589Y004601D03*
X024589Y004577D03*
X024589Y004565D03*
X024589Y004554D03*
X024589Y004530D03*
X024589Y004518D03*
X024589Y004483D03*
X024589Y004471D03*
X024589Y004447D03*
X024589Y004435D03*
X024589Y004424D03*
X025026Y004565D03*
X025026Y004577D03*
X025038Y004554D03*
X025003Y004636D03*
X025015Y004825D03*
X025026Y004849D03*
X025026Y004861D03*
X025038Y004872D03*
X025381Y004825D03*
X025393Y004790D03*
X024589Y004967D03*
X024589Y004991D03*
X024589Y005002D03*
X024589Y005014D03*
X024034Y004908D03*
X023810Y004979D03*
X023810Y004991D03*
X023810Y005002D03*
X023798Y004967D03*
X023798Y004955D03*
X023798Y004943D03*
X023786Y004920D03*
X023786Y004908D03*
X023786Y004896D03*
X023774Y004884D03*
X023774Y004872D03*
X023763Y004837D03*
X023763Y004825D03*
X023751Y004790D03*
X023727Y004719D03*
X023172Y004707D03*
X023148Y004790D03*
X023137Y004825D03*
X023125Y004861D03*
X023125Y004872D03*
X023113Y004896D03*
X023113Y004908D03*
X023113Y004920D03*
X023101Y004931D03*
X023101Y004943D03*
X023101Y004955D03*
X023089Y004967D03*
X023089Y004979D03*
X023089Y004991D03*
X023078Y005014D03*
X022889Y004991D03*
X022889Y004967D03*
X022889Y005038D03*
X022889Y005073D03*
X022889Y005097D03*
X022877Y005109D03*
X022889Y005120D03*
X022889Y005144D03*
X022889Y005168D03*
X022877Y005180D03*
X022889Y005203D03*
X022889Y005262D03*
X022452Y005404D03*
X022440Y005416D03*
X022452Y005534D03*
X022440Y005546D03*
X022452Y005581D03*
X022440Y005593D03*
X022440Y005794D03*
X022440Y005806D03*
X022085Y005817D03*
X022085Y005794D03*
X022074Y005782D03*
X022074Y005758D03*
X022074Y005735D03*
X022074Y005711D03*
X022074Y005687D03*
X022074Y005664D03*
X022074Y005640D03*
X022074Y005617D03*
X022074Y005593D03*
X022074Y005569D03*
X022074Y005557D03*
X022074Y005522D03*
X022074Y005510D03*
X022074Y005487D03*
X022074Y005463D03*
X022074Y005416D03*
X022074Y005392D03*
X021495Y005534D03*
X021483Y005546D03*
X021483Y005557D03*
X021471Y005569D03*
X021471Y005593D03*
X021471Y005770D03*
X021483Y005806D03*
X021483Y005829D03*
X021495Y005841D03*
X021247Y005817D03*
X021247Y005806D03*
X021259Y005746D03*
X021259Y005723D03*
X021259Y005711D03*
X021259Y005687D03*
X021259Y005664D03*
X021259Y005652D03*
X021259Y005640D03*
X021259Y005605D03*
X021247Y005593D03*
X020893Y005593D03*
X020893Y005605D03*
X020893Y005617D03*
X020881Y005628D03*
X020893Y005640D03*
X020893Y005664D03*
X020893Y005687D03*
X020893Y005711D03*
X020893Y005746D03*
X020893Y005758D03*
X020893Y005770D03*
X020893Y005782D03*
X020893Y005794D03*
X020893Y005806D03*
X020893Y005959D03*
X020644Y005817D03*
X020644Y005806D03*
X020656Y005782D03*
X020656Y005758D03*
X020656Y005746D03*
X020656Y005723D03*
X020656Y005711D03*
X020656Y005687D03*
X020656Y005664D03*
X020656Y005640D03*
X020656Y005628D03*
X020656Y005605D03*
X020656Y005593D03*
X020644Y005569D03*
X020644Y005557D03*
X020893Y005581D03*
X020893Y005404D03*
X020881Y005392D03*
X020893Y005380D03*
X020893Y005357D03*
X020893Y005309D03*
X020893Y005274D03*
X020881Y005250D03*
X020893Y005239D03*
X020893Y005227D03*
X020893Y005203D03*
X020893Y005180D03*
X020893Y005156D03*
X020893Y005132D03*
X020893Y005109D03*
X020893Y005085D03*
X020893Y005050D03*
X020893Y005038D03*
X020893Y005002D03*
X020893Y004979D03*
X020893Y004837D03*
X020893Y004825D03*
X020893Y004813D03*
X020893Y004802D03*
X020893Y004778D03*
X020893Y004754D03*
X020893Y004731D03*
X020893Y004707D03*
X020893Y004683D03*
X020893Y004660D03*
X020893Y004636D03*
X020881Y004624D03*
X020893Y004613D03*
X020893Y004577D03*
X020893Y004554D03*
X020893Y004530D03*
X020893Y004506D03*
X020881Y004494D03*
X020893Y004471D03*
X020893Y004435D03*
X020893Y004412D03*
X021259Y004424D03*
X021259Y004447D03*
X021259Y004471D03*
X021259Y004483D03*
X021259Y004506D03*
X021259Y004530D03*
X021259Y004542D03*
X021259Y004565D03*
X021259Y004589D03*
X021259Y004613D03*
X021259Y004624D03*
X021259Y004648D03*
X021259Y004660D03*
X021259Y004683D03*
X021259Y004707D03*
X021259Y004719D03*
X021259Y004743D03*
X021259Y004766D03*
X021259Y004778D03*
X021259Y004802D03*
X021247Y004813D03*
X021259Y004825D03*
X021247Y004837D03*
X021542Y004908D03*
X021826Y004872D03*
X021837Y004861D03*
X021837Y004849D03*
X021837Y004837D03*
X021837Y004813D03*
X021837Y004802D03*
X022097Y004802D03*
X022097Y004813D03*
X022097Y004825D03*
X022109Y004837D03*
X022097Y004778D03*
X022097Y004766D03*
X022097Y004754D03*
X022097Y004743D03*
X022097Y004719D03*
X022097Y004707D03*
X022097Y004683D03*
X022097Y004672D03*
X022097Y004648D03*
X022097Y004624D03*
X022097Y004613D03*
X022097Y004589D03*
X022097Y004565D03*
X022097Y004554D03*
X022097Y004530D03*
X022097Y004506D03*
X022097Y004483D03*
X022097Y004471D03*
X022097Y004447D03*
X022097Y004424D03*
X021837Y004424D03*
X021837Y004435D03*
X021826Y004554D03*
X021837Y004565D03*
X021837Y004577D03*
X021837Y004601D03*
X021837Y004613D03*
X021837Y004636D03*
X021837Y004648D03*
X021483Y004648D03*
X021471Y004636D03*
X021471Y004554D03*
X021483Y004542D03*
X022522Y004601D03*
X022522Y004613D03*
X022522Y004624D03*
X022522Y004660D03*
X022522Y004672D03*
X022522Y004719D03*
X022511Y004731D03*
X022522Y004766D03*
X022522Y004802D03*
X022522Y004813D03*
X022522Y004825D03*
X022522Y004849D03*
X022877Y004837D03*
X022877Y004825D03*
X022877Y004802D03*
X022889Y004790D03*
X022877Y004766D03*
X022889Y004754D03*
X022889Y004719D03*
X022889Y004707D03*
X022889Y004683D03*
X022877Y004672D03*
X022889Y004660D03*
X022877Y004636D03*
X022877Y004601D03*
X022877Y004589D03*
X022889Y004447D03*
X022889Y004424D03*
X023267Y004435D03*
X023267Y004447D03*
X023633Y004447D03*
X023633Y004435D03*
X023633Y004424D03*
X022097Y004967D03*
X022097Y004979D03*
X022097Y005002D03*
X022097Y005014D03*
X023302Y005534D03*
X023302Y005546D03*
X023302Y005569D03*
X023302Y005593D03*
X023503Y005605D03*
X023503Y005617D03*
X023503Y005652D03*
X023503Y005664D03*
X023503Y005687D03*
X023503Y005711D03*
X023503Y005723D03*
X023503Y005746D03*
X023503Y005770D03*
X023503Y005782D03*
X023515Y005806D03*
X023515Y005817D03*
X023869Y005817D03*
X023881Y005782D03*
X023881Y005770D03*
X023881Y005758D03*
X023881Y005746D03*
X023881Y005723D03*
X023881Y005687D03*
X023881Y005664D03*
X023881Y005640D03*
X023881Y005617D03*
X023881Y005605D03*
X023881Y005593D03*
X023869Y005557D03*
X023857Y005534D03*
X024117Y005569D03*
X024117Y005581D03*
X024117Y005593D03*
X024117Y005605D03*
X024117Y005628D03*
X024117Y005652D03*
X024117Y005664D03*
X024117Y005699D03*
X024117Y005711D03*
X024117Y005746D03*
X024117Y005770D03*
X024117Y005794D03*
X024117Y005817D03*
X024117Y005841D03*
X024117Y005865D03*
X024117Y005888D03*
X024117Y005912D03*
X024117Y005935D03*
X024117Y005959D03*
X024117Y005983D03*
X024483Y005983D03*
X024483Y005971D03*
X024483Y005947D03*
X024483Y005935D03*
X024483Y005912D03*
X024483Y005900D03*
X024483Y005888D03*
X024483Y005841D03*
X024483Y005829D03*
X024483Y005806D03*
X024483Y005782D03*
X024483Y005758D03*
X024483Y005746D03*
X024483Y005699D03*
X024483Y005676D03*
X024483Y005652D03*
X024483Y005628D03*
X024483Y005617D03*
X024483Y005605D03*
X024483Y005581D03*
X024471Y005569D03*
X024483Y005428D03*
X024483Y005416D03*
X024483Y005392D03*
X024259Y005380D03*
X024743Y005392D03*
X024743Y005416D03*
X024743Y005428D03*
X024743Y005439D03*
X024743Y005463D03*
X024743Y005475D03*
X024743Y005487D03*
X024743Y005510D03*
X024743Y005522D03*
X024743Y005569D03*
X024743Y005593D03*
X024743Y005605D03*
X024743Y005628D03*
X024743Y005652D03*
X024743Y005664D03*
X024743Y005676D03*
X024743Y005699D03*
X024743Y005723D03*
X024743Y005735D03*
X024743Y005758D03*
X024743Y005770D03*
X024743Y005782D03*
X024743Y005794D03*
X024743Y005806D03*
X024755Y005817D03*
X024743Y005935D03*
X024743Y005947D03*
X024743Y005971D03*
X024743Y005983D03*
X025144Y005770D03*
X025156Y005782D03*
X025156Y005794D03*
X025168Y005806D03*
X025144Y005746D03*
X025144Y005735D03*
X025144Y005723D03*
X025144Y005699D03*
X025144Y005676D03*
X025144Y005652D03*
X025144Y005617D03*
X025156Y005593D03*
X025156Y005581D03*
X025168Y005557D03*
X025676Y005605D03*
X025688Y005569D03*
X025688Y005557D03*
X025700Y005546D03*
X025700Y005534D03*
X026007Y005498D03*
X026054Y005746D03*
X026054Y005770D03*
X026054Y005782D03*
X026054Y005794D03*
X026042Y005806D03*
X026042Y005817D03*
X025700Y005841D03*
X025688Y005817D03*
X025688Y005806D03*
X025676Y005770D03*
X025676Y005746D03*
X025487Y005865D03*
X025357Y005994D03*
X024554Y006514D03*
X023881Y006727D03*
X022452Y006727D03*
X021778Y006514D03*
X021660Y005994D03*
X022074Y005971D03*
X022074Y005947D03*
X021837Y005817D03*
X021837Y005806D03*
X021837Y005794D03*
X021849Y005782D03*
X021849Y005758D03*
X021849Y005746D03*
X022948Y005782D03*
X022948Y005794D03*
X022948Y005806D03*
X022948Y005829D03*
X022948Y005841D03*
X022959Y005853D03*
X023503Y005581D03*
X023515Y005569D03*
X023515Y005557D03*
X023526Y005534D03*
X020290Y005557D03*
X020290Y005569D03*
X020278Y005581D03*
X020278Y005605D03*
X020278Y005628D03*
X020278Y005652D03*
X020278Y005676D03*
X020278Y005699D03*
X020278Y005723D03*
X020278Y005746D03*
X020278Y005758D03*
X020278Y005782D03*
X020278Y005794D03*
X020290Y005806D03*
X020290Y005817D03*
X024554Y010105D03*
D22*
X021784Y010105D03*
X023686Y005994D03*
X024111Y005971D03*
X024111Y005947D03*
X024111Y005924D03*
X024111Y005900D03*
X024111Y005876D03*
X024111Y005853D03*
X024111Y005829D03*
X024111Y005806D03*
X024111Y005782D03*
X024111Y005758D03*
X024111Y005735D03*
X024111Y005723D03*
X024111Y005687D03*
X024111Y005676D03*
X024111Y005640D03*
X024111Y005617D03*
X023887Y005628D03*
X023887Y005652D03*
X023887Y005676D03*
X023887Y005699D03*
X023887Y005711D03*
X023887Y005735D03*
X023875Y005794D03*
X023509Y005794D03*
X023509Y005758D03*
X023497Y005735D03*
X023497Y005699D03*
X023497Y005676D03*
X023497Y005640D03*
X023509Y005628D03*
X023509Y005593D03*
X023308Y005581D03*
X023308Y005557D03*
X022942Y005817D03*
X022446Y005770D03*
X022446Y005758D03*
X022446Y005746D03*
X022446Y005735D03*
X022446Y005711D03*
X022446Y005699D03*
X022446Y005676D03*
X022446Y005664D03*
X022446Y005652D03*
X022446Y005640D03*
X022446Y005617D03*
X022446Y005605D03*
X022446Y005569D03*
X022446Y005557D03*
X022446Y005522D03*
X022446Y005510D03*
X022446Y005487D03*
X022446Y005475D03*
X022446Y005463D03*
X022446Y005439D03*
X022446Y005428D03*
X022446Y005392D03*
X022446Y005380D03*
X022080Y005380D03*
X022080Y005404D03*
X022080Y005428D03*
X022080Y005451D03*
X022080Y005475D03*
X022080Y005498D03*
X022080Y005534D03*
X022080Y005546D03*
X022080Y005581D03*
X022080Y005605D03*
X022080Y005628D03*
X022080Y005652D03*
X022080Y005676D03*
X022080Y005699D03*
X022080Y005723D03*
X022080Y005746D03*
X022080Y005770D03*
X022080Y005935D03*
X022080Y005959D03*
X022080Y005983D03*
X021843Y005770D03*
X021477Y005794D03*
X021465Y005782D03*
X021465Y005758D03*
X021465Y005746D03*
X021477Y005817D03*
X021465Y005628D03*
X021465Y005617D03*
X021465Y005605D03*
X021477Y005581D03*
X021253Y005569D03*
X021253Y005617D03*
X021253Y005628D03*
X021253Y005676D03*
X021253Y005699D03*
X021253Y005735D03*
X021253Y005758D03*
X021253Y005782D03*
X020887Y005735D03*
X020887Y005723D03*
X020887Y005699D03*
X020887Y005676D03*
X020887Y005652D03*
X020662Y005652D03*
X020662Y005676D03*
X020662Y005699D03*
X020662Y005735D03*
X020650Y005770D03*
X020662Y005617D03*
X020650Y005581D03*
X020887Y005428D03*
X020887Y005416D03*
X020887Y005369D03*
X020887Y005345D03*
X020887Y005333D03*
X020887Y005321D03*
X020887Y005298D03*
X020887Y005286D03*
X020887Y005262D03*
X020887Y005215D03*
X020887Y005191D03*
X020887Y005168D03*
X020887Y005144D03*
X020887Y005120D03*
X020887Y005097D03*
X020887Y005073D03*
X020887Y005061D03*
X020887Y005026D03*
X020887Y005014D03*
X020887Y004991D03*
X020887Y004967D03*
X020887Y004790D03*
X020887Y004766D03*
X020887Y004743D03*
X020887Y004719D03*
X020887Y004695D03*
X020887Y004672D03*
X020887Y004648D03*
X020887Y004601D03*
X020887Y004589D03*
X020887Y004565D03*
X020887Y004542D03*
X020887Y004518D03*
X020887Y004483D03*
X020887Y004459D03*
X020887Y004447D03*
X020887Y004424D03*
X021253Y004435D03*
X021253Y004412D03*
X021253Y004459D03*
X021253Y004494D03*
X021253Y004518D03*
X021253Y004554D03*
X021253Y004577D03*
X021253Y004601D03*
X021253Y004636D03*
X021253Y004672D03*
X021253Y004695D03*
X021253Y004731D03*
X021253Y004754D03*
X021253Y004790D03*
X021831Y004778D03*
X021843Y004790D03*
X021843Y004825D03*
X021843Y004660D03*
X021843Y004589D03*
X021843Y004447D03*
X021843Y004412D03*
X022103Y004412D03*
X022103Y004435D03*
X022103Y004459D03*
X022103Y004494D03*
X022103Y004518D03*
X022103Y004577D03*
X022103Y004601D03*
X022103Y004636D03*
X022103Y004660D03*
X022103Y004731D03*
X022103Y004790D03*
X022103Y004991D03*
X022517Y004790D03*
X022517Y004778D03*
X022517Y004754D03*
X022517Y004743D03*
X022517Y004707D03*
X022517Y004695D03*
X022517Y004683D03*
X022517Y004648D03*
X022883Y004648D03*
X022883Y004695D03*
X022883Y004731D03*
X022883Y004743D03*
X022883Y004778D03*
X023131Y004837D03*
X023131Y004849D03*
X023119Y004884D03*
X023143Y004813D03*
X023143Y004802D03*
X023154Y004778D03*
X023154Y004766D03*
X023154Y004754D03*
X023166Y004743D03*
X023166Y004731D03*
X023166Y004719D03*
X023178Y004683D03*
X023190Y004660D03*
X023190Y004648D03*
X023190Y004636D03*
X023202Y004613D03*
X023202Y004601D03*
X023343Y004672D03*
X023556Y004660D03*
X023568Y004624D03*
X023698Y004613D03*
X023698Y004601D03*
X023709Y004648D03*
X023709Y004660D03*
X023709Y004672D03*
X023721Y004683D03*
X023721Y004707D03*
X023733Y004731D03*
X023745Y004743D03*
X023733Y004754D03*
X023745Y004766D03*
X023745Y004778D03*
X023757Y004802D03*
X023757Y004813D03*
X023769Y004849D03*
X023769Y004861D03*
X023792Y004931D03*
X023450Y004967D03*
X023450Y004979D03*
X023450Y004991D03*
X022883Y005002D03*
X022883Y004979D03*
X022883Y005026D03*
X022883Y005050D03*
X022883Y005061D03*
X022883Y005085D03*
X022883Y005132D03*
X022883Y005156D03*
X022883Y005191D03*
X022883Y005215D03*
X022883Y005239D03*
X022883Y005250D03*
X023875Y005581D03*
X024477Y005593D03*
X024477Y005640D03*
X024477Y005664D03*
X024477Y005687D03*
X024477Y005711D03*
X024489Y005723D03*
X024477Y005735D03*
X024477Y005770D03*
X024477Y005794D03*
X024477Y005817D03*
X024477Y005853D03*
X024489Y005865D03*
X024477Y005876D03*
X024477Y005924D03*
X024477Y005959D03*
X024737Y005959D03*
X024737Y005746D03*
X024737Y005711D03*
X024737Y005687D03*
X024737Y005640D03*
X024737Y005617D03*
X024737Y005581D03*
X024737Y005557D03*
X024749Y005546D03*
X024737Y005534D03*
X024737Y005498D03*
X024737Y005451D03*
X024737Y005404D03*
X024477Y005404D03*
X025139Y005640D03*
X025150Y005628D03*
X025150Y005605D03*
X025139Y005664D03*
X025139Y005687D03*
X025139Y005711D03*
X025150Y005758D03*
X025682Y005782D03*
X025682Y005794D03*
X025694Y005829D03*
X025670Y005628D03*
X025682Y005617D03*
X025682Y005593D03*
X025682Y005581D03*
X026060Y005758D03*
X025871Y005994D03*
X024583Y004979D03*
X024583Y004790D03*
X024583Y004754D03*
X024583Y004695D03*
X024583Y004648D03*
X024583Y004613D03*
X024583Y004542D03*
X024583Y004506D03*
X024595Y004494D03*
X024583Y004459D03*
X024583Y004412D03*
X024324Y004412D03*
X024324Y004435D03*
X024324Y004601D03*
X024324Y004636D03*
X024324Y004660D03*
X024324Y004790D03*
X024324Y004825D03*
X024324Y004849D03*
X024324Y004872D03*
X023957Y004636D03*
X023957Y004624D03*
X023957Y004613D03*
X023957Y004601D03*
X023946Y004589D03*
X023957Y004577D03*
X023957Y004565D03*
X023957Y004554D03*
X023261Y004424D03*
X022883Y004435D03*
X022883Y004412D03*
X022883Y004459D03*
X021465Y004565D03*
X021465Y004577D03*
X021465Y004589D03*
X021465Y004601D03*
X021465Y004613D03*
X021465Y004624D03*
X021111Y005380D03*
X020284Y005593D03*
X020284Y005617D03*
X020272Y005640D03*
X020272Y005664D03*
X020272Y005687D03*
X020272Y005711D03*
X020272Y005735D03*
X020284Y005770D03*
X020887Y005947D03*
X020887Y005971D03*
X025009Y004802D03*
X025009Y004790D03*
X025009Y004778D03*
X025020Y004837D03*
X025009Y004660D03*
X025009Y004648D03*
X025009Y004624D03*
X025009Y004613D03*
X025020Y004601D03*
X025020Y004589D03*
X025339Y004530D03*
X025387Y004778D03*
X025387Y004802D03*
X025375Y004837D03*
D23*
X025074Y004908D03*
X024613Y004884D03*
X024294Y004908D03*
X023456Y004896D03*
X023444Y004884D03*
X022865Y004542D03*
X023267Y004518D03*
X023633Y004518D03*
X023633Y004506D03*
X022558Y004896D03*
X021625Y004412D03*
X021211Y004896D03*
X020916Y004884D03*
X020916Y005510D03*
X021211Y005498D03*
X020916Y005865D03*
X021117Y005983D03*
X021790Y005876D03*
X022097Y005853D03*
X022404Y005865D03*
X022948Y005498D03*
X023550Y005865D03*
X023833Y005865D03*
X024152Y005510D03*
X024259Y005392D03*
X025204Y005510D03*
X025735Y005498D03*
X025995Y005487D03*
X025204Y005865D03*
X024956Y005983D03*
X024542Y006538D03*
X020609Y005865D03*
X025204Y004412D03*
D24*
X024324Y004554D03*
X024312Y004542D03*
X024135Y004766D03*
X023969Y004648D03*
X023969Y004542D03*
X023639Y004459D03*
X023261Y004459D03*
X022883Y004613D03*
X022883Y004624D03*
X022658Y004412D03*
X022540Y004565D03*
X022528Y004577D03*
X022528Y004589D03*
X022517Y004636D03*
X022528Y004837D03*
X022540Y004861D03*
X022883Y004813D03*
X022883Y005014D03*
X023083Y005002D03*
X023450Y004955D03*
X023450Y004943D03*
X023450Y004931D03*
X023816Y005014D03*
X024312Y004896D03*
X024312Y004884D03*
X024324Y004861D03*
X024595Y004861D03*
X024595Y004849D03*
X024595Y004837D03*
X025044Y004884D03*
X025056Y004896D03*
X025351Y004884D03*
X025363Y004872D03*
X025375Y004861D03*
X025375Y004849D03*
X025387Y004813D03*
X025363Y005380D03*
X025174Y005534D03*
X025174Y005546D03*
X025162Y005569D03*
X025162Y005817D03*
X025174Y005829D03*
X025186Y005841D03*
X025717Y005853D03*
X025717Y005865D03*
X026024Y005853D03*
X026036Y005841D03*
X026036Y005829D03*
X025682Y005640D03*
X025706Y005522D03*
X024477Y005557D03*
X024465Y005546D03*
X024135Y005534D03*
X024123Y005546D03*
X024123Y005557D03*
X023875Y005569D03*
X023863Y005546D03*
X023520Y005546D03*
X023296Y005522D03*
X023284Y005510D03*
X023296Y005605D03*
X023520Y005829D03*
X023237Y005876D03*
X022954Y005865D03*
X022954Y005770D03*
X022446Y005782D03*
X022434Y005817D03*
X022434Y005829D03*
X022446Y005723D03*
X022446Y005687D03*
X022446Y005628D03*
X022446Y005498D03*
X022446Y005451D03*
X022080Y005439D03*
X021796Y005498D03*
X021501Y005522D03*
X021253Y005581D03*
X021241Y005557D03*
X021241Y005546D03*
X021241Y005534D03*
X020898Y005546D03*
X020898Y005557D03*
X020898Y005569D03*
X020639Y005546D03*
X020627Y005522D03*
X020296Y005534D03*
X020296Y005546D03*
X020296Y005829D03*
X020639Y005829D03*
X020650Y005794D03*
X020898Y005817D03*
X020887Y005983D03*
X021241Y005829D03*
X021253Y005794D03*
X021253Y005770D03*
X021501Y005853D03*
X021513Y005865D03*
X021820Y005841D03*
X021831Y005829D03*
X022080Y005806D03*
X022942Y005510D03*
X022883Y005227D03*
X022103Y004849D03*
X021831Y004884D03*
X021820Y004896D03*
X021241Y004861D03*
X020898Y004849D03*
X021489Y004530D03*
X021831Y004542D03*
X023875Y005806D03*
X023863Y005829D03*
X020473Y005994D03*
D25*
X021117Y005994D03*
X022936Y005522D03*
X023444Y005002D03*
X023503Y004825D03*
X023515Y004813D03*
X023515Y004802D03*
X023515Y004790D03*
X023526Y004778D03*
X023526Y004766D03*
X023526Y004754D03*
X023526Y004743D03*
X023538Y004731D03*
X023538Y004719D03*
X023538Y004707D03*
X023550Y004695D03*
X023550Y004683D03*
X023550Y004672D03*
X023562Y004648D03*
X023562Y004636D03*
X023574Y004613D03*
X023574Y004601D03*
X023704Y004624D03*
X023704Y004636D03*
X023727Y004695D03*
X023385Y004790D03*
X023385Y004802D03*
X023385Y004825D03*
X023373Y004778D03*
X023373Y004766D03*
X023373Y004754D03*
X023361Y004743D03*
X023361Y004731D03*
X023361Y004719D03*
X023361Y004707D03*
X023349Y004695D03*
X023349Y004683D03*
X023337Y004660D03*
X023337Y004648D03*
X023337Y004636D03*
X023326Y004624D03*
X023326Y004613D03*
X023326Y004601D03*
X023196Y004624D03*
X023184Y004672D03*
X023172Y004695D03*
X023267Y004412D03*
X023633Y004412D03*
X024589Y004589D03*
X024589Y004731D03*
X025015Y004813D03*
X025487Y005510D03*
X025676Y005758D03*
X024967Y005994D03*
X024554Y006502D03*
X023869Y006715D03*
X022463Y006715D03*
X022097Y004695D03*
X022097Y004542D03*
X021837Y004624D03*
D26*
X021808Y004518D03*
X021513Y004518D03*
X022564Y004530D03*
X022847Y004896D03*
X023261Y004542D03*
X023261Y004530D03*
X023639Y004530D03*
X023639Y004542D03*
X024005Y004672D03*
X023450Y004861D03*
X023450Y004872D03*
X024111Y004412D03*
X024288Y004518D03*
X025080Y004518D03*
X025363Y004672D03*
X025328Y004908D03*
X025198Y005014D03*
X024619Y004896D03*
X024454Y005510D03*
X024158Y005498D03*
X023816Y005498D03*
X023568Y005498D03*
X024772Y005865D03*
X025221Y005498D03*
X022304Y005983D03*
X022115Y005865D03*
X021784Y005487D03*
X021111Y005392D03*
X020591Y005498D03*
X020343Y005498D03*
X020591Y005876D03*
X020910Y005853D03*
X021784Y006538D03*
X022434Y006750D03*
X023898Y006750D03*
X021796Y004908D03*
X020922Y004896D03*
X021784Y010081D03*
D27*
X021796Y010057D03*
X024548Y010057D03*
X022127Y005876D03*
X022965Y005487D03*
X021678Y005392D03*
X021111Y005404D03*
X021111Y004991D03*
X020946Y004908D03*
X021619Y004424D03*
X022587Y004908D03*
X022835Y004908D03*
X024111Y004424D03*
X025056Y004766D03*
X025198Y005002D03*
D28*
X023692Y005392D03*
X023255Y005628D03*
X023574Y005876D03*
X023692Y005983D03*
X023810Y005876D03*
X025227Y005876D03*
X025357Y005983D03*
X025865Y005983D03*
X022664Y005002D03*
X022322Y005002D03*
X022133Y004896D03*
X021530Y004672D03*
X022664Y004424D03*
X022841Y004530D03*
X023267Y004554D03*
X023633Y004554D03*
X023633Y004565D03*
X021660Y005983D03*
X021200Y005876D03*
X021778Y010069D03*
D29*
X022416Y006774D03*
X021790Y006561D03*
X022298Y005959D03*
X023692Y005971D03*
X023113Y005392D03*
X022664Y004991D03*
X022322Y004991D03*
X024814Y004991D03*
X025215Y004424D03*
X025865Y005971D03*
X024542Y006561D03*
X023916Y006774D03*
D30*
X025871Y005959D03*
X025883Y005404D03*
X024146Y005002D03*
X021654Y005002D03*
X021111Y005428D03*
X021111Y005947D03*
X021654Y005959D03*
X021619Y004447D03*
X021619Y004435D03*
D31*
X021790Y004672D03*
X021188Y004908D03*
X021648Y005014D03*
X022664Y004435D03*
X023267Y004589D03*
X023633Y004589D03*
X024141Y005014D03*
X025062Y004672D03*
X025357Y005392D03*
X025877Y005392D03*
X024436Y005498D03*
X024259Y005404D03*
X023113Y005983D03*
X022298Y005971D03*
X021105Y005971D03*
X020940Y005876D03*
D32*
X021111Y005959D03*
X021654Y005971D03*
X020461Y005971D03*
X021111Y005416D03*
X022316Y004979D03*
X023686Y005404D03*
X023024Y005746D03*
X024950Y005935D03*
X024961Y005959D03*
X025351Y005971D03*
X024796Y004967D03*
X024111Y004435D03*
D33*
X025221Y004435D03*
X025198Y004979D03*
X025351Y005416D03*
X025351Y005959D03*
X024536Y006585D03*
X023119Y005971D03*
X022304Y005935D03*
X023107Y005404D03*
X022658Y004967D03*
X021111Y004967D03*
X024548Y010022D03*
D34*
X024542Y010046D03*
X021790Y010046D03*
X022416Y006786D03*
X021790Y006573D03*
X023916Y006786D03*
X024542Y006573D03*
X024956Y005947D03*
X025357Y005404D03*
X025204Y004991D03*
X024802Y004979D03*
X025322Y004766D03*
X024247Y004672D03*
X022664Y004447D03*
X022664Y004979D03*
X022310Y004967D03*
X021105Y004979D03*
X020467Y005404D03*
X024259Y005416D03*
X024259Y005428D03*
D35*
X023692Y005416D03*
X023692Y005959D03*
X022298Y005947D03*
X021672Y005404D03*
X020467Y005416D03*
X020467Y005959D03*
X021790Y006585D03*
X022664Y004459D03*
X024105Y004447D03*
X024530Y010034D03*
X021790Y010034D03*
D36*
X021796Y010022D03*
X021796Y006597D03*
X024536Y006597D03*
X023698Y005428D03*
X025198Y004967D03*
X025209Y004447D03*
X021654Y004991D03*
D37*
X021678Y004707D03*
X021678Y004459D03*
X022729Y004471D03*
X022717Y004943D03*
X024158Y004695D03*
X024170Y004719D03*
X024324Y005451D03*
X024312Y005463D03*
X025351Y005487D03*
X025351Y005888D03*
X024524Y006644D03*
X023131Y005912D03*
X022245Y005912D03*
X021052Y005912D03*
X021052Y005924D03*
X021052Y005451D03*
X021052Y004955D03*
X021052Y004943D03*
X021808Y006644D03*
D38*
X021046Y005935D03*
X020467Y005487D03*
X021046Y005439D03*
X021672Y005475D03*
X021660Y004931D03*
X021684Y004731D03*
X021684Y004719D03*
X022723Y004955D03*
X023101Y005451D03*
X023692Y005487D03*
X024318Y005439D03*
X025357Y005475D03*
X025889Y005475D03*
X025357Y005900D03*
X023125Y005900D03*
X023113Y005888D03*
X022723Y004483D03*
X024164Y004459D03*
X025215Y004494D03*
X025215Y004506D03*
X024530Y009975D03*
X021802Y009975D03*
D39*
X021802Y006609D03*
X021660Y005924D03*
X020467Y005924D03*
X020467Y005935D03*
X021672Y005428D03*
X021648Y004979D03*
X022215Y004908D03*
X023692Y005451D03*
X023089Y005723D03*
X024530Y006609D03*
X025357Y005935D03*
X025357Y005439D03*
X025204Y004955D03*
X024707Y004920D03*
X025215Y004459D03*
D40*
X024164Y004471D03*
X024152Y004483D03*
X024164Y004707D03*
X022711Y004518D03*
X022711Y004494D03*
X022711Y004920D03*
X021660Y004695D03*
X021660Y004494D03*
X021672Y004483D03*
X021672Y004471D03*
X021058Y004931D03*
X021058Y005463D03*
X021058Y005475D03*
X021058Y005900D03*
X022239Y005924D03*
X022251Y005900D03*
X022251Y005888D03*
X024306Y005487D03*
X021814Y009963D03*
D41*
X021778Y010093D03*
X024554Y010093D03*
X024554Y006526D03*
X025192Y005853D03*
X024755Y005841D03*
X024755Y005829D03*
X024459Y005522D03*
X023857Y005841D03*
X023845Y005853D03*
X023538Y005853D03*
X023526Y005841D03*
X023290Y005617D03*
X023538Y005522D03*
X023692Y005380D03*
X022428Y005841D03*
X022097Y005841D03*
X022085Y005829D03*
X021814Y005853D03*
X021802Y005865D03*
X021235Y005841D03*
X021471Y005640D03*
X021507Y005510D03*
X021223Y005510D03*
X020904Y005534D03*
X020633Y005534D03*
X020467Y005380D03*
X020314Y005522D03*
X020302Y005841D03*
X020314Y005853D03*
X020621Y005853D03*
X020633Y005841D03*
X020904Y005841D03*
X020904Y005829D03*
X022971Y005876D03*
X021778Y006526D03*
X025192Y005522D03*
X025723Y005510D03*
X025889Y005380D03*
X025735Y005876D03*
X022877Y004849D03*
X022865Y004861D03*
X022546Y004884D03*
X022534Y004872D03*
X022322Y005014D03*
X022109Y004861D03*
X021826Y004766D03*
X021495Y004660D03*
X021247Y004849D03*
X021235Y004872D03*
X021105Y005014D03*
X020904Y004872D03*
X022534Y004554D03*
X022877Y004565D03*
X022877Y004577D03*
X023267Y004483D03*
X023267Y004471D03*
X023633Y004471D03*
X023633Y004494D03*
X023975Y004530D03*
X023987Y004660D03*
X024318Y004530D03*
X025050Y004542D03*
X025062Y004530D03*
D42*
X025215Y004471D03*
X024719Y004943D03*
X024719Y004955D03*
X024141Y004967D03*
X023113Y005428D03*
X023692Y005463D03*
X023113Y005711D03*
X023692Y005912D03*
X024873Y005924D03*
X025357Y005924D03*
X025357Y005451D03*
X025889Y005439D03*
X024530Y006620D03*
X021802Y006620D03*
X021660Y005912D03*
X020467Y005912D03*
X020467Y005463D03*
X022227Y004943D03*
X021707Y004754D03*
X021802Y009998D03*
X024530Y009998D03*
D43*
X024548Y010081D03*
X023887Y006739D03*
X022446Y006739D03*
X023119Y005994D03*
X022977Y005758D03*
X022422Y005853D03*
X021524Y005876D03*
X021229Y005853D03*
X021217Y005865D03*
X020331Y005865D03*
X020320Y005510D03*
X020615Y005510D03*
X020910Y005522D03*
X021229Y005522D03*
X021524Y005498D03*
X021678Y005380D03*
X022658Y005014D03*
X022859Y004884D03*
X022871Y004872D03*
X022859Y004554D03*
X022552Y004542D03*
X022127Y004884D03*
X022115Y004872D03*
X021654Y004766D03*
X021820Y004530D03*
X021229Y004884D03*
X020898Y004861D03*
X023119Y005380D03*
X023272Y005498D03*
X023544Y005510D03*
X023839Y005510D03*
X023851Y005522D03*
X024135Y005522D03*
X024465Y005534D03*
X024761Y005853D03*
X025469Y005876D03*
X026001Y005876D03*
X026013Y005865D03*
X025469Y005498D03*
X024808Y005014D03*
X024607Y004872D03*
X025339Y004896D03*
X025339Y004518D03*
X023993Y004518D03*
X023639Y004483D03*
X023261Y004494D03*
X023261Y004506D03*
X023450Y004908D03*
X023450Y004920D03*
D44*
X024141Y004955D03*
X024164Y004920D03*
X025204Y004920D03*
X025215Y004483D03*
X025357Y005463D03*
X025357Y005912D03*
X025865Y005900D03*
X025865Y005888D03*
X024530Y006632D03*
X023692Y005900D03*
X023692Y005475D03*
X021660Y005888D03*
X021660Y005900D03*
X020467Y005900D03*
X020467Y005475D03*
X021672Y004920D03*
X021696Y004743D03*
X021802Y006632D03*
D45*
X021808Y006656D03*
X021064Y005888D03*
X021064Y005487D03*
X021064Y004920D03*
X021666Y004683D03*
X022717Y004506D03*
X022717Y004931D03*
X024158Y004683D03*
X024158Y004494D03*
X024312Y005475D03*
X024524Y006656D03*
X024524Y009963D03*
D46*
X023101Y005463D03*
X024152Y004506D03*
X021660Y004506D03*
D47*
X025345Y004542D03*
X025487Y005522D03*
X025487Y005853D03*
X024991Y005876D03*
X023857Y006703D03*
X022475Y006703D03*
D48*
X022434Y006762D03*
X021784Y006550D03*
X022387Y005876D03*
X021548Y005487D03*
X020934Y005498D03*
X020461Y005392D03*
X021111Y005002D03*
X023261Y004577D03*
X023261Y004565D03*
X023639Y004577D03*
X023450Y004837D03*
X023450Y004849D03*
X024808Y005002D03*
X025765Y005487D03*
X024961Y005971D03*
X024784Y005876D03*
X023249Y005487D03*
X020473Y005983D03*
X020343Y005876D03*
X023910Y006762D03*
X024548Y006550D03*
X024548Y010069D03*
D49*
X024560Y010128D03*
X024560Y006491D03*
X023272Y005853D03*
X022930Y005534D03*
X024017Y004896D03*
X024808Y005026D03*
X025186Y005026D03*
X025221Y004672D03*
X025493Y005841D03*
X021772Y006491D03*
D50*
X021654Y005723D03*
X021654Y005676D03*
X021654Y005652D03*
X023095Y005475D03*
X025198Y004754D03*
X025198Y004731D03*
X025198Y004707D03*
X025198Y004683D03*
D51*
X025198Y004695D03*
X025198Y004719D03*
X025198Y004743D03*
X021654Y005687D03*
X024513Y009939D03*
D52*
X023698Y005888D03*
X023131Y005924D03*
X023107Y005439D03*
X024146Y004943D03*
X024146Y004931D03*
X024182Y004731D03*
X025883Y005463D03*
X021678Y005463D03*
X020473Y005888D03*
X021654Y004943D03*
D53*
X021654Y004955D03*
X021654Y004967D03*
X021678Y005451D03*
X023119Y005699D03*
X023131Y005687D03*
X023131Y005935D03*
X025198Y004931D03*
X024182Y004743D03*
X025883Y005451D03*
X024524Y009987D03*
X021808Y009987D03*
D54*
X023131Y005947D03*
X023686Y005924D03*
X023154Y005664D03*
X023143Y005676D03*
X021678Y005439D03*
X022233Y004955D03*
X022221Y004931D03*
X020461Y005451D03*
X024206Y004754D03*
X024713Y004931D03*
X025198Y004943D03*
X024867Y005900D03*
X024867Y005912D03*
X025871Y005912D03*
D55*
X026013Y005510D03*
X023450Y005014D03*
X023391Y004813D03*
X021808Y005510D03*
X022292Y005994D03*
X023261Y005865D03*
X021772Y006502D03*
X021772Y010117D03*
X024560Y010117D03*
D56*
X021767Y010128D03*
X021802Y005522D03*
X022664Y005026D03*
X021530Y004896D03*
X025487Y005534D03*
X026019Y005522D03*
D57*
X025883Y005428D03*
X025871Y005924D03*
X024855Y005888D03*
X023698Y005935D03*
X023072Y005735D03*
X023107Y005416D03*
X023686Y005439D03*
X024146Y004979D03*
X024702Y004908D03*
X022221Y004920D03*
X020473Y005439D03*
X024536Y010010D03*
D58*
X021802Y010010D03*
X021660Y005935D03*
X023125Y005959D03*
X023172Y005652D03*
X024141Y004991D03*
X025357Y005428D03*
X025865Y005935D03*
D59*
X025865Y005947D03*
X025357Y005947D03*
X025889Y005416D03*
X023692Y005947D03*
X023196Y005640D03*
X021672Y005416D03*
X020467Y005428D03*
X020467Y005947D03*
X021660Y005947D03*
D60*
X021660Y005735D03*
X021660Y005711D03*
X021660Y005699D03*
X021660Y005664D03*
X021814Y006668D03*
X024519Y006668D03*
X025865Y005735D03*
X025865Y005723D03*
X025865Y005711D03*
X025865Y005699D03*
X025865Y005687D03*
X025865Y005676D03*
X025865Y005664D03*
X025865Y005652D03*
X024519Y009951D03*
X021814Y009951D03*
D61*
X021814Y009939D03*
X021814Y006680D03*
X024519Y006680D03*
D62*
X024513Y006691D03*
X021820Y006691D03*
D63*
X021820Y006703D03*
X024513Y006703D03*
X024513Y009916D03*
X021820Y009916D03*
D64*
X021826Y006715D03*
X024507Y006715D03*
D65*
X021831Y006727D03*
X024501Y009880D03*
X023166Y010494D03*
X023166Y010506D03*
X023166Y010518D03*
X023166Y010530D03*
X023166Y010554D03*
D66*
X023172Y010542D03*
X024507Y009892D03*
X021826Y009892D03*
X024507Y006727D03*
D67*
X021826Y006739D03*
X021826Y009880D03*
D68*
X023166Y010435D03*
X023166Y010447D03*
X023166Y010459D03*
X023166Y010471D03*
X023166Y010483D03*
X024501Y006739D03*
D69*
X024501Y006750D03*
X021831Y006750D03*
X024501Y009869D03*
X023166Y010376D03*
X023166Y010388D03*
X023166Y010412D03*
X023166Y010424D03*
D70*
X021837Y006762D03*
X024495Y006762D03*
D71*
X021837Y006774D03*
X021837Y009845D03*
X023172Y010235D03*
X024495Y009845D03*
D72*
X023166Y010246D03*
X023166Y010258D03*
X023166Y010270D03*
X023166Y010282D03*
X023166Y010306D03*
X024489Y006774D03*
D73*
X024495Y006786D03*
X021837Y006786D03*
X021837Y009833D03*
X023160Y010164D03*
X023172Y010176D03*
X024495Y009833D03*
D74*
X024341Y006798D03*
X021991Y006798D03*
D75*
X021985Y006809D03*
X024347Y006809D03*
D76*
X024347Y006821D03*
X024146Y007329D03*
X024135Y007341D03*
X024135Y007353D03*
X024123Y007365D03*
X024111Y007388D03*
X024099Y007424D03*
X022233Y007424D03*
X022209Y007365D03*
X022198Y007353D03*
X022198Y007341D03*
X021985Y006821D03*
D77*
X021979Y006833D03*
X022156Y007270D03*
X022168Y007294D03*
X022180Y007306D03*
X022180Y007317D03*
X022192Y007329D03*
X022227Y007435D03*
X024105Y007435D03*
X024152Y007317D03*
X024152Y007306D03*
X024164Y007294D03*
X024176Y007270D03*
X024353Y006833D03*
D78*
X024194Y007235D03*
X024182Y007258D03*
X024170Y007282D03*
X024099Y007447D03*
X024099Y007459D03*
X022233Y007459D03*
X022233Y007447D03*
X022162Y007282D03*
X022150Y007258D03*
X022139Y007235D03*
X021973Y006845D03*
D79*
X022121Y007199D03*
X022121Y007211D03*
X022133Y007223D03*
X022144Y007246D03*
X024105Y007471D03*
X024188Y007246D03*
X024200Y007223D03*
X024211Y007211D03*
X024353Y006845D03*
D80*
X024359Y006857D03*
X024241Y007152D03*
X024229Y007176D03*
X024217Y007187D03*
X024217Y007199D03*
X024099Y007483D03*
X022233Y007483D03*
X022233Y007471D03*
X022115Y007187D03*
X022103Y007176D03*
X022103Y007164D03*
X022091Y007152D03*
X021973Y006857D03*
X023166Y009904D03*
D81*
X022109Y008770D03*
X024247Y008746D03*
X024105Y007494D03*
X024235Y007164D03*
X024247Y007140D03*
X024259Y007128D03*
X024259Y007117D03*
X024365Y006869D03*
X022227Y007494D03*
X022085Y007140D03*
X022074Y007117D03*
X022062Y007105D03*
X021967Y006869D03*
D82*
X021967Y006880D03*
X022015Y007010D03*
X022026Y007034D03*
X022038Y007046D03*
X022038Y007057D03*
X022062Y007093D03*
X022109Y007837D03*
X022097Y007849D03*
X024223Y007837D03*
X024235Y007849D03*
X024270Y007884D03*
X024294Y007057D03*
X024294Y007046D03*
X024306Y007034D03*
X024365Y006880D03*
X024211Y008782D03*
X022121Y008782D03*
D83*
X022127Y008794D03*
X022139Y008806D03*
X024194Y008806D03*
X024206Y008794D03*
X024217Y007825D03*
X024206Y007813D03*
X024099Y007542D03*
X024099Y007530D03*
X024312Y007022D03*
X024324Y007010D03*
X024324Y006998D03*
X024371Y006892D03*
X022233Y007530D03*
X022233Y007542D03*
X022127Y007813D03*
X022115Y007825D03*
X022020Y007022D03*
X022009Y006998D03*
X021997Y006987D03*
X021961Y006892D03*
D84*
X021961Y006904D03*
X021973Y006928D03*
X021973Y006939D03*
X022233Y007565D03*
X022233Y007577D03*
X022139Y007802D03*
X024099Y007565D03*
X024194Y007802D03*
X024300Y007896D03*
X024288Y008723D03*
X024170Y008829D03*
X022162Y008829D03*
X022044Y008723D03*
X024359Y006939D03*
X024371Y006916D03*
D85*
X024365Y006928D03*
X024365Y006904D03*
X024353Y006951D03*
X024341Y006963D03*
X024341Y006975D03*
X024330Y006987D03*
X024105Y007554D03*
X022227Y007554D03*
X021991Y006975D03*
X021991Y006963D03*
X021979Y006951D03*
X021967Y006916D03*
X022144Y008817D03*
X024188Y008817D03*
X023160Y009892D03*
D86*
X024217Y008770D03*
X024229Y008758D03*
X024253Y008735D03*
X024253Y007872D03*
X024241Y007861D03*
X024099Y007518D03*
X024099Y007506D03*
X024265Y007105D03*
X024276Y007093D03*
X024276Y007081D03*
X024288Y007069D03*
X022233Y007506D03*
X022233Y007518D03*
X022091Y007861D03*
X022080Y007872D03*
X022068Y007884D03*
X022080Y007128D03*
X022056Y007081D03*
X022044Y007069D03*
X022080Y008735D03*
X022091Y008746D03*
X022103Y008758D03*
D87*
X023172Y009916D03*
X024105Y007412D03*
X024105Y007400D03*
X024117Y007376D03*
X022227Y007388D03*
X022227Y007400D03*
X022227Y007412D03*
X022215Y007376D03*
D88*
X022156Y007778D03*
X022144Y007790D03*
X022026Y007896D03*
X024105Y007589D03*
X024105Y007577D03*
X024176Y007778D03*
X024188Y007790D03*
X024164Y008841D03*
X022168Y008841D03*
D89*
X022186Y008853D03*
X024146Y008853D03*
X024099Y007613D03*
X024099Y007601D03*
X022233Y007601D03*
X022233Y007589D03*
D90*
X022227Y007613D03*
X022180Y007754D03*
X022168Y007766D03*
X024152Y007754D03*
X024164Y007766D03*
X022192Y008865D03*
D91*
X022009Y008711D03*
X024135Y008865D03*
X024324Y008711D03*
X024146Y007743D03*
X024099Y007624D03*
X022233Y007624D03*
X022233Y007636D03*
X022186Y007743D03*
X023166Y009880D03*
D92*
X022215Y008876D03*
X021991Y007908D03*
X024105Y007636D03*
X024341Y007908D03*
D93*
X024135Y007731D03*
X024123Y007719D03*
X024099Y007660D03*
X024099Y007648D03*
X022233Y007648D03*
X022233Y007660D03*
X022198Y007731D03*
X022221Y008888D03*
X024123Y008876D03*
D94*
X024105Y008888D03*
X022215Y007719D03*
X022227Y007672D03*
X024105Y007672D03*
D95*
X024099Y007683D03*
X024099Y007695D03*
X024111Y007707D03*
X022233Y007695D03*
X022233Y007683D03*
X022221Y007707D03*
X021973Y008699D03*
X023166Y009869D03*
D96*
X024076Y008912D03*
X024371Y007920D03*
X021961Y007920D03*
D97*
X021926Y007931D03*
X024406Y007931D03*
X024406Y008687D03*
X024052Y008924D03*
X022280Y008924D03*
D98*
X021885Y007943D03*
X024448Y007943D03*
D99*
X021849Y007955D03*
D100*
X024483Y007955D03*
X023160Y009833D03*
D101*
X021814Y007967D03*
D102*
X021820Y008652D03*
X024513Y007967D03*
X023166Y009821D03*
D103*
X023160Y009809D03*
X021790Y008640D03*
X021707Y008451D03*
X021707Y008439D03*
X021707Y008404D03*
X021696Y008380D03*
X021696Y008357D03*
X021696Y008321D03*
X021696Y008286D03*
X021696Y008239D03*
X021707Y008180D03*
X021707Y008156D03*
X021707Y008144D03*
X021778Y007979D03*
X024542Y008640D03*
X024625Y008451D03*
X024625Y008439D03*
X024637Y008369D03*
X024637Y008345D03*
X024637Y008309D03*
X024637Y008239D03*
X024637Y008215D03*
X024625Y008203D03*
X024625Y008168D03*
X024625Y008156D03*
X024625Y008144D03*
D104*
X024619Y008120D03*
X024619Y008109D03*
X024631Y008180D03*
X024560Y007979D03*
X024631Y008428D03*
X024631Y008463D03*
X024619Y008475D03*
X024619Y008487D03*
X021713Y008487D03*
X021713Y008498D03*
X021702Y008475D03*
X021713Y008463D03*
X021702Y008428D03*
X021702Y008191D03*
X021702Y008168D03*
X021713Y008120D03*
X021713Y008109D03*
D105*
X021725Y008026D03*
X021737Y008014D03*
X021737Y008002D03*
X021749Y007991D03*
X021725Y008593D03*
X021737Y008605D03*
X024595Y008605D03*
X024607Y008581D03*
X024607Y008026D03*
X024595Y008002D03*
X024583Y007991D03*
X023166Y009798D03*
D106*
X021755Y008628D03*
X021731Y008581D03*
X021731Y008569D03*
X021719Y008557D03*
X021731Y008038D03*
X024601Y008038D03*
X024613Y008050D03*
X024601Y008014D03*
X024601Y008569D03*
X024601Y008593D03*
X024578Y008628D03*
D107*
X024607Y008557D03*
X024619Y008534D03*
X024619Y008097D03*
X024607Y008061D03*
X021725Y008061D03*
X021725Y008050D03*
X021713Y008073D03*
X021713Y008097D03*
X021713Y008510D03*
X021725Y008546D03*
D108*
X021719Y008534D03*
X021719Y008522D03*
X021707Y008132D03*
X021719Y008085D03*
X024613Y008085D03*
X024613Y008073D03*
X024625Y008132D03*
X024625Y008498D03*
X024613Y008510D03*
X024613Y008522D03*
X024613Y008546D03*
D109*
X024631Y008416D03*
X024631Y008404D03*
X024631Y008392D03*
X024631Y008380D03*
X024631Y008357D03*
X024631Y008333D03*
X024631Y008298D03*
X024643Y008286D03*
X024631Y008274D03*
X024631Y008262D03*
X024631Y008250D03*
X024631Y008227D03*
X024631Y008191D03*
X021702Y008203D03*
X021702Y008215D03*
X021702Y008227D03*
X021702Y008250D03*
X021702Y008262D03*
X021702Y008274D03*
X021702Y008298D03*
X021702Y008333D03*
X021702Y008345D03*
X021702Y008369D03*
X021702Y008392D03*
X021702Y008416D03*
D110*
X021696Y008309D03*
X024637Y008321D03*
D111*
X024589Y008617D03*
X021743Y008617D03*
D112*
X024507Y008652D03*
D113*
X024465Y008664D03*
X021867Y008664D03*
D114*
X021902Y008676D03*
X024017Y008935D03*
X023166Y009845D03*
D115*
X022310Y008935D03*
X024424Y008676D03*
D116*
X021932Y008687D03*
X023160Y009857D03*
D117*
X022239Y008900D03*
X024093Y008900D03*
X024365Y008699D03*
D118*
X022263Y008912D03*
D119*
X022363Y008947D03*
D120*
X023981Y008947D03*
D121*
X023166Y008959D03*
D122*
X023166Y008971D03*
X023166Y008983D03*
X023166Y009325D03*
D123*
X023166Y009302D03*
X023166Y009006D03*
X023166Y008994D03*
D124*
X023166Y009018D03*
X023166Y009030D03*
X023166Y009290D03*
D125*
X023172Y009042D03*
D126*
X023166Y009054D03*
X023166Y009065D03*
X023166Y009278D03*
D127*
X023166Y009254D03*
X023166Y009089D03*
X023166Y009077D03*
D128*
X023166Y009101D03*
X023166Y009113D03*
D129*
X023172Y009124D03*
X023160Y009231D03*
D130*
X023166Y009219D03*
X023166Y009148D03*
X023166Y009136D03*
D131*
X023166Y009160D03*
X023166Y009172D03*
X023166Y009183D03*
X023166Y009195D03*
X023166Y009207D03*
D132*
X023172Y009243D03*
D133*
X023160Y009266D03*
D134*
X023172Y009313D03*
D135*
X023160Y009337D03*
D136*
X023172Y009349D03*
D137*
X023166Y009361D03*
D138*
X023166Y009372D03*
D139*
X023172Y009384D03*
D140*
X023166Y009396D03*
D141*
X023166Y009408D03*
D142*
X023160Y009420D03*
D143*
X023166Y009431D03*
D144*
X023166Y009443D03*
D145*
X023166Y009455D03*
X023166Y009467D03*
D146*
X023166Y009479D03*
D147*
X023166Y009491D03*
X023166Y009502D03*
D148*
X023166Y009514D03*
D149*
X023166Y009526D03*
X023166Y009538D03*
D150*
X023166Y009550D03*
D151*
X023166Y009561D03*
X023166Y009573D03*
D152*
X023166Y009585D03*
D153*
X023166Y009597D03*
X023166Y009786D03*
D154*
X023172Y009774D03*
X023172Y009609D03*
D155*
X023166Y009620D03*
D156*
X023166Y009632D03*
X023166Y009762D03*
D157*
X023166Y009656D03*
X023166Y009644D03*
D158*
X023166Y009668D03*
X023166Y009739D03*
D159*
X023166Y009691D03*
X023166Y009680D03*
D160*
X023172Y009703D03*
X023160Y009715D03*
D161*
X023172Y009727D03*
D162*
X023160Y009750D03*
D163*
X021849Y009798D03*
X024483Y009798D03*
D164*
X023166Y009998D03*
X023166Y010010D03*
X023166Y010022D03*
X023166Y010034D03*
X021843Y009809D03*
D165*
X023166Y010046D03*
X023166Y010069D03*
X023166Y010081D03*
X023166Y010093D03*
X023166Y010105D03*
X024489Y009809D03*
D166*
X024483Y009821D03*
X021849Y009821D03*
D167*
X021831Y009857D03*
X023166Y010294D03*
X023166Y010317D03*
X023166Y010329D03*
X023166Y010353D03*
X024501Y009857D03*
D168*
X023172Y010400D03*
X021837Y009869D03*
D169*
X021826Y009904D03*
D170*
X024513Y009904D03*
D171*
X024519Y009928D03*
X021814Y009928D03*
D172*
X023166Y009928D03*
D173*
X023172Y009939D03*
D174*
X023172Y009951D03*
D175*
X023166Y009963D03*
D176*
X023166Y009975D03*
X023166Y009987D03*
D177*
X023172Y010057D03*
D178*
X023166Y010117D03*
X023166Y010128D03*
X023166Y010140D03*
X023166Y010152D03*
D179*
X023166Y010187D03*
X023166Y010199D03*
X023166Y010211D03*
X023166Y010223D03*
D180*
X023172Y010341D03*
X023160Y010365D03*
D181*
X023166Y010565D03*
X023166Y010577D03*
X023166Y010589D03*
D182*
X014363Y010888D02*
X014363Y011388D01*
X014113Y011638D01*
X013613Y011638D01*
X013363Y011388D01*
X013113Y011638D01*
X012613Y011638D01*
X012363Y011388D01*
X012113Y011638D01*
X011613Y011638D01*
X011363Y011388D01*
X011113Y011638D01*
X010613Y011638D01*
X010363Y011388D01*
X010113Y011638D01*
X009613Y011638D01*
X009363Y011388D01*
X009363Y010888D01*
X009613Y010638D01*
X010113Y010638D01*
X010363Y010888D01*
X010613Y010638D01*
X011113Y010638D01*
X011363Y010888D01*
X011613Y010638D01*
X012113Y010638D01*
X012363Y010888D01*
X012613Y010638D01*
X013113Y010638D01*
X013363Y010888D01*
X013613Y010638D01*
X014113Y010638D01*
X014363Y010888D01*
X015452Y003377D02*
X015963Y003377D01*
X015963Y001959D02*
X015452Y001959D01*
X027418Y002611D02*
X027418Y002926D01*
X027654Y002926D01*
X028284Y002926D02*
X028520Y002926D01*
X028520Y002611D01*
X030418Y002611D02*
X030418Y002926D01*
X030654Y002926D01*
X031284Y002926D02*
X031520Y002926D01*
X031520Y002611D01*
D183*
X032721Y006012D02*
X032752Y005968D01*
X032752Y005969D02*
X032716Y005941D01*
X032683Y005910D01*
X032653Y005878D01*
X032625Y005842D01*
X032600Y005805D01*
X032578Y005766D01*
X032559Y005726D01*
X032543Y005683D01*
X032530Y005640D01*
X032521Y005596D01*
X032516Y005552D01*
X032514Y005507D01*
X032461Y005507D01*
X032460Y005507D01*
X032462Y005556D01*
X032468Y005605D01*
X032478Y005653D01*
X032492Y005700D01*
X032509Y005746D01*
X032529Y005791D01*
X032554Y005834D01*
X032581Y005874D01*
X032612Y005913D01*
X032645Y005949D01*
X032681Y005982D01*
X032720Y006012D01*
X032723Y006008D01*
X032685Y005978D01*
X032649Y005945D01*
X032616Y005910D01*
X032585Y005872D01*
X032558Y005831D01*
X032534Y005789D01*
X032513Y005744D01*
X032496Y005699D01*
X032483Y005652D01*
X032473Y005604D01*
X032467Y005556D01*
X032465Y005507D01*
X032470Y005507D01*
X032472Y005555D01*
X032478Y005603D01*
X032488Y005651D01*
X032501Y005697D01*
X032518Y005743D01*
X032538Y005786D01*
X032562Y005828D01*
X032589Y005869D01*
X032619Y005906D01*
X032652Y005942D01*
X032688Y005975D01*
X032726Y006004D01*
X032729Y006000D01*
X032691Y005971D01*
X032656Y005938D01*
X032623Y005903D01*
X032593Y005866D01*
X032566Y005826D01*
X032543Y005784D01*
X032523Y005741D01*
X032506Y005696D01*
X032493Y005650D01*
X032483Y005603D01*
X032477Y005555D01*
X032475Y005507D01*
X032480Y005507D01*
X032482Y005555D01*
X032488Y005602D01*
X032497Y005648D01*
X032511Y005694D01*
X032527Y005739D01*
X032547Y005782D01*
X032571Y005823D01*
X032597Y005863D01*
X032627Y005900D01*
X032659Y005935D01*
X032694Y005967D01*
X032732Y005996D01*
X032735Y005992D01*
X032698Y005963D01*
X032663Y005931D01*
X032631Y005897D01*
X032601Y005860D01*
X032575Y005821D01*
X032552Y005779D01*
X032532Y005737D01*
X032515Y005693D01*
X032502Y005647D01*
X032493Y005601D01*
X032487Y005554D01*
X032485Y005507D01*
X032490Y005507D01*
X032492Y005554D01*
X032498Y005600D01*
X032507Y005646D01*
X032520Y005691D01*
X032536Y005735D01*
X032556Y005777D01*
X032579Y005818D01*
X032605Y005857D01*
X032634Y005893D01*
X032666Y005928D01*
X032701Y005959D01*
X032738Y005988D01*
X032740Y005984D01*
X032704Y005955D01*
X032670Y005924D01*
X032638Y005890D01*
X032609Y005854D01*
X032583Y005815D01*
X032561Y005775D01*
X032541Y005733D01*
X032525Y005689D01*
X032512Y005645D01*
X032503Y005599D01*
X032497Y005553D01*
X032495Y005507D01*
X032500Y005507D01*
X032502Y005553D01*
X032508Y005599D01*
X032517Y005644D01*
X032530Y005688D01*
X032546Y005731D01*
X032565Y005773D01*
X032588Y005813D01*
X032613Y005851D01*
X032642Y005887D01*
X032673Y005920D01*
X032707Y005952D01*
X032743Y005980D01*
X032746Y005976D01*
X032710Y005948D01*
X032677Y005917D01*
X032646Y005884D01*
X032617Y005848D01*
X032592Y005810D01*
X032570Y005770D01*
X032550Y005729D01*
X032534Y005686D01*
X032522Y005642D01*
X032513Y005598D01*
X032507Y005553D01*
X032505Y005507D01*
X032510Y005507D01*
X032512Y005552D01*
X032518Y005597D01*
X032527Y005641D01*
X032539Y005685D01*
X032555Y005727D01*
X032574Y005768D01*
X032596Y005807D01*
X032621Y005845D01*
X032650Y005880D01*
X032680Y005913D01*
X032714Y005944D01*
X032749Y005972D01*
X033474Y005011D02*
X033441Y005054D01*
X033477Y005084D01*
X033510Y005117D01*
X033540Y005153D01*
X033567Y005191D01*
X033591Y005231D01*
X033612Y005273D01*
X033629Y005317D01*
X033642Y005362D01*
X033652Y005408D01*
X033658Y005454D01*
X033660Y005501D01*
X033713Y005501D01*
X033714Y005501D01*
X033712Y005454D01*
X033707Y005407D01*
X033698Y005361D01*
X033685Y005316D01*
X033669Y005272D01*
X033650Y005229D01*
X033628Y005187D01*
X033603Y005147D01*
X033575Y005110D01*
X033544Y005074D01*
X033510Y005041D01*
X033474Y005011D01*
X033471Y005015D01*
X033507Y005045D01*
X033540Y005078D01*
X033571Y005113D01*
X033599Y005150D01*
X033624Y005190D01*
X033646Y005231D01*
X033665Y005273D01*
X033680Y005317D01*
X033693Y005362D01*
X033702Y005408D01*
X033707Y005454D01*
X033709Y005501D01*
X033704Y005501D01*
X033702Y005455D01*
X033697Y005409D01*
X033688Y005363D01*
X033676Y005319D01*
X033660Y005275D01*
X033641Y005233D01*
X033619Y005192D01*
X033595Y005153D01*
X033567Y005116D01*
X033536Y005081D01*
X033503Y005049D01*
X033468Y005019D01*
X033465Y005023D01*
X033500Y005052D01*
X033533Y005085D01*
X033563Y005119D01*
X033590Y005156D01*
X033615Y005195D01*
X033637Y005235D01*
X033655Y005277D01*
X033671Y005320D01*
X033683Y005365D01*
X033692Y005410D01*
X033697Y005455D01*
X033699Y005501D01*
X033694Y005501D01*
X033692Y005456D01*
X033687Y005410D01*
X033678Y005366D01*
X033666Y005322D01*
X033651Y005279D01*
X033632Y005237D01*
X033611Y005197D01*
X033586Y005159D01*
X033559Y005122D01*
X033529Y005088D01*
X033497Y005056D01*
X033462Y005027D01*
X033459Y005031D01*
X033493Y005060D01*
X033525Y005092D01*
X033555Y005126D01*
X033582Y005162D01*
X033606Y005200D01*
X033628Y005239D01*
X033646Y005281D01*
X033661Y005323D01*
X033673Y005367D01*
X033682Y005411D01*
X033687Y005456D01*
X033689Y005501D01*
X033684Y005501D01*
X033682Y005456D01*
X033677Y005412D01*
X033668Y005368D01*
X033656Y005325D01*
X033641Y005283D01*
X033623Y005242D01*
X033602Y005202D01*
X033578Y005165D01*
X033551Y005129D01*
X033522Y005095D01*
X033490Y005064D01*
X033456Y005035D01*
X033453Y005039D01*
X033487Y005067D01*
X033518Y005098D01*
X033547Y005132D01*
X033574Y005167D01*
X033598Y005205D01*
X033619Y005244D01*
X033637Y005284D01*
X033652Y005326D01*
X033663Y005369D01*
X033672Y005413D01*
X033677Y005457D01*
X033679Y005501D01*
X033674Y005501D01*
X033672Y005457D01*
X033667Y005413D01*
X033659Y005370D01*
X033647Y005328D01*
X033632Y005286D01*
X033614Y005246D01*
X033594Y005207D01*
X033570Y005170D01*
X033544Y005135D01*
X033515Y005102D01*
X033483Y005071D01*
X033450Y005042D01*
X033447Y005046D01*
X033483Y005077D01*
X033516Y005111D01*
X033547Y005147D01*
X033575Y005186D01*
X033599Y005227D01*
X033620Y005270D01*
X033637Y005314D01*
X033651Y005360D01*
X033661Y005406D01*
X033667Y005453D01*
X033669Y005501D01*
X033664Y005501D01*
X033662Y005454D01*
X033656Y005407D01*
X033646Y005361D01*
X033632Y005316D01*
X033615Y005272D01*
X033595Y005230D01*
X033570Y005189D01*
X033543Y005151D01*
X033513Y005114D01*
X033479Y005081D01*
X033444Y005050D01*
X033713Y005507D02*
X033659Y005507D01*
X033660Y005507D02*
X033658Y005554D01*
X033652Y005600D01*
X033642Y005646D01*
X033629Y005691D01*
X033612Y005735D01*
X033591Y005777D01*
X033567Y005817D01*
X033540Y005855D01*
X033510Y005891D01*
X033477Y005924D01*
X033441Y005954D01*
X033474Y005997D01*
X033510Y005967D01*
X033544Y005934D01*
X033575Y005898D01*
X033603Y005861D01*
X033628Y005821D01*
X033650Y005779D01*
X033669Y005736D01*
X033685Y005692D01*
X033698Y005647D01*
X033707Y005601D01*
X033712Y005554D01*
X033714Y005507D01*
X033709Y005507D01*
X033707Y005554D01*
X033702Y005600D01*
X033693Y005646D01*
X033680Y005691D01*
X033665Y005735D01*
X033646Y005777D01*
X033624Y005818D01*
X033599Y005858D01*
X033571Y005895D01*
X033540Y005930D01*
X033507Y005963D01*
X033471Y005993D01*
X033468Y005989D01*
X033503Y005959D01*
X033536Y005927D01*
X033567Y005892D01*
X033595Y005855D01*
X033619Y005816D01*
X033641Y005775D01*
X033660Y005733D01*
X033676Y005689D01*
X033688Y005645D01*
X033697Y005599D01*
X033702Y005553D01*
X033704Y005507D01*
X033699Y005507D01*
X033697Y005553D01*
X033692Y005598D01*
X033683Y005643D01*
X033671Y005688D01*
X033655Y005731D01*
X033637Y005773D01*
X033615Y005813D01*
X033590Y005852D01*
X033563Y005889D01*
X033533Y005923D01*
X033500Y005956D01*
X033465Y005985D01*
X033462Y005981D01*
X033497Y005952D01*
X033529Y005920D01*
X033559Y005886D01*
X033586Y005849D01*
X033611Y005811D01*
X033632Y005771D01*
X033651Y005729D01*
X033666Y005686D01*
X033678Y005642D01*
X033687Y005598D01*
X033692Y005552D01*
X033694Y005507D01*
X033689Y005507D01*
X033687Y005552D01*
X033682Y005597D01*
X033673Y005641D01*
X033661Y005685D01*
X033646Y005727D01*
X033628Y005769D01*
X033606Y005808D01*
X033582Y005846D01*
X033555Y005882D01*
X033525Y005916D01*
X033493Y005948D01*
X033459Y005977D01*
X033456Y005973D01*
X033490Y005944D01*
X033522Y005913D01*
X033551Y005879D01*
X033578Y005843D01*
X033602Y005806D01*
X033623Y005766D01*
X033641Y005725D01*
X033656Y005683D01*
X033668Y005640D01*
X033677Y005596D01*
X033682Y005552D01*
X033684Y005507D01*
X033679Y005507D01*
X033677Y005551D01*
X033672Y005595D01*
X033663Y005639D01*
X033652Y005682D01*
X033637Y005724D01*
X033619Y005764D01*
X033598Y005803D01*
X033574Y005841D01*
X033547Y005876D01*
X033518Y005910D01*
X033487Y005941D01*
X033453Y005969D01*
X033450Y005966D01*
X033483Y005937D01*
X033515Y005906D01*
X033544Y005873D01*
X033570Y005838D01*
X033594Y005801D01*
X033614Y005762D01*
X033632Y005722D01*
X033647Y005680D01*
X033659Y005638D01*
X033667Y005595D01*
X033672Y005551D01*
X033674Y005507D01*
X033669Y005507D01*
X033667Y005555D01*
X033661Y005602D01*
X033651Y005648D01*
X033637Y005694D01*
X033620Y005738D01*
X033599Y005781D01*
X033575Y005822D01*
X033547Y005861D01*
X033516Y005897D01*
X033483Y005931D01*
X033447Y005962D01*
X033444Y005958D01*
X033479Y005927D01*
X033513Y005894D01*
X033543Y005857D01*
X033570Y005819D01*
X033595Y005778D01*
X033615Y005736D01*
X033632Y005692D01*
X033646Y005647D01*
X033656Y005601D01*
X033662Y005554D01*
X033664Y005507D01*
X032461Y005502D02*
X032515Y005502D01*
X032514Y005501D02*
X032516Y005457D01*
X032521Y005414D01*
X032530Y005371D01*
X032541Y005329D01*
X032556Y005288D01*
X032574Y005248D01*
X032596Y005209D01*
X032619Y005173D01*
X032646Y005138D01*
X032675Y005105D01*
X032707Y005075D01*
X032741Y005047D01*
X032709Y005005D01*
X032708Y005004D01*
X032671Y005035D01*
X032637Y005068D01*
X032605Y005103D01*
X032575Y005141D01*
X032549Y005182D01*
X032526Y005224D01*
X032506Y005267D01*
X032490Y005312D01*
X032477Y005358D01*
X032468Y005406D01*
X032462Y005453D01*
X032460Y005501D01*
X032465Y005501D01*
X032467Y005453D01*
X032473Y005406D01*
X032482Y005360D01*
X032495Y005314D01*
X032511Y005269D01*
X032531Y005226D01*
X032554Y005184D01*
X032580Y005144D01*
X032608Y005107D01*
X032640Y005071D01*
X032675Y005038D01*
X032711Y005008D01*
X032714Y005012D01*
X032678Y005042D01*
X032644Y005075D01*
X032612Y005110D01*
X032584Y005147D01*
X032558Y005187D01*
X032535Y005228D01*
X032516Y005271D01*
X032500Y005315D01*
X032487Y005361D01*
X032478Y005407D01*
X032472Y005454D01*
X032470Y005501D01*
X032475Y005501D01*
X032477Y005454D01*
X032483Y005408D01*
X032492Y005362D01*
X032504Y005317D01*
X032520Y005273D01*
X032540Y005230D01*
X032562Y005189D01*
X032588Y005150D01*
X032616Y005113D01*
X032647Y005078D01*
X032681Y005046D01*
X032717Y005016D01*
X032720Y005020D01*
X032685Y005050D01*
X032651Y005082D01*
X032620Y005116D01*
X032592Y005153D01*
X032566Y005192D01*
X032544Y005233D01*
X032525Y005275D01*
X032509Y005318D01*
X032497Y005363D01*
X032488Y005409D01*
X032482Y005455D01*
X032480Y005501D01*
X032485Y005501D01*
X032487Y005455D01*
X032492Y005409D01*
X032501Y005364D01*
X032514Y005320D01*
X032530Y005277D01*
X032549Y005235D01*
X032571Y005194D01*
X032596Y005156D01*
X032624Y005119D01*
X032655Y005085D01*
X032688Y005053D01*
X032723Y005024D01*
X032726Y005028D01*
X032691Y005057D01*
X032658Y005089D01*
X032628Y005123D01*
X032600Y005159D01*
X032575Y005197D01*
X032553Y005237D01*
X032534Y005279D01*
X032519Y005321D01*
X032506Y005365D01*
X032497Y005410D01*
X032492Y005455D01*
X032490Y005501D01*
X032495Y005501D01*
X032497Y005456D01*
X032502Y005411D01*
X032511Y005367D01*
X032523Y005323D01*
X032539Y005280D01*
X032557Y005239D01*
X032579Y005200D01*
X032604Y005162D01*
X032632Y005126D01*
X032662Y005092D01*
X032694Y005061D01*
X032729Y005032D01*
X032732Y005036D01*
X032698Y005065D01*
X032665Y005096D01*
X032635Y005129D01*
X032608Y005165D01*
X032584Y005202D01*
X032562Y005241D01*
X032543Y005282D01*
X032528Y005324D01*
X032516Y005368D01*
X032507Y005412D01*
X032502Y005456D01*
X032500Y005501D01*
X032505Y005501D01*
X032507Y005457D01*
X032512Y005412D01*
X032521Y005369D01*
X032533Y005326D01*
X032548Y005284D01*
X032566Y005244D01*
X032588Y005205D01*
X032612Y005168D01*
X032639Y005132D01*
X032669Y005099D01*
X032701Y005068D01*
X032735Y005040D01*
X032738Y005044D01*
X032704Y005072D01*
X032672Y005103D01*
X032643Y005135D01*
X032616Y005170D01*
X032592Y005207D01*
X032571Y005246D01*
X032553Y005286D01*
X032538Y005328D01*
X032526Y005370D01*
X032517Y005413D01*
X032512Y005457D01*
X032510Y005501D01*
X002232Y006635D02*
X002265Y006592D01*
X002229Y006562D01*
X002196Y006529D01*
X002166Y006493D01*
X002139Y006455D01*
X002115Y006415D01*
X002094Y006373D01*
X002077Y006329D01*
X002064Y006284D01*
X002054Y006238D01*
X002048Y006192D01*
X002046Y006145D01*
X001993Y006145D01*
X001992Y006145D01*
X001994Y006192D01*
X001999Y006239D01*
X002008Y006285D01*
X002021Y006330D01*
X002037Y006374D01*
X002056Y006417D01*
X002078Y006459D01*
X002103Y006499D01*
X002131Y006536D01*
X002162Y006572D01*
X002196Y006605D01*
X002232Y006635D01*
X002235Y006631D01*
X002199Y006601D01*
X002166Y006568D01*
X002135Y006533D01*
X002107Y006496D01*
X002082Y006456D01*
X002060Y006415D01*
X002041Y006373D01*
X002026Y006329D01*
X002013Y006284D01*
X002004Y006238D01*
X001999Y006192D01*
X001997Y006145D01*
X002002Y006145D01*
X002004Y006191D01*
X002009Y006237D01*
X002018Y006283D01*
X002030Y006327D01*
X002046Y006371D01*
X002065Y006413D01*
X002087Y006454D01*
X002111Y006493D01*
X002139Y006530D01*
X002170Y006565D01*
X002203Y006597D01*
X002238Y006627D01*
X002241Y006623D01*
X002206Y006594D01*
X002173Y006561D01*
X002143Y006527D01*
X002116Y006490D01*
X002091Y006451D01*
X002069Y006411D01*
X002051Y006369D01*
X002035Y006326D01*
X002023Y006281D01*
X002014Y006236D01*
X002009Y006191D01*
X002007Y006145D01*
X002012Y006145D01*
X002014Y006190D01*
X002019Y006236D01*
X002028Y006280D01*
X002040Y006324D01*
X002055Y006367D01*
X002074Y006409D01*
X002095Y006449D01*
X002120Y006487D01*
X002147Y006524D01*
X002177Y006558D01*
X002209Y006590D01*
X002244Y006619D01*
X002247Y006615D01*
X002213Y006586D01*
X002181Y006554D01*
X002151Y006520D01*
X002124Y006484D01*
X002100Y006446D01*
X002078Y006407D01*
X002060Y006365D01*
X002045Y006323D01*
X002033Y006279D01*
X002024Y006235D01*
X002019Y006190D01*
X002017Y006145D01*
X002022Y006145D01*
X002024Y006190D01*
X002029Y006234D01*
X002038Y006278D01*
X002050Y006321D01*
X002065Y006363D01*
X002083Y006404D01*
X002104Y006444D01*
X002128Y006481D01*
X002155Y006517D01*
X002184Y006551D01*
X002216Y006582D01*
X002250Y006611D01*
X002253Y006607D01*
X002219Y006579D01*
X002188Y006548D01*
X002159Y006514D01*
X002132Y006479D01*
X002108Y006441D01*
X002087Y006402D01*
X002069Y006362D01*
X002054Y006320D01*
X002043Y006277D01*
X002034Y006233D01*
X002029Y006189D01*
X002027Y006145D01*
X002032Y006145D01*
X002034Y006189D01*
X002039Y006233D01*
X002047Y006276D01*
X002059Y006318D01*
X002074Y006360D01*
X002092Y006400D01*
X002112Y006439D01*
X002136Y006476D01*
X002162Y006511D01*
X002191Y006544D01*
X002223Y006575D01*
X002256Y006604D01*
X002259Y006600D01*
X002223Y006569D01*
X002190Y006535D01*
X002159Y006499D01*
X002131Y006460D01*
X002107Y006419D01*
X002086Y006376D01*
X002069Y006332D01*
X002055Y006286D01*
X002045Y006240D01*
X002039Y006193D01*
X002037Y006145D01*
X002042Y006145D01*
X002044Y006192D01*
X002050Y006239D01*
X002060Y006285D01*
X002074Y006330D01*
X002091Y006374D01*
X002111Y006416D01*
X002136Y006457D01*
X002163Y006495D01*
X002193Y006532D01*
X002227Y006565D01*
X002262Y006596D01*
X002985Y005634D02*
X002954Y005678D01*
X002954Y005677D02*
X002990Y005705D01*
X003023Y005736D01*
X003053Y005768D01*
X003081Y005804D01*
X003106Y005841D01*
X003128Y005880D01*
X003147Y005920D01*
X003163Y005963D01*
X003176Y006006D01*
X003185Y006050D01*
X003190Y006094D01*
X003192Y006139D01*
X003245Y006139D01*
X003246Y006139D01*
X003244Y006090D01*
X003238Y006041D01*
X003228Y005993D01*
X003214Y005946D01*
X003197Y005900D01*
X003177Y005855D01*
X003152Y005812D01*
X003125Y005772D01*
X003094Y005733D01*
X003061Y005697D01*
X003025Y005664D01*
X002986Y005634D01*
X002983Y005638D01*
X003021Y005668D01*
X003057Y005701D01*
X003090Y005736D01*
X003121Y005774D01*
X003148Y005815D01*
X003172Y005857D01*
X003193Y005902D01*
X003210Y005947D01*
X003223Y005994D01*
X003233Y006042D01*
X003239Y006090D01*
X003241Y006139D01*
X003236Y006139D01*
X003234Y006091D01*
X003228Y006043D01*
X003218Y005995D01*
X003205Y005949D01*
X003188Y005903D01*
X003168Y005860D01*
X003144Y005818D01*
X003117Y005777D01*
X003087Y005740D01*
X003054Y005704D01*
X003018Y005671D01*
X002980Y005642D01*
X002977Y005646D01*
X003015Y005675D01*
X003050Y005708D01*
X003083Y005743D01*
X003113Y005780D01*
X003140Y005820D01*
X003163Y005862D01*
X003183Y005905D01*
X003200Y005950D01*
X003213Y005996D01*
X003223Y006043D01*
X003229Y006091D01*
X003231Y006139D01*
X003226Y006139D01*
X003224Y006091D01*
X003218Y006044D01*
X003209Y005998D01*
X003195Y005952D01*
X003179Y005907D01*
X003159Y005864D01*
X003135Y005823D01*
X003109Y005783D01*
X003079Y005746D01*
X003047Y005711D01*
X003012Y005679D01*
X002974Y005650D01*
X002971Y005654D01*
X003008Y005683D01*
X003043Y005715D01*
X003075Y005749D01*
X003105Y005786D01*
X003131Y005825D01*
X003154Y005867D01*
X003174Y005909D01*
X003191Y005953D01*
X003204Y005999D01*
X003213Y006045D01*
X003219Y006092D01*
X003221Y006139D01*
X003216Y006139D01*
X003214Y006092D01*
X003208Y006046D01*
X003199Y006000D01*
X003186Y005955D01*
X003170Y005911D01*
X003150Y005869D01*
X003127Y005828D01*
X003101Y005789D01*
X003072Y005753D01*
X003040Y005718D01*
X003005Y005687D01*
X002968Y005658D01*
X002966Y005662D01*
X003002Y005691D01*
X003036Y005722D01*
X003068Y005756D01*
X003097Y005792D01*
X003123Y005831D01*
X003145Y005871D01*
X003165Y005913D01*
X003181Y005957D01*
X003194Y006001D01*
X003203Y006047D01*
X003209Y006093D01*
X003211Y006139D01*
X003206Y006139D01*
X003204Y006093D01*
X003198Y006047D01*
X003189Y006002D01*
X003176Y005958D01*
X003160Y005915D01*
X003141Y005873D01*
X003118Y005833D01*
X003093Y005795D01*
X003064Y005759D01*
X003033Y005726D01*
X002999Y005694D01*
X002963Y005666D01*
X002960Y005670D01*
X002996Y005698D01*
X003029Y005729D01*
X003060Y005762D01*
X003089Y005798D01*
X003114Y005836D01*
X003136Y005876D01*
X003156Y005917D01*
X003172Y005960D01*
X003184Y006004D01*
X003193Y006048D01*
X003199Y006093D01*
X003201Y006139D01*
X003196Y006139D01*
X003194Y006094D01*
X003188Y006049D01*
X003179Y006005D01*
X003167Y005961D01*
X003151Y005919D01*
X003132Y005878D01*
X003110Y005839D01*
X003085Y005801D01*
X003056Y005766D01*
X003026Y005733D01*
X002992Y005702D01*
X002957Y005674D01*
X003245Y006144D02*
X003191Y006144D01*
X003192Y006145D02*
X003190Y006189D01*
X003185Y006232D01*
X003176Y006275D01*
X003165Y006317D01*
X003150Y006358D01*
X003132Y006398D01*
X003110Y006437D01*
X003087Y006473D01*
X003060Y006508D01*
X003031Y006541D01*
X002999Y006571D01*
X002965Y006599D01*
X002997Y006641D01*
X002998Y006642D01*
X003035Y006611D01*
X003069Y006578D01*
X003101Y006543D01*
X003131Y006505D01*
X003157Y006464D01*
X003180Y006422D01*
X003200Y006379D01*
X003216Y006334D01*
X003229Y006288D01*
X003238Y006240D01*
X003244Y006193D01*
X003246Y006145D01*
X003241Y006145D01*
X003239Y006193D01*
X003233Y006240D01*
X003224Y006286D01*
X003211Y006332D01*
X003195Y006377D01*
X003175Y006420D01*
X003152Y006462D01*
X003126Y006502D01*
X003098Y006539D01*
X003066Y006575D01*
X003031Y006608D01*
X002995Y006638D01*
X002992Y006634D01*
X003028Y006604D01*
X003062Y006571D01*
X003094Y006536D01*
X003122Y006499D01*
X003148Y006459D01*
X003171Y006418D01*
X003190Y006375D01*
X003206Y006331D01*
X003219Y006285D01*
X003228Y006239D01*
X003234Y006192D01*
X003236Y006145D01*
X003231Y006145D01*
X003229Y006192D01*
X003223Y006238D01*
X003214Y006284D01*
X003202Y006329D01*
X003186Y006373D01*
X003166Y006416D01*
X003144Y006457D01*
X003118Y006496D01*
X003090Y006533D01*
X003059Y006568D01*
X003025Y006600D01*
X002989Y006630D01*
X002986Y006626D01*
X003021Y006596D01*
X003055Y006564D01*
X003086Y006530D01*
X003114Y006493D01*
X003140Y006454D01*
X003162Y006413D01*
X003181Y006371D01*
X003197Y006328D01*
X003209Y006283D01*
X003218Y006237D01*
X003224Y006191D01*
X003226Y006145D01*
X003221Y006145D01*
X003219Y006191D01*
X003214Y006237D01*
X003205Y006282D01*
X003192Y006326D01*
X003176Y006369D01*
X003157Y006411D01*
X003135Y006452D01*
X003110Y006490D01*
X003082Y006527D01*
X003051Y006561D01*
X003018Y006593D01*
X002983Y006622D01*
X002980Y006618D01*
X003015Y006589D01*
X003048Y006557D01*
X003078Y006523D01*
X003106Y006487D01*
X003131Y006449D01*
X003153Y006409D01*
X003172Y006367D01*
X003187Y006325D01*
X003200Y006281D01*
X003209Y006236D01*
X003214Y006191D01*
X003216Y006145D01*
X003211Y006145D01*
X003209Y006190D01*
X003204Y006235D01*
X003195Y006279D01*
X003183Y006323D01*
X003167Y006366D01*
X003149Y006407D01*
X003127Y006446D01*
X003102Y006484D01*
X003074Y006520D01*
X003044Y006554D01*
X003012Y006585D01*
X002977Y006614D01*
X002974Y006610D01*
X003008Y006581D01*
X003041Y006550D01*
X003071Y006517D01*
X003098Y006481D01*
X003122Y006444D01*
X003144Y006405D01*
X003163Y006364D01*
X003178Y006322D01*
X003190Y006278D01*
X003199Y006234D01*
X003204Y006190D01*
X003206Y006145D01*
X003201Y006145D01*
X003199Y006189D01*
X003194Y006234D01*
X003185Y006277D01*
X003173Y006320D01*
X003158Y006362D01*
X003140Y006402D01*
X003118Y006441D01*
X003094Y006478D01*
X003067Y006514D01*
X003037Y006547D01*
X003005Y006578D01*
X002971Y006606D01*
X002968Y006602D01*
X003002Y006574D01*
X003034Y006543D01*
X003063Y006511D01*
X003090Y006476D01*
X003114Y006439D01*
X003135Y006400D01*
X003153Y006360D01*
X003168Y006318D01*
X003180Y006276D01*
X003189Y006233D01*
X003194Y006189D01*
X003196Y006145D01*
X001993Y006139D02*
X002047Y006139D01*
X002046Y006139D02*
X002048Y006092D01*
X002054Y006046D01*
X002064Y006000D01*
X002077Y005955D01*
X002094Y005911D01*
X002115Y005869D01*
X002139Y005829D01*
X002166Y005791D01*
X002196Y005755D01*
X002229Y005722D01*
X002265Y005692D01*
X002232Y005649D01*
X002196Y005679D01*
X002162Y005712D01*
X002131Y005748D01*
X002103Y005785D01*
X002078Y005825D01*
X002056Y005867D01*
X002037Y005910D01*
X002021Y005954D01*
X002008Y005999D01*
X001999Y006045D01*
X001994Y006092D01*
X001992Y006139D01*
X001997Y006139D01*
X001999Y006092D01*
X002004Y006046D01*
X002013Y006000D01*
X002026Y005955D01*
X002041Y005911D01*
X002060Y005869D01*
X002082Y005828D01*
X002107Y005788D01*
X002135Y005751D01*
X002166Y005716D01*
X002199Y005683D01*
X002235Y005653D01*
X002238Y005657D01*
X002203Y005687D01*
X002170Y005719D01*
X002139Y005754D01*
X002111Y005791D01*
X002087Y005830D01*
X002065Y005871D01*
X002046Y005913D01*
X002030Y005957D01*
X002018Y006001D01*
X002009Y006047D01*
X002004Y006093D01*
X002002Y006139D01*
X002007Y006139D01*
X002009Y006093D01*
X002014Y006048D01*
X002023Y006003D01*
X002035Y005958D01*
X002051Y005915D01*
X002069Y005873D01*
X002091Y005833D01*
X002116Y005794D01*
X002143Y005757D01*
X002173Y005723D01*
X002206Y005690D01*
X002241Y005661D01*
X002244Y005665D01*
X002209Y005694D01*
X002177Y005726D01*
X002147Y005760D01*
X002120Y005797D01*
X002095Y005835D01*
X002074Y005875D01*
X002055Y005917D01*
X002040Y005960D01*
X002028Y006004D01*
X002019Y006048D01*
X002014Y006094D01*
X002012Y006139D01*
X002017Y006139D01*
X002019Y006094D01*
X002024Y006049D01*
X002033Y006005D01*
X002045Y005961D01*
X002060Y005919D01*
X002078Y005877D01*
X002100Y005838D01*
X002124Y005800D01*
X002151Y005764D01*
X002181Y005730D01*
X002213Y005698D01*
X002247Y005669D01*
X002250Y005673D01*
X002216Y005702D01*
X002184Y005733D01*
X002155Y005767D01*
X002128Y005803D01*
X002104Y005840D01*
X002083Y005880D01*
X002065Y005921D01*
X002050Y005963D01*
X002038Y006006D01*
X002029Y006050D01*
X002024Y006094D01*
X002022Y006139D01*
X002027Y006139D01*
X002029Y006095D01*
X002034Y006051D01*
X002043Y006007D01*
X002054Y005964D01*
X002069Y005922D01*
X002087Y005882D01*
X002108Y005843D01*
X002132Y005805D01*
X002159Y005770D01*
X002188Y005736D01*
X002219Y005705D01*
X002253Y005677D01*
X002256Y005680D01*
X002223Y005709D01*
X002191Y005740D01*
X002162Y005773D01*
X002136Y005808D01*
X002112Y005845D01*
X002092Y005884D01*
X002074Y005924D01*
X002059Y005966D01*
X002047Y006008D01*
X002039Y006051D01*
X002034Y006095D01*
X002032Y006139D01*
X002037Y006139D01*
X002039Y006091D01*
X002045Y006044D01*
X002055Y005998D01*
X002069Y005952D01*
X002086Y005908D01*
X002107Y005865D01*
X002131Y005824D01*
X002159Y005785D01*
X002190Y005749D01*
X002223Y005715D01*
X002259Y005684D01*
X002262Y005688D01*
X002227Y005719D01*
X002193Y005752D01*
X002163Y005789D01*
X002136Y005827D01*
X002111Y005868D01*
X002091Y005910D01*
X002074Y005954D01*
X002060Y005999D01*
X002050Y006045D01*
X002044Y006092D01*
X002042Y006139D01*
D184*
X003463Y006147D02*
X003373Y006147D01*
X003374Y006147D02*
X003372Y006201D01*
X003366Y006254D01*
X003356Y006307D01*
X003342Y006359D01*
X003325Y006410D01*
X003304Y006459D01*
X003280Y006507D01*
X003252Y006553D01*
X003221Y006597D01*
X003187Y006639D01*
X003151Y006678D01*
X003111Y006715D01*
X003069Y006748D01*
X003025Y006779D01*
X002979Y006806D01*
X003021Y006885D01*
X003070Y006857D01*
X003116Y006825D01*
X003161Y006790D01*
X003203Y006753D01*
X003243Y006712D01*
X003279Y006669D01*
X003313Y006624D01*
X003344Y006577D01*
X003371Y006527D01*
X003395Y006476D01*
X003416Y006424D01*
X003433Y006370D01*
X003446Y006315D01*
X003456Y006260D01*
X003462Y006203D01*
X003464Y006147D01*
X003455Y006147D01*
X003453Y006203D01*
X003447Y006258D01*
X003437Y006313D01*
X003424Y006368D01*
X003407Y006421D01*
X003387Y006473D01*
X003363Y006523D01*
X003336Y006572D01*
X003306Y006619D01*
X003272Y006664D01*
X003236Y006706D01*
X003197Y006746D01*
X003155Y006783D01*
X003111Y006818D01*
X003065Y006849D01*
X003017Y006877D01*
X003013Y006869D01*
X003060Y006841D01*
X003106Y006810D01*
X003149Y006776D01*
X003191Y006740D01*
X003229Y006700D01*
X003265Y006658D01*
X003298Y006614D01*
X003328Y006568D01*
X003355Y006519D01*
X003378Y006469D01*
X003399Y006418D01*
X003415Y006365D01*
X003428Y006312D01*
X003438Y006257D01*
X003444Y006202D01*
X003446Y006147D01*
X003437Y006147D01*
X003435Y006202D01*
X003429Y006256D01*
X003420Y006310D01*
X003407Y006363D01*
X003390Y006415D01*
X003370Y006466D01*
X003347Y006515D01*
X003320Y006563D01*
X003291Y006609D01*
X003258Y006653D01*
X003223Y006694D01*
X003184Y006733D01*
X003144Y006770D01*
X003101Y006803D01*
X003055Y006834D01*
X003008Y006861D01*
X003004Y006853D01*
X003051Y006826D01*
X003095Y006796D01*
X003138Y006763D01*
X003178Y006727D01*
X003216Y006688D01*
X003251Y006647D01*
X003283Y006604D01*
X003313Y006558D01*
X003339Y006511D01*
X003362Y006462D01*
X003382Y006412D01*
X003398Y006360D01*
X003411Y006308D01*
X003420Y006255D01*
X003426Y006201D01*
X003428Y006147D01*
X003419Y006147D01*
X003417Y006200D01*
X003411Y006253D01*
X003402Y006306D01*
X003389Y006358D01*
X003373Y006409D01*
X003354Y006459D01*
X003331Y006507D01*
X003305Y006554D01*
X003276Y006598D01*
X003244Y006641D01*
X003209Y006682D01*
X003172Y006720D01*
X003132Y006756D01*
X003090Y006789D01*
X003046Y006819D01*
X003000Y006846D01*
X002996Y006838D01*
X003041Y006811D01*
X003085Y006781D01*
X003126Y006749D01*
X003166Y006714D01*
X003203Y006676D01*
X003237Y006636D01*
X003269Y006593D01*
X003297Y006549D01*
X003323Y006503D01*
X003345Y006455D01*
X003365Y006406D01*
X003381Y006356D01*
X003393Y006304D01*
X003402Y006252D01*
X003408Y006200D01*
X003410Y006147D01*
X003401Y006147D01*
X003399Y006203D01*
X003392Y006258D01*
X003382Y006313D01*
X003368Y006367D01*
X003350Y006419D01*
X003329Y006471D01*
X003303Y006520D01*
X003275Y006568D01*
X003243Y006614D01*
X003208Y006657D01*
X003170Y006697D01*
X003129Y006735D01*
X003085Y006770D01*
X003039Y006801D01*
X002991Y006830D01*
X002987Y006822D01*
X003035Y006794D01*
X003080Y006763D01*
X003123Y006728D01*
X003163Y006691D01*
X003201Y006651D01*
X003236Y006608D01*
X003267Y006563D01*
X003296Y006516D01*
X003320Y006467D01*
X003342Y006416D01*
X003359Y006364D01*
X003373Y006311D01*
X003383Y006257D01*
X003390Y006202D01*
X003392Y006147D01*
X003383Y006147D01*
X003381Y006201D01*
X003375Y006255D01*
X003365Y006309D01*
X003351Y006361D01*
X003333Y006413D01*
X003312Y006463D01*
X003288Y006512D01*
X003260Y006558D01*
X003228Y006603D01*
X003194Y006645D01*
X003157Y006684D01*
X003117Y006721D01*
X003075Y006755D01*
X003030Y006786D01*
X002983Y006814D01*
X002196Y006873D02*
X002241Y006795D01*
X002240Y006795D02*
X002196Y006767D01*
X002154Y006736D01*
X002114Y006703D01*
X002076Y006667D01*
X002041Y006628D01*
X002009Y006587D01*
X001979Y006543D01*
X001953Y006498D01*
X001930Y006451D01*
X001910Y006403D01*
X001894Y006353D01*
X001881Y006303D01*
X001872Y006251D01*
X001866Y006199D01*
X001864Y006147D01*
X001775Y006146D01*
X001774Y006147D01*
X001776Y006202D01*
X001782Y006256D01*
X001791Y006311D01*
X001804Y006364D01*
X001820Y006416D01*
X001839Y006468D01*
X001862Y006518D01*
X001888Y006566D01*
X001917Y006613D01*
X001949Y006657D01*
X001984Y006700D01*
X002022Y006740D01*
X002062Y006777D01*
X002104Y006812D01*
X002149Y006844D01*
X002195Y006873D01*
X002200Y006865D01*
X002154Y006837D01*
X002110Y006805D01*
X002068Y006770D01*
X002028Y006733D01*
X001991Y006694D01*
X001956Y006652D01*
X001925Y006608D01*
X001896Y006562D01*
X001870Y006514D01*
X001848Y006464D01*
X001828Y006414D01*
X001812Y006362D01*
X001800Y006309D01*
X001791Y006255D01*
X001785Y006201D01*
X001783Y006147D01*
X001792Y006147D01*
X001794Y006201D01*
X001800Y006254D01*
X001809Y006307D01*
X001821Y006359D01*
X001837Y006411D01*
X001856Y006461D01*
X001878Y006510D01*
X001904Y006557D01*
X001932Y006603D01*
X001964Y006646D01*
X001998Y006688D01*
X002034Y006727D01*
X002074Y006764D01*
X002115Y006798D01*
X002159Y006829D01*
X002204Y006858D01*
X002209Y006850D01*
X002161Y006820D01*
X002115Y006786D01*
X002072Y006750D01*
X002031Y006710D01*
X001993Y006668D01*
X001958Y006624D01*
X001926Y006577D01*
X001898Y006528D01*
X001873Y006477D01*
X001851Y006424D01*
X001834Y006371D01*
X001820Y006316D01*
X001810Y006260D01*
X001803Y006204D01*
X001801Y006147D01*
X001810Y006147D01*
X001812Y006203D01*
X001818Y006259D01*
X001828Y006314D01*
X001842Y006368D01*
X001860Y006421D01*
X001881Y006473D01*
X001906Y006524D01*
X001934Y006572D01*
X001965Y006618D01*
X002000Y006663D01*
X002037Y006704D01*
X002078Y006743D01*
X002120Y006779D01*
X002166Y006812D01*
X002213Y006842D01*
X002218Y006834D01*
X002171Y006805D01*
X002126Y006772D01*
X002084Y006736D01*
X002044Y006698D01*
X002007Y006657D01*
X001972Y006613D01*
X001941Y006567D01*
X001914Y006519D01*
X001889Y006470D01*
X001868Y006418D01*
X001851Y006366D01*
X001837Y006312D01*
X001827Y006257D01*
X001821Y006202D01*
X001819Y006147D01*
X001828Y006147D01*
X001830Y006202D01*
X001836Y006256D01*
X001846Y006310D01*
X001860Y006363D01*
X001877Y006415D01*
X001897Y006466D01*
X001922Y006515D01*
X001949Y006562D01*
X001980Y006608D01*
X002013Y006651D01*
X002050Y006692D01*
X002090Y006730D01*
X002132Y006765D01*
X002176Y006797D01*
X002222Y006826D01*
X002227Y006818D01*
X002181Y006790D01*
X002137Y006758D01*
X002096Y006723D01*
X002057Y006685D01*
X002020Y006645D01*
X001987Y006603D01*
X001957Y006558D01*
X001929Y006511D01*
X001906Y006462D01*
X001885Y006412D01*
X001868Y006361D01*
X001855Y006308D01*
X001845Y006255D01*
X001839Y006201D01*
X001837Y006147D01*
X001846Y006147D01*
X001848Y006200D01*
X001854Y006254D01*
X001864Y006306D01*
X001877Y006358D01*
X001894Y006409D01*
X001914Y006459D01*
X001937Y006507D01*
X001964Y006553D01*
X001994Y006597D01*
X002027Y006639D01*
X002063Y006679D01*
X002102Y006716D01*
X002143Y006751D01*
X002186Y006782D01*
X002231Y006811D01*
X002236Y006803D01*
X002191Y006775D01*
X002148Y006744D01*
X002108Y006710D01*
X002070Y006673D01*
X002034Y006634D01*
X002002Y006592D01*
X001972Y006548D01*
X001945Y006502D01*
X001922Y006455D01*
X001902Y006406D01*
X001885Y006356D01*
X001872Y006304D01*
X001863Y006252D01*
X001857Y006200D01*
X001855Y006147D01*
X001775Y006138D02*
X001865Y006138D01*
X001864Y006137D02*
X001866Y006083D01*
X001872Y006030D01*
X001882Y005977D01*
X001896Y005925D01*
X001913Y005874D01*
X001934Y005824D01*
X001958Y005776D01*
X001986Y005730D01*
X002017Y005686D01*
X002051Y005645D01*
X002088Y005605D01*
X002127Y005569D01*
X002070Y005501D01*
X002069Y005500D01*
X002028Y005538D01*
X001990Y005578D01*
X001954Y005621D01*
X001921Y005666D01*
X001891Y005713D01*
X001865Y005761D01*
X001841Y005812D01*
X001821Y005864D01*
X001805Y005917D01*
X001791Y005971D01*
X001782Y006026D01*
X001776Y006081D01*
X001774Y006137D01*
X001783Y006137D01*
X001785Y006082D01*
X001791Y006027D01*
X001800Y005973D01*
X001813Y005919D01*
X001830Y005867D01*
X001849Y005815D01*
X001873Y005765D01*
X001899Y005717D01*
X001929Y005671D01*
X001961Y005626D01*
X001996Y005584D01*
X002035Y005544D01*
X002075Y005507D01*
X002081Y005514D01*
X002041Y005551D01*
X002003Y005590D01*
X001968Y005632D01*
X001936Y005676D01*
X001907Y005722D01*
X001881Y005770D01*
X001858Y005819D01*
X001838Y005870D01*
X001822Y005922D01*
X001809Y005975D01*
X001800Y006028D01*
X001794Y006083D01*
X001792Y006137D01*
X001801Y006137D01*
X001803Y006083D01*
X001809Y006030D01*
X001818Y005977D01*
X001831Y005924D01*
X001847Y005873D01*
X001866Y005822D01*
X001889Y005774D01*
X001914Y005726D01*
X001943Y005681D01*
X001975Y005637D01*
X002010Y005596D01*
X002047Y005557D01*
X002087Y005521D01*
X002093Y005528D01*
X002053Y005564D01*
X002016Y005602D01*
X001982Y005643D01*
X001951Y005686D01*
X001922Y005731D01*
X001897Y005778D01*
X001874Y005826D01*
X001855Y005876D01*
X001839Y005927D01*
X001827Y005978D01*
X001818Y006031D01*
X001812Y006084D01*
X001810Y006137D01*
X001819Y006137D01*
X001821Y006084D01*
X001827Y006032D01*
X001836Y005980D01*
X001848Y005929D01*
X001864Y005879D01*
X001883Y005829D01*
X001905Y005782D01*
X001930Y005735D01*
X001958Y005691D01*
X001989Y005649D01*
X002023Y005608D01*
X002060Y005570D01*
X002098Y005535D01*
X002104Y005541D01*
X002066Y005577D01*
X002030Y005614D01*
X001996Y005654D01*
X001966Y005696D01*
X001938Y005740D01*
X001913Y005786D01*
X001891Y005833D01*
X001872Y005882D01*
X001857Y005931D01*
X001844Y005982D01*
X001836Y006033D01*
X001830Y006085D01*
X001828Y006137D01*
X001837Y006137D01*
X001839Y006081D01*
X001846Y006026D01*
X001856Y005971D01*
X001870Y005917D01*
X001888Y005864D01*
X001910Y005813D01*
X001935Y005763D01*
X001964Y005715D01*
X001996Y005670D01*
X002031Y005627D01*
X002069Y005586D01*
X002110Y005548D01*
X002116Y005555D01*
X002075Y005592D01*
X002038Y005633D01*
X002003Y005675D01*
X001971Y005720D01*
X001943Y005768D01*
X001918Y005817D01*
X001896Y005868D01*
X001879Y005920D01*
X001865Y005973D01*
X001855Y006027D01*
X001848Y006082D01*
X001846Y006137D01*
X001855Y006137D01*
X001857Y006083D01*
X001863Y006029D01*
X001873Y005975D01*
X001887Y005922D01*
X001905Y005871D01*
X001926Y005821D01*
X001951Y005772D01*
X001979Y005725D01*
X002010Y005681D01*
X002044Y005639D01*
X002082Y005599D01*
X002122Y005562D01*
X003163Y005497D02*
X003106Y005566D01*
X003106Y005565D02*
X003146Y005602D01*
X003184Y005641D01*
X003218Y005683D01*
X003250Y005727D01*
X003278Y005773D01*
X003303Y005822D01*
X003324Y005872D01*
X003342Y005923D01*
X003355Y005976D01*
X003365Y006029D01*
X003372Y006083D01*
X003374Y006137D01*
X003463Y006138D01*
X003464Y006137D01*
X003462Y006081D01*
X003456Y006025D01*
X003446Y005970D01*
X003433Y005915D01*
X003416Y005862D01*
X003396Y005809D01*
X003372Y005758D01*
X003345Y005709D01*
X003314Y005662D01*
X003281Y005617D01*
X003245Y005574D01*
X003206Y005534D01*
X003164Y005496D01*
X003158Y005503D01*
X003199Y005540D01*
X003238Y005580D01*
X003274Y005622D01*
X003307Y005667D01*
X003337Y005714D01*
X003364Y005762D01*
X003387Y005813D01*
X003408Y005865D01*
X003424Y005918D01*
X003437Y005972D01*
X003447Y006026D01*
X003453Y006081D01*
X003455Y006137D01*
X003446Y006137D01*
X003444Y006082D01*
X003438Y006027D01*
X003429Y005973D01*
X003416Y005920D01*
X003399Y005868D01*
X003379Y005816D01*
X003356Y005767D01*
X003329Y005718D01*
X003300Y005672D01*
X003267Y005628D01*
X003231Y005586D01*
X003193Y005547D01*
X003152Y005510D01*
X003147Y005517D01*
X003187Y005553D01*
X003225Y005592D01*
X003260Y005634D01*
X003292Y005677D01*
X003322Y005723D01*
X003348Y005771D01*
X003371Y005820D01*
X003391Y005870D01*
X003407Y005922D01*
X003420Y005975D01*
X003429Y006029D01*
X003435Y006083D01*
X003437Y006137D01*
X003428Y006137D01*
X003426Y006083D01*
X003420Y006030D01*
X003411Y005977D01*
X003398Y005925D01*
X003382Y005873D01*
X003363Y005823D01*
X003340Y005775D01*
X003314Y005728D01*
X003285Y005682D01*
X003253Y005639D01*
X003218Y005598D01*
X003181Y005560D01*
X003141Y005524D01*
X003135Y005531D01*
X003174Y005566D01*
X003211Y005604D01*
X003246Y005645D01*
X003277Y005688D01*
X003306Y005732D01*
X003332Y005779D01*
X003354Y005827D01*
X003374Y005876D01*
X003390Y005927D01*
X003402Y005979D01*
X003411Y006031D01*
X003417Y006084D01*
X003419Y006137D01*
X003410Y006137D01*
X003408Y006085D01*
X003402Y006032D01*
X003393Y005981D01*
X003381Y005930D01*
X003365Y005879D01*
X003346Y005830D01*
X003324Y005783D01*
X003298Y005737D01*
X003270Y005693D01*
X003239Y005651D01*
X003205Y005610D01*
X003168Y005573D01*
X003129Y005538D01*
X003123Y005544D01*
X003162Y005579D01*
X003198Y005617D01*
X003232Y005656D01*
X003263Y005698D01*
X003291Y005742D01*
X003316Y005787D01*
X003338Y005834D01*
X003357Y005882D01*
X003372Y005932D01*
X003385Y005982D01*
X003393Y006034D01*
X003399Y006085D01*
X003401Y006137D01*
X003392Y006137D01*
X003390Y006086D01*
X003385Y006035D01*
X003376Y005984D01*
X003364Y005934D01*
X003348Y005885D01*
X003330Y005838D01*
X003308Y005791D01*
X003283Y005746D01*
X003255Y005703D01*
X003225Y005662D01*
X003192Y005623D01*
X003156Y005586D01*
X003118Y005551D01*
X003112Y005558D01*
X003153Y005595D01*
X003191Y005635D01*
X003225Y005677D01*
X003257Y005722D01*
X003286Y005769D01*
X003311Y005818D01*
X003332Y005869D01*
X003350Y005920D01*
X003364Y005974D01*
X003374Y006028D01*
X003381Y006082D01*
X003383Y006137D01*
X033931Y005508D02*
X033841Y005508D01*
X033842Y005509D02*
X033840Y005563D01*
X033834Y005616D01*
X033824Y005669D01*
X033810Y005721D01*
X033793Y005772D01*
X033772Y005822D01*
X033748Y005870D01*
X033720Y005916D01*
X033689Y005960D01*
X033655Y006001D01*
X033618Y006041D01*
X033579Y006077D01*
X033636Y006145D01*
X033637Y006146D01*
X033678Y006108D01*
X033716Y006068D01*
X033752Y006025D01*
X033785Y005980D01*
X033815Y005933D01*
X033841Y005885D01*
X033865Y005834D01*
X033885Y005782D01*
X033901Y005729D01*
X033915Y005675D01*
X033924Y005620D01*
X033930Y005565D01*
X033932Y005509D01*
X033923Y005509D01*
X033921Y005564D01*
X033915Y005619D01*
X033906Y005673D01*
X033893Y005727D01*
X033876Y005779D01*
X033857Y005831D01*
X033833Y005881D01*
X033807Y005929D01*
X033777Y005975D01*
X033745Y006020D01*
X033710Y006062D01*
X033671Y006102D01*
X033631Y006139D01*
X033625Y006132D01*
X033665Y006095D01*
X033703Y006056D01*
X033738Y006014D01*
X033770Y005970D01*
X033799Y005924D01*
X033825Y005876D01*
X033848Y005827D01*
X033868Y005776D01*
X033884Y005724D01*
X033897Y005671D01*
X033906Y005618D01*
X033912Y005563D01*
X033914Y005509D01*
X033905Y005509D01*
X033903Y005563D01*
X033897Y005616D01*
X033888Y005669D01*
X033875Y005722D01*
X033859Y005773D01*
X033840Y005824D01*
X033817Y005872D01*
X033792Y005920D01*
X033763Y005965D01*
X033731Y006009D01*
X033696Y006050D01*
X033659Y006089D01*
X033619Y006125D01*
X033613Y006118D01*
X033653Y006082D01*
X033690Y006044D01*
X033724Y006003D01*
X033755Y005960D01*
X033784Y005915D01*
X033809Y005868D01*
X033832Y005820D01*
X033851Y005770D01*
X033867Y005719D01*
X033879Y005668D01*
X033888Y005615D01*
X033894Y005562D01*
X033896Y005509D01*
X033887Y005509D01*
X033885Y005562D01*
X033879Y005614D01*
X033870Y005666D01*
X033858Y005717D01*
X033842Y005767D01*
X033823Y005817D01*
X033801Y005864D01*
X033776Y005911D01*
X033748Y005955D01*
X033717Y005997D01*
X033683Y006038D01*
X033646Y006076D01*
X033608Y006111D01*
X033602Y006105D01*
X033640Y006069D01*
X033676Y006032D01*
X033710Y005992D01*
X033740Y005950D01*
X033768Y005906D01*
X033793Y005860D01*
X033815Y005813D01*
X033834Y005764D01*
X033849Y005715D01*
X033862Y005664D01*
X033870Y005613D01*
X033876Y005561D01*
X033878Y005509D01*
X033869Y005509D01*
X033867Y005565D01*
X033860Y005620D01*
X033850Y005675D01*
X033836Y005729D01*
X033818Y005782D01*
X033796Y005833D01*
X033771Y005883D01*
X033742Y005931D01*
X033710Y005976D01*
X033675Y006019D01*
X033637Y006060D01*
X033596Y006098D01*
X033590Y006091D01*
X033631Y006054D01*
X033668Y006013D01*
X033703Y005971D01*
X033735Y005926D01*
X033763Y005878D01*
X033788Y005829D01*
X033810Y005778D01*
X033827Y005726D01*
X033841Y005673D01*
X033851Y005619D01*
X033858Y005564D01*
X033860Y005509D01*
X033851Y005509D01*
X033849Y005563D01*
X033843Y005617D01*
X033833Y005671D01*
X033819Y005724D01*
X033801Y005775D01*
X033780Y005825D01*
X033755Y005874D01*
X033727Y005921D01*
X033696Y005965D01*
X033662Y006007D01*
X033624Y006047D01*
X033584Y006084D01*
X032243Y005499D02*
X032333Y005499D01*
X032332Y005499D02*
X032334Y005445D01*
X032340Y005392D01*
X032350Y005339D01*
X032364Y005287D01*
X032381Y005236D01*
X032402Y005187D01*
X032426Y005139D01*
X032454Y005093D01*
X032485Y005049D01*
X032519Y005007D01*
X032555Y004968D01*
X032595Y004931D01*
X032637Y004898D01*
X032681Y004867D01*
X032727Y004840D01*
X032685Y004761D01*
X032636Y004789D01*
X032590Y004821D01*
X032545Y004856D01*
X032503Y004893D01*
X032463Y004934D01*
X032427Y004977D01*
X032393Y005022D01*
X032362Y005069D01*
X032335Y005119D01*
X032311Y005170D01*
X032290Y005222D01*
X032273Y005276D01*
X032260Y005331D01*
X032250Y005386D01*
X032244Y005443D01*
X032242Y005499D01*
X032251Y005499D01*
X032253Y005443D01*
X032259Y005388D01*
X032269Y005333D01*
X032282Y005278D01*
X032299Y005225D01*
X032319Y005173D01*
X032343Y005123D01*
X032370Y005074D01*
X032400Y005027D01*
X032434Y004982D01*
X032470Y004940D01*
X032509Y004900D01*
X032551Y004863D01*
X032595Y004828D01*
X032641Y004797D01*
X032689Y004769D01*
X032693Y004777D01*
X032646Y004805D01*
X032600Y004836D01*
X032557Y004870D01*
X032515Y004906D01*
X032477Y004946D01*
X032441Y004988D01*
X032408Y005032D01*
X032378Y005078D01*
X032351Y005127D01*
X032328Y005177D01*
X032307Y005228D01*
X032291Y005281D01*
X032278Y005334D01*
X032268Y005389D01*
X032262Y005444D01*
X032260Y005499D01*
X032269Y005499D01*
X032271Y005444D01*
X032277Y005390D01*
X032286Y005336D01*
X032299Y005283D01*
X032316Y005231D01*
X032336Y005180D01*
X032359Y005131D01*
X032386Y005083D01*
X032415Y005037D01*
X032448Y004993D01*
X032483Y004952D01*
X032522Y004913D01*
X032562Y004876D01*
X032605Y004843D01*
X032651Y004812D01*
X032698Y004785D01*
X032702Y004793D01*
X032655Y004820D01*
X032611Y004850D01*
X032568Y004883D01*
X032528Y004919D01*
X032490Y004958D01*
X032455Y004999D01*
X032423Y005042D01*
X032393Y005088D01*
X032367Y005135D01*
X032344Y005184D01*
X032324Y005234D01*
X032308Y005286D01*
X032295Y005338D01*
X032286Y005391D01*
X032280Y005445D01*
X032278Y005499D01*
X032287Y005499D01*
X032289Y005446D01*
X032295Y005393D01*
X032304Y005340D01*
X032317Y005288D01*
X032333Y005237D01*
X032352Y005187D01*
X032375Y005139D01*
X032401Y005092D01*
X032430Y005048D01*
X032462Y005005D01*
X032497Y004964D01*
X032534Y004926D01*
X032574Y004890D01*
X032616Y004857D01*
X032660Y004827D01*
X032706Y004800D01*
X032710Y004808D01*
X032665Y004835D01*
X032621Y004865D01*
X032580Y004897D01*
X032540Y004932D01*
X032503Y004970D01*
X032469Y005010D01*
X032437Y005053D01*
X032409Y005097D01*
X032383Y005143D01*
X032361Y005191D01*
X032341Y005240D01*
X032325Y005290D01*
X032313Y005342D01*
X032304Y005394D01*
X032298Y005446D01*
X032296Y005499D01*
X032305Y005499D01*
X032307Y005443D01*
X032314Y005388D01*
X032324Y005333D01*
X032338Y005279D01*
X032356Y005227D01*
X032377Y005175D01*
X032403Y005126D01*
X032431Y005078D01*
X032463Y005032D01*
X032498Y004989D01*
X032536Y004949D01*
X032577Y004911D01*
X032621Y004876D01*
X032667Y004845D01*
X032715Y004816D01*
X032719Y004824D01*
X032671Y004852D01*
X032626Y004883D01*
X032583Y004918D01*
X032543Y004955D01*
X032505Y004995D01*
X032470Y005038D01*
X032439Y005083D01*
X032410Y005130D01*
X032386Y005179D01*
X032364Y005230D01*
X032347Y005282D01*
X032333Y005335D01*
X032323Y005389D01*
X032316Y005444D01*
X032314Y005499D01*
X032323Y005499D01*
X032325Y005445D01*
X032331Y005391D01*
X032341Y005337D01*
X032355Y005285D01*
X032373Y005233D01*
X032394Y005183D01*
X032418Y005134D01*
X032446Y005088D01*
X032478Y005043D01*
X032512Y005001D01*
X032549Y004962D01*
X032589Y004925D01*
X032631Y004891D01*
X032676Y004860D01*
X032723Y004832D01*
X033510Y004773D02*
X033465Y004851D01*
X033466Y004851D02*
X033510Y004879D01*
X033552Y004910D01*
X033592Y004943D01*
X033630Y004979D01*
X033665Y005018D01*
X033697Y005059D01*
X033727Y005103D01*
X033753Y005148D01*
X033776Y005195D01*
X033796Y005243D01*
X033812Y005293D01*
X033825Y005343D01*
X033834Y005395D01*
X033840Y005447D01*
X033842Y005499D01*
X033931Y005500D01*
X033932Y005499D01*
X033930Y005444D01*
X033924Y005390D01*
X033915Y005335D01*
X033902Y005282D01*
X033886Y005230D01*
X033867Y005178D01*
X033844Y005128D01*
X033818Y005080D01*
X033789Y005033D01*
X033757Y004989D01*
X033722Y004946D01*
X033684Y004906D01*
X033644Y004869D01*
X033602Y004834D01*
X033557Y004802D01*
X033511Y004773D01*
X033506Y004781D01*
X033552Y004809D01*
X033596Y004841D01*
X033638Y004876D01*
X033678Y004913D01*
X033715Y004952D01*
X033750Y004994D01*
X033781Y005038D01*
X033810Y005084D01*
X033836Y005132D01*
X033858Y005182D01*
X033878Y005232D01*
X033894Y005284D01*
X033906Y005337D01*
X033915Y005391D01*
X033921Y005445D01*
X033923Y005499D01*
X033914Y005499D01*
X033912Y005445D01*
X033906Y005392D01*
X033897Y005339D01*
X033885Y005287D01*
X033869Y005235D01*
X033850Y005185D01*
X033828Y005136D01*
X033802Y005089D01*
X033774Y005043D01*
X033742Y005000D01*
X033708Y004958D01*
X033672Y004919D01*
X033632Y004882D01*
X033591Y004848D01*
X033547Y004817D01*
X033502Y004788D01*
X033497Y004796D01*
X033545Y004826D01*
X033591Y004860D01*
X033634Y004896D01*
X033675Y004936D01*
X033713Y004978D01*
X033748Y005022D01*
X033780Y005069D01*
X033808Y005118D01*
X033833Y005169D01*
X033855Y005222D01*
X033872Y005275D01*
X033886Y005330D01*
X033896Y005386D01*
X033903Y005442D01*
X033905Y005499D01*
X033896Y005499D01*
X033894Y005443D01*
X033888Y005387D01*
X033878Y005332D01*
X033864Y005278D01*
X033846Y005225D01*
X033825Y005173D01*
X033800Y005122D01*
X033772Y005074D01*
X033741Y005028D01*
X033706Y004983D01*
X033669Y004942D01*
X033628Y004903D01*
X033586Y004867D01*
X033540Y004834D01*
X033493Y004804D01*
X033488Y004812D01*
X033535Y004841D01*
X033580Y004874D01*
X033622Y004910D01*
X033662Y004948D01*
X033699Y004989D01*
X033734Y005033D01*
X033765Y005079D01*
X033792Y005127D01*
X033817Y005176D01*
X033838Y005228D01*
X033855Y005280D01*
X033869Y005334D01*
X033879Y005389D01*
X033885Y005444D01*
X033887Y005499D01*
X033878Y005499D01*
X033876Y005444D01*
X033870Y005390D01*
X033860Y005336D01*
X033846Y005283D01*
X033829Y005231D01*
X033809Y005180D01*
X033784Y005131D01*
X033757Y005084D01*
X033726Y005038D01*
X033693Y004995D01*
X033656Y004954D01*
X033616Y004916D01*
X033574Y004881D01*
X033530Y004849D01*
X033484Y004820D01*
X033479Y004828D01*
X033525Y004856D01*
X033569Y004888D01*
X033610Y004923D01*
X033649Y004961D01*
X033686Y005001D01*
X033719Y005043D01*
X033749Y005088D01*
X033777Y005135D01*
X033800Y005184D01*
X033821Y005234D01*
X033838Y005285D01*
X033851Y005338D01*
X033861Y005391D01*
X033867Y005445D01*
X033869Y005499D01*
X033860Y005499D01*
X033858Y005446D01*
X033852Y005392D01*
X033842Y005340D01*
X033829Y005288D01*
X033812Y005237D01*
X033792Y005187D01*
X033769Y005139D01*
X033742Y005093D01*
X033712Y005049D01*
X033679Y005007D01*
X033643Y004967D01*
X033604Y004930D01*
X033563Y004895D01*
X033520Y004864D01*
X033475Y004835D01*
X033470Y004843D01*
X033515Y004871D01*
X033558Y004902D01*
X033598Y004936D01*
X033636Y004973D01*
X033672Y005012D01*
X033704Y005054D01*
X033734Y005098D01*
X033761Y005144D01*
X033784Y005191D01*
X033804Y005240D01*
X033821Y005290D01*
X033834Y005342D01*
X033843Y005394D01*
X033849Y005446D01*
X033851Y005499D01*
X032543Y006149D02*
X032600Y006080D01*
X032600Y006081D02*
X032560Y006044D01*
X032522Y006005D01*
X032488Y005963D01*
X032456Y005919D01*
X032428Y005873D01*
X032403Y005824D01*
X032382Y005774D01*
X032364Y005723D01*
X032351Y005670D01*
X032341Y005617D01*
X032334Y005563D01*
X032332Y005509D01*
X032243Y005508D01*
X032242Y005509D01*
X032244Y005565D01*
X032250Y005621D01*
X032260Y005676D01*
X032273Y005731D01*
X032290Y005784D01*
X032310Y005837D01*
X032334Y005888D01*
X032361Y005937D01*
X032392Y005984D01*
X032425Y006029D01*
X032461Y006072D01*
X032500Y006112D01*
X032542Y006150D01*
X032548Y006143D01*
X032507Y006106D01*
X032468Y006066D01*
X032432Y006024D01*
X032399Y005979D01*
X032369Y005932D01*
X032342Y005884D01*
X032319Y005833D01*
X032298Y005781D01*
X032282Y005728D01*
X032269Y005674D01*
X032259Y005620D01*
X032253Y005565D01*
X032251Y005509D01*
X032260Y005509D01*
X032262Y005564D01*
X032268Y005619D01*
X032277Y005673D01*
X032290Y005726D01*
X032307Y005778D01*
X032327Y005830D01*
X032350Y005879D01*
X032377Y005928D01*
X032406Y005974D01*
X032439Y006018D01*
X032475Y006060D01*
X032513Y006099D01*
X032554Y006136D01*
X032559Y006129D01*
X032519Y006093D01*
X032481Y006054D01*
X032446Y006012D01*
X032414Y005969D01*
X032384Y005923D01*
X032358Y005875D01*
X032335Y005826D01*
X032315Y005776D01*
X032299Y005724D01*
X032286Y005671D01*
X032277Y005617D01*
X032271Y005563D01*
X032269Y005509D01*
X032278Y005509D01*
X032280Y005563D01*
X032286Y005616D01*
X032295Y005669D01*
X032308Y005721D01*
X032324Y005773D01*
X032343Y005823D01*
X032366Y005871D01*
X032392Y005918D01*
X032421Y005964D01*
X032453Y006007D01*
X032488Y006048D01*
X032525Y006086D01*
X032565Y006122D01*
X032571Y006115D01*
X032532Y006080D01*
X032495Y006042D01*
X032460Y006001D01*
X032429Y005958D01*
X032400Y005914D01*
X032374Y005867D01*
X032352Y005819D01*
X032332Y005770D01*
X032316Y005719D01*
X032304Y005667D01*
X032295Y005615D01*
X032289Y005562D01*
X032287Y005509D01*
X032296Y005509D01*
X032298Y005561D01*
X032304Y005614D01*
X032313Y005665D01*
X032325Y005716D01*
X032341Y005767D01*
X032360Y005816D01*
X032382Y005863D01*
X032408Y005909D01*
X032436Y005953D01*
X032467Y005995D01*
X032501Y006036D01*
X032538Y006073D01*
X032577Y006108D01*
X032583Y006102D01*
X032544Y006067D01*
X032508Y006029D01*
X032474Y005990D01*
X032443Y005948D01*
X032415Y005904D01*
X032390Y005859D01*
X032368Y005812D01*
X032349Y005764D01*
X032334Y005714D01*
X032321Y005664D01*
X032313Y005612D01*
X032307Y005561D01*
X032305Y005509D01*
X032314Y005509D01*
X032316Y005560D01*
X032321Y005611D01*
X032330Y005662D01*
X032342Y005712D01*
X032358Y005761D01*
X032376Y005808D01*
X032398Y005855D01*
X032423Y005900D01*
X032451Y005943D01*
X032481Y005984D01*
X032514Y006023D01*
X032550Y006060D01*
X032588Y006095D01*
X032594Y006088D01*
X032553Y006051D01*
X032515Y006011D01*
X032481Y005969D01*
X032449Y005924D01*
X032420Y005877D01*
X032395Y005828D01*
X032374Y005777D01*
X032356Y005726D01*
X032342Y005672D01*
X032332Y005618D01*
X032325Y005564D01*
X032323Y005509D01*
D185*
X032255Y004274D02*
X032255Y003967D01*
X032102Y004120D02*
X032409Y004120D01*
M02*
