%
M48
M72
T01C0.0118
T02C0.0157
T03C0.0197
T04C0.0256
T05C0.0315
T06C0.0320
T07C0.0354
T08C0.0472
T09C0.0669
%
T01
X20039Y1890
X22019Y2300
T02
X18469Y3400
X18119Y2980
X18219Y4150
X21719Y4650
X18469Y6150
X16719Y5900
X11969Y5400
X13969Y3400
X4569Y5430
X3969Y6900
X6369Y8410
X7459Y8530
X4219Y10150
X3001Y10095
X3001Y8520
X16579Y9010
X17469Y8650
X31989Y3150
X26969Y1900
T03
X30219Y2900
X20149Y5750
X17429Y4090
X13969Y6650
T04
X32269Y5374
X32269Y4646
T05
X13863Y11138
X12863Y11138
X11863Y11138
X10863Y11138
X9863Y11138
T06
X2619Y6642
X2619Y5642
X33087Y6004
X33087Y5004
T07
X1969Y4036
X1969Y2264
T08
X2954Y1772
X2954Y4528
T09
X8477Y6048
X5524Y7032
X8477Y8016
X26981Y8016
X29934Y7032
X26981Y6048
M30
