G75*
%MOIN*%
%OFA0B0*%
%FSLAX24Y24*%
%IPPOS*%
%LPD*%
%AMOC8*
5,1,8,0,0,1.08239X$1,22.5*
%
%ADD10C,0.0050*%
%ADD11C,0.0240*%
%ADD12C,0.0060*%
%ADD13C,0.0120*%
%ADD14C,0.0080*%
%ADD15R,0.0300X0.0180*%
%ADD16R,0.0180X0.0300*%
%ADD17R,0.0160X0.0120*%
%ADD18R,0.0120X0.0160*%
D10*
X005689Y002040D02*
X005735Y001995D01*
X005825Y001995D01*
X005870Y002040D01*
X005984Y002040D02*
X005984Y002220D01*
X006029Y002265D01*
X006164Y002265D01*
X006164Y001995D01*
X006029Y001995D01*
X005984Y002040D01*
X005870Y002220D02*
X005825Y002265D01*
X005735Y002265D01*
X005689Y002220D01*
X005689Y002175D01*
X005735Y002130D01*
X005689Y002085D01*
X005689Y002040D01*
X005735Y002130D02*
X005780Y002130D01*
X005735Y003015D02*
X005735Y003285D01*
X005870Y003150D01*
X005689Y003150D01*
X005984Y003060D02*
X006029Y003015D01*
X006164Y003015D01*
X006164Y003285D01*
X006029Y003285D01*
X005984Y003240D01*
X005984Y003060D01*
X007295Y004385D02*
X007385Y004385D01*
X007430Y004430D01*
X007544Y004430D02*
X007589Y004385D01*
X007679Y004385D01*
X007724Y004430D01*
X007724Y004610D01*
X007679Y004655D01*
X007589Y004655D01*
X007544Y004610D01*
X007544Y004430D01*
X007544Y004385D02*
X007634Y004475D01*
X007430Y004610D02*
X007385Y004655D01*
X007295Y004655D01*
X007249Y004610D01*
X007249Y004565D01*
X007295Y004520D01*
X007249Y004475D01*
X007249Y004430D01*
X007295Y004385D01*
X007295Y004520D02*
X007340Y004520D01*
X005334Y005350D02*
X005289Y005305D01*
X005199Y005305D01*
X005154Y005350D01*
X005154Y005530D01*
X005199Y005575D01*
X005289Y005575D01*
X005334Y005530D01*
X005334Y005350D01*
X005244Y005395D02*
X005154Y005305D01*
X005040Y005350D02*
X004995Y005305D01*
X004905Y005305D01*
X004859Y005350D01*
X004859Y005440D01*
X004905Y005485D01*
X004950Y005485D01*
X005040Y005440D01*
X005040Y005575D01*
X004859Y005575D01*
X005955Y006100D02*
X006000Y006055D01*
X006090Y006055D01*
X006135Y006100D01*
X005955Y006280D01*
X005955Y006100D01*
X006135Y006100D02*
X006135Y006280D01*
X006090Y006325D01*
X006000Y006325D01*
X005955Y006280D01*
X006340Y006325D02*
X006430Y006235D01*
X006544Y006280D02*
X006544Y006190D01*
X006589Y006145D01*
X006724Y006145D01*
X006634Y006145D02*
X006544Y006055D01*
X006430Y006055D02*
X006249Y006055D01*
X006340Y006055D02*
X006340Y006325D01*
X006544Y006280D02*
X006589Y006325D01*
X006724Y006325D01*
X006724Y006055D01*
X005024Y008385D02*
X005024Y008655D01*
X004889Y008655D01*
X004844Y008610D01*
X004844Y008520D01*
X004889Y008475D01*
X005024Y008475D01*
X004934Y008475D02*
X004844Y008385D01*
X004730Y008430D02*
X004730Y008475D01*
X004685Y008520D01*
X004595Y008520D01*
X004549Y008475D01*
X004549Y008430D01*
X004595Y008385D01*
X004685Y008385D01*
X004730Y008430D01*
X004685Y008520D02*
X004730Y008565D01*
X004730Y008610D01*
X004685Y008655D01*
X004595Y008655D01*
X004549Y008610D01*
X004549Y008565D01*
X004595Y008520D01*
X005409Y009155D02*
X005590Y009155D01*
X005409Y009335D01*
X005409Y009380D01*
X005455Y009425D01*
X005545Y009425D01*
X005590Y009380D01*
X005704Y009380D02*
X005749Y009425D01*
X005884Y009425D01*
X005884Y009155D01*
X005749Y009155D01*
X005704Y009200D01*
X005704Y009380D01*
X007789Y008810D02*
X007789Y008630D01*
X007835Y008585D01*
X007925Y008585D01*
X007970Y008630D01*
X007925Y008720D02*
X007789Y008720D01*
X007789Y008810D02*
X007835Y008855D01*
X007925Y008855D01*
X007970Y008810D01*
X007970Y008765D01*
X007925Y008720D01*
X008084Y008720D02*
X008084Y008810D01*
X008129Y008855D01*
X008264Y008855D01*
X008264Y008585D01*
X008264Y008675D02*
X008129Y008675D01*
X008084Y008720D01*
X008174Y008675D02*
X008084Y008585D01*
X007659Y011105D02*
X007569Y011105D01*
X007524Y011150D01*
X007410Y011105D02*
X007229Y011285D01*
X007229Y011330D01*
X007275Y011375D01*
X007365Y011375D01*
X007410Y011330D01*
X007524Y011330D02*
X007569Y011375D01*
X007659Y011375D01*
X007704Y011330D01*
X007704Y011150D01*
X007659Y011105D01*
X007410Y011105D02*
X007229Y011105D01*
X006454Y011140D02*
X006454Y011320D01*
X006409Y011365D01*
X006319Y011365D01*
X006274Y011320D01*
X006274Y011140D01*
X006319Y011095D01*
X006409Y011095D01*
X006454Y011140D01*
X006364Y011185D02*
X006274Y011095D01*
X006160Y011095D02*
X005979Y011275D01*
X005979Y011320D01*
X006025Y011365D01*
X006115Y011365D01*
X006160Y011320D01*
X006160Y011095D02*
X005979Y011095D01*
X003934Y011115D02*
X003934Y011385D01*
X003799Y011385D01*
X003754Y011340D01*
X003754Y011250D01*
X003799Y011205D01*
X003934Y011205D01*
X003844Y011205D02*
X003754Y011115D01*
X003640Y011115D02*
X003640Y011160D01*
X003459Y011340D01*
X003459Y011385D01*
X003640Y011385D01*
X025589Y001905D02*
X025770Y001905D01*
X025770Y001770D01*
X025680Y001815D01*
X025635Y001815D01*
X025589Y001770D01*
X025589Y001680D01*
X025635Y001635D01*
X025725Y001635D01*
X025770Y001680D01*
X025884Y001680D02*
X025929Y001635D01*
X026019Y001635D01*
X026064Y001680D01*
X026064Y001860D01*
X026019Y001905D01*
X025929Y001905D01*
X025884Y001860D01*
D11*
X025759Y002560D02*
X025761Y002568D01*
X025766Y002575D01*
X025773Y002579D01*
X025781Y002580D01*
X025789Y002577D01*
X025795Y002572D01*
X025799Y002564D01*
X025799Y002556D01*
X025795Y002548D01*
X025789Y002543D01*
X025781Y002540D01*
X025773Y002541D01*
X025766Y002545D01*
X025761Y002552D01*
X025759Y002560D01*
X026034Y009070D02*
X025824Y009280D01*
X025824Y009701D01*
X026034Y009911D01*
X026455Y009911D01*
X026665Y009701D01*
X026665Y009280D01*
X026455Y009070D01*
X026034Y009070D01*
X027205Y009280D02*
X027205Y009701D01*
X027626Y009701D01*
X028587Y009701D02*
X028797Y009911D01*
X029217Y009911D01*
X029427Y009701D01*
X029427Y009280D01*
X029217Y009070D01*
X028797Y009070D01*
X028587Y009280D01*
X028587Y009701D01*
X028046Y010121D02*
X028046Y009280D01*
X027836Y009070D01*
X027416Y009070D01*
X027205Y009280D01*
X027205Y010121D02*
X027416Y010331D01*
X027836Y010331D01*
X028046Y010121D01*
X029968Y010121D02*
X030178Y010331D01*
X030598Y010331D01*
X030809Y010121D01*
X030809Y009280D01*
X030598Y009070D01*
X030178Y009070D01*
X029968Y009280D01*
X029968Y009701D01*
X030388Y009701D01*
X031519Y009911D02*
X031519Y009070D01*
X031729Y009070D02*
X031309Y009070D01*
X031519Y009911D02*
X031729Y009911D01*
X031519Y010331D02*
X031519Y010541D01*
X007949Y010902D02*
X007951Y010910D01*
X007956Y010917D01*
X007963Y010921D01*
X007971Y010922D01*
X007979Y010919D01*
X007985Y010914D01*
X007989Y010906D01*
X007989Y010898D01*
X007985Y010890D01*
X007979Y010885D01*
X007971Y010882D01*
X007963Y010883D01*
X007956Y010887D01*
X007951Y010894D01*
X007949Y010902D01*
D12*
X026055Y004070D02*
X026225Y003900D01*
X025998Y003900D01*
X026055Y003730D02*
X026055Y004070D01*
X026550Y004013D02*
X026777Y003786D01*
X026721Y003730D01*
X026607Y003730D01*
X026550Y003786D01*
X026550Y004013D01*
X026607Y004070D01*
X026721Y004070D01*
X026777Y004013D01*
X026777Y003786D01*
X026919Y003843D02*
X026919Y004070D01*
X027146Y004070D02*
X027146Y003843D01*
X027032Y003730D01*
X026919Y003843D01*
X026409Y003786D02*
X026352Y003786D01*
X026352Y003730D01*
X026409Y003730D01*
X026409Y003786D01*
X027655Y003730D02*
X027655Y003900D01*
X027712Y003956D01*
X027882Y003956D01*
X027882Y003730D01*
X028024Y003730D02*
X028024Y003900D01*
X028080Y003956D01*
X028194Y003956D01*
X028194Y003843D02*
X028024Y003843D01*
X028024Y003730D02*
X028194Y003730D01*
X028250Y003786D01*
X028194Y003843D01*
X028505Y003730D02*
X028505Y004070D01*
X028392Y004070D02*
X028619Y004070D01*
X029124Y003956D02*
X029294Y003843D01*
X029124Y003730D01*
X029294Y003730D02*
X029294Y004070D01*
X029436Y003956D02*
X029606Y003956D01*
X029662Y003900D01*
X029662Y003786D01*
X029606Y003730D01*
X029436Y003730D01*
X029804Y003730D02*
X029804Y003900D01*
X029861Y003956D01*
X029974Y003956D01*
X029974Y003843D02*
X029804Y003843D01*
X029804Y003730D02*
X029974Y003730D01*
X030031Y003786D01*
X029974Y003843D01*
X030229Y003786D02*
X030229Y004070D01*
X030286Y004070D02*
X030172Y004070D01*
X030229Y003786D02*
X030286Y003730D01*
X030342Y003730D01*
X030399Y003786D01*
X030909Y003730D02*
X031079Y003730D01*
X031136Y003786D01*
X031136Y003956D01*
X031277Y003956D02*
X031334Y003900D01*
X031504Y003900D01*
X031504Y004070D02*
X031334Y004070D01*
X031277Y004013D01*
X031277Y003956D01*
X031334Y003900D02*
X031277Y003843D01*
X031277Y003786D01*
X031334Y003730D01*
X031504Y003730D01*
X031504Y004070D01*
X030909Y003956D02*
X030909Y003673D01*
X030965Y003616D01*
X031022Y003616D01*
D13*
X024277Y002138D02*
X024277Y009638D01*
X010277Y009638D01*
X010277Y002138D01*
X024277Y002138D01*
X011027Y002638D02*
X011029Y002669D01*
X011035Y002700D01*
X011045Y002730D01*
X011058Y002758D01*
X011075Y002785D01*
X011095Y002809D01*
X011118Y002831D01*
X011143Y002849D01*
X011171Y002864D01*
X011200Y002876D01*
X011230Y002884D01*
X011261Y002888D01*
X011293Y002888D01*
X011324Y002884D01*
X011354Y002876D01*
X011383Y002864D01*
X011411Y002849D01*
X011436Y002831D01*
X011459Y002809D01*
X011479Y002785D01*
X011496Y002758D01*
X011509Y002730D01*
X011519Y002700D01*
X011525Y002669D01*
X011527Y002638D01*
X011525Y002607D01*
X011519Y002576D01*
X011509Y002546D01*
X011496Y002518D01*
X011479Y002491D01*
X011459Y002467D01*
X011436Y002445D01*
X011411Y002427D01*
X011383Y002412D01*
X011354Y002400D01*
X011324Y002392D01*
X011293Y002388D01*
X011261Y002388D01*
X011230Y002392D01*
X011200Y002400D01*
X011171Y002412D01*
X011143Y002427D01*
X011118Y002445D01*
X011095Y002467D01*
X011075Y002491D01*
X011058Y002518D01*
X011045Y002546D01*
X011035Y002576D01*
X011029Y002607D01*
X011027Y002638D01*
X003316Y007733D02*
X003316Y008126D01*
X003309Y007735D02*
X002922Y007735D01*
X002922Y007733D01*
X001741Y007733D02*
X001347Y007733D01*
X003316Y010489D02*
X003316Y010882D01*
X002922Y010882D01*
X001741Y010882D02*
X001347Y010882D01*
D14*
X004615Y001894D02*
X004772Y001894D01*
X004772Y002406D01*
X005324Y002406D01*
X004772Y002406D02*
X004615Y002406D01*
X004615Y002894D02*
X004772Y002894D01*
X004772Y003406D01*
X005324Y003406D01*
X004772Y003406D02*
X004615Y003406D01*
X004772Y002894D02*
X005324Y002894D01*
X005324Y001894D02*
X004772Y001894D01*
X004654Y004256D02*
X004418Y004256D01*
X004418Y004571D01*
X005284Y004256D02*
X005520Y004256D01*
X005520Y004571D01*
X006127Y008918D02*
X006127Y009469D01*
X006639Y009469D01*
X006639Y008918D01*
X006639Y009469D02*
X006639Y009626D01*
X006127Y009626D02*
X006127Y009469D01*
X005311Y010449D02*
X005100Y010449D01*
X004646Y010599D02*
X004646Y010937D01*
X005766Y010937D02*
X005766Y010599D01*
X034009Y009926D02*
X034580Y009926D01*
X034580Y009437D01*
X035426Y009437D01*
X035721Y009733D01*
X037217Y009733D01*
X037217Y009398D01*
X037680Y009398D01*
X037680Y007902D01*
X037217Y007902D01*
X037217Y007567D01*
X035721Y007567D01*
X035426Y007863D01*
X034580Y007863D01*
X034580Y007374D01*
X034009Y007374D01*
X034009Y007759D02*
X034009Y009541D01*
D15*
X008009Y009426D03*
X004808Y009288D03*
X004198Y010961D03*
D16*
X006524Y005729D03*
D17*
X008500Y005108D03*
D18*
X009327Y004778D03*
M02*
